<?xml version="1.0" encoding="UTF-8"?>
<svg id="_圖層_2" data-name="圖層 2" xmlns="http://www.w3.org/2000/svg" xmlns:xlink="http://www.w3.org/1999/xlink" viewBox="0 0 625.25 123.04">
  <defs>
    <style>
      .cls-1 {
        fill: url(#CBL漸層);
      }

      .cls-1, .cls-2, .cls-3, .cls-4, .cls-5 {
        stroke-width: 0px;
      }

      .cls-2 {
        fill: url(#CBL漸層-2);
      }

      .cls-6 {
        fill: none;
        stroke: #505050;
        stroke-miterlimit: 10;
        stroke-width: .42px;
      }

      .cls-3 {
        fill: #505050;
      }

      .cls-4 {
        fill: #878787;
      }

      .cls-5 {
        fill: url(#CBL漸層-3);
      }
    </style>
    <linearGradient id="CBL漸層" x1="19.84" y1="36.46" x2="98.45" y2="81.84" gradientUnits="userSpaceOnUse">
      <stop offset="0" stop-color="#00f559"/>
      <stop offset=".51" stop-color="#00cfff"/>
      <stop offset=".54" stop-color="#06c6fd"/>
      <stop offset="1" stop-color="#644de2"/>
    </linearGradient>
    <linearGradient id="CBL漸層-2" data-name="CBL漸層" gradientTransform="translate(60.4 -53.38) rotate(45)" xlink:href="#CBL漸層"/>
    <linearGradient id="CBL漸層-3" data-name="CBL漸層" gradientTransform="translate(88.37 32.5) rotate(76.72)" xlink:href="#CBL漸層"/>
  </defs>
  <g id="_圖層_1-2" data-name="圖層 1">
    <g>
      <path class="cls-4" d="m143.72,72.65v-10.21c0-2.48.61-4.34,1.83-5.59,1.22-1.24,2.83-1.86,4.84-1.86s3.52.59,4.75,1.77c1.23,1.18,1.84,2.97,1.84,5.36v.32h-2.59v-.25c0-1.68-.36-2.91-1.08-3.69-.72-.78-1.68-1.17-2.89-1.17-1.37,0-2.4.43-3.09,1.29-.69.86-1.03,2.22-1.03,4.06v10c0,3.36,1.37,5.04,4.11,5.04,1.23,0,2.2-.39,2.91-1.17.71-.78,1.06-1.97,1.06-3.58v-.32h2.52v.35c0,2.36-.6,4.13-1.81,5.3-1.21,1.17-2.77,1.76-4.68,1.76-2.01,0-3.63-.62-4.86-1.86-1.23-1.24-1.84-3.09-1.84-5.55Z"/>
      <path class="cls-4" d="m162.52,61.44v1.81c.4-.71.93-1.24,1.6-1.58.66-.34,1.41-.51,2.23-.51.5,0,.93.05,1.31.14v2.34c-.64-.21-1.23-.32-1.77-.32-.97,0-1.76.31-2.38.92-.61.61-.92,1.45-.92,2.52v13.02h-2.41v-18.34h2.34Z"/>
      <path class="cls-4" d="m169.69,73.82v-6.42c0-2.15.48-3.73,1.45-4.74s2.33-1.51,4.08-1.51,3.03.51,3.99,1.52c.96,1.02,1.44,2.59,1.44,4.72v6.42c0,2.13-.48,3.7-1.44,4.72-.96,1.02-2.29,1.53-3.99,1.53s-3.11-.5-4.08-1.51-1.45-2.58-1.45-4.74Zm8.55-.28v-5.85c0-1.56-.26-2.68-.78-3.35-.52-.67-1.28-1.01-2.27-1.01s-1.76.33-2.29.99c-.53.66-.8,1.79-.8,3.37v5.85c0,1.58.27,2.71.8,3.37.53.66,1.3.99,2.29.99s1.75-.34,2.27-1.01c.52-.67.78-1.79.78-3.35Z"/>
      <path class="cls-4" d="m183.09,74.85v-.21h2.23v.21c0,.99.28,1.76.85,2.29.57.53,1.35.8,2.34.8.92,0,1.66-.24,2.22-.73.56-.48.83-1.22.83-2.22,0-.78-.19-1.4-.57-1.84-.38-.45-1.02-.86-1.91-1.24l-2.31-.96c-2.34-.97-3.51-2.57-3.51-4.79,0-1.51.48-2.73,1.44-3.64.96-.91,2.24-1.37,3.85-1.37s2.88.46,3.81,1.38c.93.92,1.4,2.16,1.4,3.72v.46h-2.23v-.21c0-1.04-.26-1.84-.78-2.41-.52-.57-1.26-.85-2.23-.85-.87,0-1.57.24-2.07.73-.51.48-.76,1.15-.76,2,0,.64.17,1.19.5,1.67.33.47.91.89,1.74,1.24l2.31.96c1.25.52,2.19,1.15,2.82,1.88.63.73.94,1.76.94,3.09,0,1.66-.49,2.94-1.47,3.87-.98.92-2.34,1.38-4.06,1.38s-2.96-.47-3.92-1.4c-.96-.93-1.44-2.2-1.44-3.81Z"/>
      <path class="cls-4" d="m195.55,74.85v-.21h2.23v.21c0,.99.28,1.76.85,2.29.57.53,1.35.8,2.34.8.92,0,1.66-.24,2.22-.73.56-.48.83-1.22.83-2.22,0-.78-.19-1.4-.57-1.84-.38-.45-1.02-.86-1.91-1.24l-2.31-.96c-2.34-.97-3.51-2.57-3.51-4.79,0-1.51.48-2.73,1.44-3.64.96-.91,2.24-1.37,3.85-1.37s2.88.46,3.81,1.38c.93.92,1.4,2.16,1.4,3.72v.46h-2.23v-.21c0-1.04-.26-1.84-.78-2.41-.52-.57-1.26-.85-2.23-.85-.87,0-1.57.24-2.07.73-.51.48-.76,1.15-.76,2,0,.64.17,1.19.5,1.67.33.47.91.89,1.74,1.24l2.31.96c1.25.52,2.19,1.15,2.82,1.88.63.73.94,1.76.94,3.09,0,1.66-.49,2.94-1.47,3.87-.98.92-2.33,1.38-4.06,1.38s-2.96-.47-3.92-1.4c-.96-.93-1.44-2.2-1.44-3.81Z"/>
      <path class="cls-4" d="m218.46,66.3v2.31h-9.75v-2.31h9.75Z"/>
      <path class="cls-4" d="m221.26,73.82v-6.42c0-2.1.44-3.67,1.33-4.7.89-1.03,2.05-1.54,3.49-1.54,1.54,0,2.71.69,3.51,2.06v-7.91h2.41v24.47h-2.41v-1.67c-.8,1.3-1.97,1.95-3.51,1.95-1.44,0-2.61-.51-3.49-1.54-.89-1.03-1.33-2.6-1.33-4.7Zm8.33-.25v-5.85c0-2.93-1.02-4.4-3.05-4.4-1.91,0-2.87,1.45-2.87,4.36v5.85c0,1.56.24,2.68.73,3.35.48.67,1.2,1.01,2.15,1.01.99,0,1.75-.37,2.27-1.1.52-.73.78-1.81.78-3.23Z"/>
      <path class="cls-4" d="m238.11,55.34v3.19h-2.45v-3.19h2.45Zm-.04,6.1v18.34h-2.41v-18.34h2.41Z"/>
      <path class="cls-4" d="m241.06,74.85v-.21h2.23v.21c0,.99.28,1.76.85,2.29.57.53,1.35.8,2.34.8.92,0,1.66-.24,2.22-.73.56-.48.83-1.22.83-2.22,0-.78-.19-1.4-.57-1.84-.38-.45-1.02-.86-1.91-1.24l-2.31-.96c-2.34-.97-3.51-2.57-3.51-4.79,0-1.51.48-2.73,1.44-3.64.96-.91,2.24-1.37,3.85-1.37s2.88.46,3.81,1.38c.93.92,1.4,2.16,1.4,3.72v.46h-2.23v-.21c0-1.04-.26-1.84-.78-2.41-.52-.57-1.26-.85-2.23-.85-.87,0-1.57.24-2.07.73-.51.48-.76,1.15-.76,2,0,.64.17,1.19.5,1.67.33.47.91.89,1.74,1.24l2.31.96c1.25.52,2.19,1.15,2.82,1.88.63.73.94,1.76.94,3.09,0,1.66-.49,2.94-1.47,3.87-.98.92-2.34,1.38-4.06,1.38s-2.96-.47-3.92-1.4c-.96-.93-1.44-2.2-1.44-3.81Z"/>
      <path class="cls-4" d="m254.22,73.82v-6.42c0-2.15.48-3.73,1.45-4.74s2.33-1.51,4.08-1.51,3.06.48,4.01,1.45c.95.97,1.42,2.44,1.42,4.4v.5h-2.41v-.5c0-2.46-.99-3.69-2.98-3.69-1.04,0-1.83.33-2.36.99-.53.66-.8,1.79-.8,3.37v5.85c0,1.58.27,2.71.8,3.37.53.66,1.31.99,2.32.99,2.01,0,3.01-1.23,3.01-3.69v-.5h2.41v.46c0,1.96-.47,3.43-1.42,4.42-.95.98-2.27,1.47-3.97,1.47s-3.14-.5-4.11-1.51-1.45-2.58-1.45-4.74Z"/>
      <path class="cls-4" d="m270.96,55.34v3.19h-2.45v-3.19h2.45Zm-.04,6.1v18.34h-2.41v-18.34h2.41Z"/>
      <path class="cls-4" d="m277.02,61.44v1.77c.8-1.37,1.96-2.06,3.48-2.06s2.64.51,3.53,1.54c.89,1.03,1.33,2.6,1.33,4.7v6.42c0,2.1-.44,3.67-1.33,4.7-.89,1.03-2.05,1.54-3.49,1.54-1.54,0-2.71-.64-3.51-1.92v7.02h-2.41v-23.73h2.41Zm5.92,12.09v-5.85c0-2.91-.96-4.36-2.87-4.36-.99,0-1.75.37-2.27,1.12-.52.74-.78,1.84-.78,3.28v5.85c0,1.42.26,2.49.78,3.23.52.73,1.28,1.1,2.27,1.1s1.66-.34,2.15-1.01c.48-.67.73-1.79.73-3.35Z"/>
      <path class="cls-4" d="m288.48,74.92v-19.61h2.45v19.51c0,1.87.84,2.8,2.52,2.8h.53v2.16h-.6c-1.58,0-2.8-.41-3.64-1.24-.84-.83-1.26-2.03-1.26-3.62Z"/>
      <path class="cls-4" d="m298.7,55.34v3.19h-2.45v-3.19h2.45Zm-.04,6.1v18.34h-2.41v-18.34h2.41Z"/>
      <path class="cls-4" d="m304.69,61.44v1.67c.35-.59.85-1.06,1.49-1.42.64-.35,1.35-.53,2.13-.53,1.47,0,2.6.47,3.4,1.42.8.95,1.21,2.26,1.21,3.94v13.26h-2.41v-13.16c0-1.06-.26-1.88-.78-2.45-.52-.57-1.22-.85-2.09-.85s-1.54.29-2.07.87c-.53.58-.8,1.39-.8,2.43v13.16h-2.41v-18.34h2.34Z"/>
      <path class="cls-4" d="m326.4,66.48v13.3h-2.31v-1.7c-.83,1.32-2.07,1.99-3.72,1.99-1.51,0-2.67-.48-3.48-1.44-.8-.96-1.21-2.3-1.21-4.03s.47-2.95,1.4-3.88c.93-.93,2.29-1.4,4.06-1.4h2.84v-2.94c0-2.06-.95-3.09-2.84-3.09-.87,0-1.55.24-2.02.71-.47.47-.71,1.14-.71,1.99v.28h-2.27v-.32c0-1.49.45-2.66,1.37-3.51.91-.85,2.12-1.28,3.64-1.28,1.7,0,3,.47,3.9,1.4.9.93,1.35,2.24,1.35,3.92Zm-2.41,8.05v-3.41h-2.59c-2.2,0-3.3,1.15-3.3,3.44s.95,3.4,2.84,3.4c.97,0,1.72-.3,2.25-.9.53-.6.8-1.45.8-2.54Z"/>
      <path class="cls-4" d="m332.18,61.44v1.81c.4-.71.93-1.24,1.6-1.58.66-.34,1.41-.51,2.23-.51.5,0,.93.05,1.31.14v2.34c-.64-.21-1.23-.32-1.77-.32-.97,0-1.76.31-2.38.92-.61.61-.92,1.45-.92,2.52v13.02h-2.41v-18.34h2.34Z"/>
      <path class="cls-4" d="m344.56,81.52c-.35,1.37-.96,2.33-1.81,2.89-.85.56-2.02.83-3.51.83h-.35v-2.16h.6c.92,0,1.63-.18,2.13-.53.5-.35.84-.95,1.03-1.77l.14-.57-4.97-18.76h2.62l3.48,14.01,3.37-14.01h2.62l-5.36,20.07Z"/>
      <path class="cls-4" d="m356.09,73.07h2.52c.07,1.66.44,2.84,1.12,3.56s1.64,1.08,2.89,1.08,2.23-.36,2.85-1.08c.63-.72.94-1.83.94-3.32,0-1.3-.28-2.28-.83-2.94-.56-.66-1.55-1.29-3-1.88l-1.42-.57c-1.61-.64-2.81-1.45-3.62-2.45-.8-.99-1.21-2.33-1.21-4.01,0-1.99.56-3.57,1.68-4.75,1.12-1.18,2.67-1.77,4.63-1.77s3.35.55,4.43,1.65c1.09,1.1,1.68,2.75,1.77,4.95h-2.45c-.17-2.86-1.43-4.29-3.79-4.29-1.23,0-2.15.35-2.77,1.06-.61.71-.92,1.71-.92,3.01,0,1.16.28,2.07.83,2.73.56.66,1.51,1.25,2.86,1.77l1.45.57c1.63.64,2.86,1.48,3.69,2.52.83,1.04,1.24,2.49,1.24,4.36,0,2.15-.56,3.81-1.67,4.98-1.11,1.17-2.72,1.76-4.82,1.76s-3.66-.59-4.73-1.77c-1.08-1.18-1.64-2.91-1.68-5.18Z"/>
      <path class="cls-4" d="m376.8,81.52c-.35,1.37-.96,2.33-1.81,2.89-.85.56-2.02.83-3.51.83h-.36v-2.16h.6c.92,0,1.63-.18,2.13-.53.5-.35.84-.95,1.03-1.77l.14-.57-4.97-18.76h2.62l3.48,14.01,3.37-14.01h2.62l-5.36,20.07Z"/>
      <path class="cls-4" d="m383.69,74.85v-.21h2.23v.21c0,.99.28,1.76.85,2.29.57.53,1.35.8,2.34.8.92,0,1.66-.24,2.22-.73.56-.48.83-1.22.83-2.22,0-.78-.19-1.4-.57-1.84-.38-.45-1.02-.86-1.91-1.24l-2.31-.96c-2.34-.97-3.51-2.57-3.51-4.79,0-1.51.48-2.73,1.44-3.64.96-.91,2.24-1.37,3.85-1.37s2.88.46,3.81,1.38c.93.92,1.4,2.16,1.4,3.72v.46h-2.23v-.21c0-1.04-.26-1.84-.78-2.41-.52-.57-1.26-.85-2.23-.85-.87,0-1.57.24-2.07.73-.51.48-.76,1.15-.76,2,0,.64.17,1.19.5,1.67.33.47.91.89,1.74,1.24l2.31.96c1.25.52,2.19,1.15,2.82,1.88.63.73.94,1.76.94,3.09,0,1.66-.49,2.94-1.47,3.87-.98.92-2.34,1.38-4.06,1.38s-2.96-.47-3.92-1.4c-.96-.93-1.44-2.2-1.44-3.81Z"/>
      <path class="cls-4" d="m400.08,74.85c0,.95.22,1.65.67,2.11.45.46,1.13.69,2.06.69h.5v2.13h-.6c-3.36,0-5.04-1.61-5.04-4.82v-11.63h-2.34v-1.88h2.34v-3.83l2.41-1.1v4.93h3.51v1.88h-3.51v11.53Z"/>
      <path class="cls-4" d="m408.09,73.5c0,1.61.28,2.75.83,3.44.56.69,1.34,1.03,2.36,1.03,1.94,0,2.91-1.22,2.91-3.65v-.14h2.38v.11c0,1.91-.47,3.36-1.4,4.33-.93.97-2.25,1.45-3.95,1.45-3.69,0-5.53-2.18-5.53-6.53v-5.92c0-2.13.48-3.74,1.44-4.82.96-1.09,2.29-1.63,3.99-1.63s3.04.54,4.03,1.63c.98,1.09,1.47,2.7,1.47,4.82v3.72h-8.51v2.16Zm0-5.82v1.81h6.14v-1.88c0-1.54-.27-2.64-.8-3.3-.53-.66-1.29-.99-2.29-.99s-1.75.34-2.27,1.01c-.52.67-.78,1.79-.78,3.35Z"/>
      <path class="cls-4" d="m422.1,61.44v1.67c.35-.59.85-1.06,1.47-1.42.63-.35,1.33-.53,2.11-.53.87,0,1.66.21,2.34.62.69.41,1.23.97,1.63,1.68.45-.73,1.02-1.3,1.72-1.7.7-.4,1.47-.6,2.32-.6,1.56,0,2.74.47,3.55,1.4.8.93,1.21,2.25,1.21,3.95v13.26h-2.45v-13.16c0-1.06-.25-1.88-.76-2.45-.51-.57-1.19-.85-2.04-.85s-1.58.29-2.11.87c-.53.58-.8,1.38-.8,2.39v13.19h-2.41v-13.16c0-1.04-.26-1.85-.78-2.43-.52-.58-1.22-.87-2.09-.87s-1.54.29-2.06.87c-.52.58-.78,1.39-.78,2.43v13.16h-2.45v-18.34h2.38Z"/>
      <path class="cls-4" d="m441.4,74.85v-.21h2.23v.21c0,.99.28,1.76.85,2.29.57.53,1.35.8,2.34.8.92,0,1.66-.24,2.22-.73.56-.48.83-1.22.83-2.22,0-.78-.19-1.4-.57-1.84-.38-.45-1.02-.86-1.91-1.24l-2.31-.96c-2.34-.97-3.51-2.57-3.51-4.79,0-1.51.48-2.73,1.44-3.64.96-.91,2.24-1.37,3.85-1.37s2.88.46,3.81,1.38c.93.92,1.4,2.16,1.4,3.72v.46h-2.23v-.21c0-1.04-.26-1.84-.78-2.41-.52-.57-1.26-.85-2.23-.85-.87,0-1.57.24-2.07.73-.51.48-.76,1.15-.76,2,0,.64.17,1.19.5,1.67.33.47.91.89,1.74,1.24l2.31.96c1.25.52,2.19,1.15,2.82,1.88.63.73.94,1.76.94,3.09,0,1.66-.49,2.94-1.47,3.87-.98.92-2.34,1.38-4.06,1.38s-2.96-.47-3.92-1.4c-.96-.93-1.44-2.2-1.44-3.81Z"/>
      <path class="cls-4" d="m470.38,66.48v13.3h-2.31v-1.7c-.83,1.32-2.07,1.99-3.72,1.99-1.51,0-2.67-.48-3.48-1.44-.8-.96-1.21-2.3-1.21-4.03s.47-2.95,1.4-3.88c.93-.93,2.29-1.4,4.06-1.4h2.84v-2.94c0-2.06-.95-3.09-2.84-3.09-.87,0-1.55.24-2.02.71-.47.47-.71,1.14-.71,1.99v.28h-2.27v-.32c0-1.49.45-2.66,1.37-3.51.91-.85,2.12-1.28,3.64-1.28,1.7,0,3,.47,3.9,1.4.9.93,1.35,2.24,1.35,3.92Zm-2.41,8.05v-3.41h-2.59c-2.2,0-3.3,1.15-3.3,3.44s.95,3.4,2.84,3.4c.97,0,1.72-.3,2.25-.9.53-.6.8-1.45.8-2.54Z"/>
      <path class="cls-4" d="m476.16,61.44v1.67c.35-.59.85-1.06,1.49-1.42.64-.35,1.35-.53,2.13-.53,1.47,0,2.6.47,3.4,1.42.8.95,1.21,2.26,1.21,3.94v13.26h-2.41v-13.16c0-1.06-.26-1.88-.78-2.45-.52-.57-1.22-.85-2.09-.85s-1.54.29-2.07.87c-.53.58-.8,1.39-.8,2.43v13.16h-2.41v-18.34h2.34Z"/>
      <path class="cls-4" d="m487.51,73.82v-6.42c0-2.1.44-3.67,1.33-4.7.89-1.03,2.05-1.54,3.49-1.54,1.54,0,2.71.69,3.51,2.06v-7.91h2.41v24.47h-2.41v-1.67c-.8,1.3-1.97,1.95-3.51,1.95-1.44,0-2.61-.51-3.49-1.54-.89-1.03-1.33-2.6-1.33-4.7Zm8.33-.25v-5.85c0-2.93-1.02-4.4-3.05-4.4-1.91,0-2.87,1.45-2.87,4.36v5.85c0,1.56.24,2.68.73,3.35.48.67,1.2,1.01,2.15,1.01.99,0,1.75-.37,2.27-1.1.52-.73.78-1.81.78-3.23Z"/>
      <path class="cls-4" d="m155.16,115.59c-1.03,1.14-2.65,1.7-4.88,1.7h-6.28v-24.47h6.24c2.18,0,3.75.53,4.74,1.58.98,1.05,1.47,2.65,1.47,4.81,0,2.79-1.08,4.59-3.23,5.39,2.32.64,3.48,2.63,3.48,5.96,0,2.22-.51,3.9-1.54,5.04Zm-8.57-12.13h3.44c2.55,0,3.83-1.37,3.83-4.11,0-1.51-.3-2.6-.9-3.25-.6-.65-1.57-.98-2.89-.98h-3.48v8.34Zm7.52,6.92c0-3.07-1.35-4.61-4.04-4.61h-3.48v9.22h3.48c1.42,0,2.45-.38,3.09-1.14.64-.76.96-1.91.96-3.48Z"/>
      <path class="cls-4" d="m162.56,92.86v3.19h-2.45v-3.19h2.45Zm-.04,6.1v18.34h-2.41v-18.34h2.41Z"/>
      <path class="cls-4" d="m165.89,111.34v-6.42c0-2.15.48-3.73,1.45-4.74s2.33-1.51,4.08-1.51,3.03.51,3.99,1.52c.96,1.02,1.44,2.59,1.44,4.72v6.42c0,2.13-.48,3.7-1.44,4.72-.96,1.02-2.29,1.53-3.99,1.53s-3.11-.5-4.08-1.51-1.45-2.58-1.45-4.74Zm8.55-.28v-5.85c0-1.56-.26-2.68-.78-3.35-.52-.67-1.28-1.01-2.27-1.01s-1.76.33-2.29.99c-.53.66-.8,1.79-.8,3.37v5.85c0,1.58.27,2.71.8,3.37.53.66,1.29.99,2.29.99s1.75-.34,2.27-1.01c.52-.67.78-1.79.78-3.35Z"/>
      <path class="cls-4" d="m182.35,98.96v1.67c.35-.59.85-1.06,1.47-1.42.63-.35,1.33-.53,2.11-.53.87,0,1.66.21,2.34.62.69.41,1.23.98,1.63,1.68.45-.73,1.02-1.3,1.72-1.7.7-.4,1.47-.6,2.32-.6,1.56,0,2.74.47,3.55,1.4.8.93,1.21,2.25,1.21,3.95v13.26h-2.45v-13.16c0-1.06-.25-1.88-.76-2.45-.51-.57-1.19-.85-2.04-.85s-1.58.29-2.11.87c-.53.58-.8,1.38-.8,2.39v13.19h-2.41v-13.16c0-1.04-.26-1.85-.78-2.43-.52-.58-1.22-.87-2.09-.87s-1.54.29-2.06.87c-.52.58-.78,1.39-.78,2.43v13.16h-2.45v-18.34h2.38Z"/>
      <path class="cls-4" d="m204.24,111.02c0,1.61.28,2.75.83,3.44.56.69,1.34,1.03,2.36,1.03,1.94,0,2.91-1.22,2.91-3.65v-.14h2.38v.11c0,1.91-.47,3.36-1.4,4.33-.93.97-2.25,1.45-3.95,1.45-3.69,0-5.53-2.18-5.53-6.53v-5.92c0-2.13.48-3.74,1.44-4.82.96-1.09,2.29-1.63,3.99-1.63s3.04.54,4.03,1.63c.98,1.09,1.47,2.7,1.47,4.82v3.72h-8.51v2.16Zm0-5.82v1.81h6.14v-1.88c0-1.54-.27-2.64-.8-3.3-.53-.66-1.29-.99-2.29-.99s-1.75.34-2.27,1.01c-.52.67-.78,1.79-.78,3.35Z"/>
      <path class="cls-4" d="m215.55,111.34v-6.42c0-2.1.44-3.67,1.33-4.7.89-1.03,2.05-1.54,3.49-1.54,1.54,0,2.71.69,3.51,2.06v-7.91h2.41v24.47h-2.41v-1.67c-.8,1.3-1.97,1.95-3.51,1.95-1.44,0-2.61-.51-3.49-1.54-.89-1.03-1.33-2.6-1.33-4.7Zm8.33-.25v-5.85c0-2.93-1.02-4.4-3.05-4.4-1.91,0-2.87,1.45-2.87,4.36v5.85c0,1.56.24,2.68.73,3.35.49.67,1.2,1.01,2.15,1.01.99,0,1.75-.37,2.27-1.1.52-.73.78-1.81.78-3.23Z"/>
      <path class="cls-4" d="m232.4,92.86v3.19h-2.45v-3.19h2.45Zm-.04,6.1v18.34h-2.41v-18.34h2.41Z"/>
      <path class="cls-4" d="m235.74,111.34v-6.42c0-2.15.48-3.73,1.45-4.74s2.33-1.51,4.08-1.51,3.06.48,4.01,1.45c.95.97,1.42,2.44,1.42,4.4v.5h-2.41v-.5c0-2.46-.99-3.69-2.98-3.69-1.04,0-1.83.33-2.36.99-.53.66-.8,1.79-.8,3.37v5.85c0,1.58.27,2.71.8,3.37.53.66,1.31.99,2.32.99,2.01,0,3.01-1.23,3.01-3.69v-.5h2.41v.46c0,1.96-.47,3.43-1.42,4.42-.95.98-2.27,1.47-3.97,1.47s-3.14-.5-4.11-1.51-1.45-2.58-1.45-4.74Z"/>
      <path class="cls-4" d="m259.86,104v13.3h-2.31v-1.7c-.83,1.32-2.07,1.99-3.72,1.99-1.51,0-2.67-.48-3.48-1.44-.8-.96-1.21-2.3-1.21-4.03s.47-2.95,1.4-3.88c.93-.93,2.29-1.4,4.06-1.4h2.84v-2.94c0-2.06-.95-3.09-2.84-3.09-.87,0-1.55.24-2.02.71-.47.47-.71,1.14-.71,1.99v.28h-2.27v-.32c0-1.49.46-2.66,1.37-3.51.91-.85,2.12-1.28,3.64-1.28,1.7,0,3,.47,3.9,1.4.9.93,1.35,2.24,1.35,3.92Zm-2.41,8.05v-3.41h-2.59c-2.2,0-3.3,1.15-3.3,3.44s.95,3.4,2.84,3.4c.97,0,1.72-.3,2.25-.9.53-.6.8-1.45.8-2.54Z"/>
      <path class="cls-4" d="m263.3,112.44v-19.61h2.45v19.51c0,1.87.84,2.8,2.52,2.8h.53v2.16h-.6c-1.58,0-2.8-.41-3.64-1.24-.84-.83-1.26-2.03-1.26-3.62Z"/>
      <path class="cls-4" d="m278.8,111.05l-1.56,6.24h-2.7l6.67-24.47h2.38l6.67,24.47h-2.73l-1.56-6.24h-7.16Zm3.58-14.33l-3.01,12.09h6.03l-3.01-12.09Z"/>
      <path class="cls-4" d="m294.55,98.96v1.77c.8-1.37,1.96-2.06,3.48-2.06s2.64.51,3.53,1.54c.89,1.03,1.33,2.6,1.33,4.7v6.42c0,2.1-.44,3.67-1.33,4.7-.89,1.03-2.05,1.54-3.49,1.54-1.54,0-2.71-.64-3.51-1.92v7.02h-2.41v-23.73h2.41Zm5.92,12.09v-5.85c0-2.91-.96-4.36-2.87-4.36-.99,0-1.75.37-2.27,1.12-.52.74-.78,1.84-.78,3.28v5.85c0,1.42.26,2.49.78,3.23.52.73,1.28,1.1,2.27,1.1s1.66-.34,2.15-1.01c.48-.67.73-1.79.73-3.35Z"/>
      <path class="cls-4" d="m308.42,98.96v1.77c.8-1.37,1.96-2.06,3.48-2.06s2.64.51,3.53,1.54c.89,1.03,1.33,2.6,1.33,4.7v6.42c0,2.1-.44,3.67-1.33,4.7-.89,1.03-2.05,1.54-3.49,1.54-1.54,0-2.71-.64-3.51-1.92v7.02h-2.41v-23.73h2.41Zm5.92,12.09v-5.85c0-2.91-.96-4.36-2.87-4.36-.99,0-1.75.37-2.27,1.12-.52.74-.78,1.84-.78,3.28v5.85c0,1.42.26,2.49.78,3.23.52.73,1.28,1.1,2.27,1.1s1.66-.34,2.15-1.01c.48-.67.73-1.79.73-3.35Z"/>
      <path class="cls-4" d="m319.88,112.44v-19.61h2.45v19.51c0,1.87.84,2.8,2.52,2.8h.53v2.16h-.6c-1.58,0-2.8-.41-3.64-1.24-.84-.83-1.26-2.03-1.26-3.62Z"/>
      <path class="cls-4" d="m330.09,92.86v3.19h-2.45v-3.19h2.45Zm-.04,6.1v18.34h-2.41v-18.34h2.41Z"/>
      <path class="cls-4" d="m333.43,111.34v-6.42c0-2.15.48-3.73,1.45-4.74.97-1,2.33-1.51,4.08-1.51s3.06.48,4.01,1.45c.95.97,1.42,2.44,1.42,4.4v.5h-2.41v-.5c0-2.46-.99-3.69-2.98-3.69-1.04,0-1.83.33-2.36.99-.53.66-.8,1.79-.8,3.37v5.85c0,1.58.27,2.71.8,3.37.53.66,1.31.99,2.32.99,2.01,0,3.01-1.23,3.01-3.69v-.5h2.41v.46c0,1.96-.47,3.43-1.42,4.42-.95.98-2.27,1.47-3.97,1.47s-3.14-.5-4.11-1.51c-.97-1-1.45-2.58-1.45-4.74Z"/>
      <path class="cls-4" d="m357.55,104v13.3h-2.31v-1.7c-.83,1.32-2.07,1.99-3.72,1.99-1.51,0-2.67-.48-3.48-1.44-.8-.96-1.21-2.3-1.21-4.03s.47-2.95,1.4-3.88c.93-.93,2.29-1.4,4.06-1.4h2.84v-2.94c0-2.06-.95-3.09-2.84-3.09-.87,0-1.55.24-2.02.71-.47.47-.71,1.14-.71,1.99v.28h-2.27v-.32c0-1.49.45-2.66,1.37-3.51.91-.85,2.12-1.28,3.64-1.28,1.7,0,3,.47,3.9,1.4.9.93,1.35,2.24,1.35,3.92Zm-2.41,8.05v-3.41h-2.59c-2.2,0-3.3,1.15-3.3,3.44s.95,3.4,2.84,3.4c.97,0,1.72-.3,2.25-.9.53-.6.8-1.45.8-2.54Z"/>
      <path class="cls-4" d="m364.39,112.37c0,.95.22,1.65.67,2.11.45.46,1.13.69,2.06.69h.5v2.13h-.6c-3.36,0-5.04-1.61-5.04-4.82v-11.63h-2.34v-1.88h2.34v-3.83l2.41-1.1v4.93h3.51v1.88h-3.51v11.53Z"/>
      <path class="cls-4" d="m373.33,92.86v3.19h-2.45v-3.19h2.45Zm-.04,6.1v18.34h-2.41v-18.34h2.41Z"/>
      <path class="cls-4" d="m376.67,111.34v-6.42c0-2.15.48-3.73,1.45-4.74s2.33-1.51,4.08-1.51,3.03.51,3.99,1.52c.96,1.02,1.44,2.59,1.44,4.72v6.42c0,2.13-.48,3.7-1.44,4.72-.96,1.02-2.29,1.53-3.99,1.53s-3.11-.5-4.08-1.51-1.45-2.58-1.45-4.74Zm8.55-.28v-5.85c0-1.56-.26-2.68-.78-3.35-.52-.67-1.28-1.01-2.27-1.01s-1.76.33-2.29.99c-.53.66-.8,1.79-.8,3.37v5.85c0,1.58.27,2.71.8,3.37.53.66,1.3.99,2.29.99s1.75-.34,2.27-1.01c.52-.67.78-1.79.78-3.35Z"/>
      <path class="cls-4" d="m393.09,98.96v1.67c.35-.59.85-1.06,1.49-1.42.64-.35,1.35-.53,2.13-.53,1.47,0,2.6.47,3.4,1.42.8.95,1.21,2.26,1.21,3.94v13.26h-2.41v-13.16c0-1.06-.26-1.88-.78-2.45-.52-.57-1.22-.85-2.09-.85s-1.54.29-2.07.87c-.53.58-.8,1.39-.8,2.43v13.16h-2.41v-18.34h2.34Z"/>
      <path class="cls-4" d="m404.26,112.37v-.21h2.23v.21c0,.99.28,1.76.85,2.29.57.53,1.35.8,2.34.8.92,0,1.66-.24,2.22-.73.56-.48.83-1.22.83-2.22,0-.78-.19-1.4-.57-1.84-.38-.45-1.02-.86-1.91-1.24l-2.31-.96c-2.34-.97-3.51-2.57-3.51-4.79,0-1.51.48-2.73,1.44-3.64.96-.91,2.24-1.37,3.85-1.37s2.88.46,3.81,1.38c.93.92,1.4,2.16,1.4,3.72v.46h-2.23v-.21c0-1.04-.26-1.84-.78-2.41-.52-.57-1.26-.85-2.23-.85-.87,0-1.57.24-2.07.73-.51.48-.76,1.15-.76,2,0,.64.17,1.19.5,1.67.33.47.91.89,1.74,1.24l2.31.96c1.25.52,2.19,1.15,2.82,1.88.63.73.94,1.76.94,3.09,0,1.66-.49,2.94-1.47,3.87-.98.92-2.34,1.38-4.06,1.38s-2.96-.47-3.92-1.4c-.96-.93-1.44-2.2-1.44-3.81Z"/>
      <path class="cls-4" d="m429.59,92.82c1.99,0,3.58.61,4.79,1.84s1.81,3.09,1.81,5.57v9.65c0,2.46-.6,4.31-1.81,5.55-1.21,1.24-2.8,1.86-4.79,1.86h-6.35v-24.47h6.35Zm2.96,20.89c.7-.85,1.05-2.12,1.05-3.79v-9.43c0-1.8-.34-3.14-1.03-4.03-.69-.89-1.68-1.33-2.98-1.33h-3.76v19.86h3.76c1.28,0,2.26-.43,2.96-1.28Z"/>
      <path class="cls-4" d="m441.47,111.02c0,1.61.28,2.75.83,3.44.56.69,1.34,1.03,2.36,1.03,1.94,0,2.91-1.22,2.91-3.65v-.14h2.38v.11c0,1.91-.47,3.36-1.4,4.33-.93.97-2.25,1.45-3.95,1.45-3.69,0-5.53-2.18-5.53-6.53v-5.92c0-2.13.48-3.74,1.44-4.82.96-1.09,2.29-1.63,3.99-1.63s3.04.54,4.03,1.63c.98,1.09,1.47,2.7,1.47,4.82v3.72h-8.51v2.16Zm0-5.82v1.81h6.14v-1.88c0-1.54-.27-2.64-.8-3.3-.53-.66-1.29-.99-2.29-.99s-1.75.34-2.27,1.01c-.52.67-.78,1.79-.78,3.35Z"/>
      <path class="cls-4" d="m452.43,112.37v-.21h2.23v.21c0,.99.28,1.76.85,2.29.57.53,1.35.8,2.34.8.92,0,1.66-.24,2.22-.73.56-.48.83-1.22.83-2.22,0-.78-.19-1.4-.57-1.84-.38-.45-1.02-.86-1.91-1.24l-2.31-.96c-2.34-.97-3.51-2.57-3.51-4.79,0-1.51.48-2.73,1.44-3.64.96-.91,2.24-1.37,3.85-1.37s2.88.46,3.81,1.38c.93.92,1.4,2.16,1.4,3.72v.46h-2.23v-.21c0-1.04-.26-1.84-.78-2.41-.52-.57-1.26-.85-2.23-.85-.87,0-1.57.24-2.07.73-.51.48-.76,1.15-.76,2,0,.64.17,1.19.5,1.67.33.47.91.89,1.74,1.24l2.31.96c1.25.52,2.19,1.15,2.82,1.88.63.73.94,1.76.94,3.09,0,1.66-.49,2.94-1.47,3.87-.98.92-2.34,1.38-4.06,1.38s-2.96-.47-3.92-1.4c-.96-.93-1.44-2.2-1.44-3.81Z"/>
      <path class="cls-4" d="m468.57,92.86v3.19h-2.45v-3.19h2.45Zm-.04,6.1v18.34h-2.41v-18.34h2.41Z"/>
      <path class="cls-4" d="m472.12,118.4h2.31c.05.78.32,1.4.82,1.86.5.46,1.17.69,2.02.69,1.04,0,1.8-.33,2.27-.99.47-.66.71-1.67.71-3.01v-2.7c-.78,1.28-1.95,1.91-3.51,1.91-1.44,0-2.61-.51-3.49-1.54-.89-1.03-1.33-2.58-1.33-4.66v-5.07c0-2.08.44-3.64,1.33-4.66.89-1.03,2.05-1.54,3.49-1.54,1.56,0,2.73.69,3.51,2.06v-1.77h2.41v17.77c0,1.94-.44,3.48-1.33,4.61-.89,1.13-2.24,1.7-4.06,1.7-1.61,0-2.85-.41-3.74-1.24-.89-.83-1.35-1.96-1.4-3.41Zm8.12-8.72v-4.47c0-2.91-1.02-4.36-3.05-4.36-.9,0-1.6.33-2.11.99-.51.66-.76,1.77-.76,3.33v4.5c0,1.56.24,2.67.73,3.33.48.66,1.2.99,2.15.99.99,0,1.75-.37,2.27-1.1.52-.73.78-1.81.78-3.23Z"/>
      <path class="cls-4" d="m488.44,98.96v1.67c.35-.59.85-1.06,1.49-1.42.64-.35,1.35-.53,2.13-.53,1.47,0,2.6.47,3.4,1.42.8.95,1.21,2.26,1.21,3.94v13.26h-2.41v-13.16c0-1.06-.26-1.88-.78-2.45-.52-.57-1.22-.85-2.09-.85s-1.54.29-2.07.87c-.53.58-.8,1.39-.8,2.43v13.16h-2.41v-18.34h2.34Z"/>
      <path class="cls-4" d="m508.19,92.82v22.17h8.3v2.31h-10.89v-24.47h2.59Z"/>
      <path class="cls-4" d="m528.2,104v13.3h-2.31v-1.7c-.83,1.32-2.07,1.99-3.72,1.99-1.51,0-2.67-.48-3.48-1.44-.8-.96-1.21-2.3-1.21-4.03s.47-2.95,1.4-3.88c.93-.93,2.29-1.4,4.06-1.4h2.84v-2.94c0-2.06-.95-3.09-2.84-3.09-.87,0-1.55.24-2.02.71-.47.47-.71,1.14-.71,1.99v.28h-2.27v-.32c0-1.49.45-2.66,1.37-3.51.91-.85,2.12-1.28,3.64-1.28,1.7,0,3,.47,3.9,1.4.9.93,1.35,2.24,1.35,3.92Zm-2.41,8.05v-3.41h-2.59c-2.2,0-3.3,1.15-3.3,3.44s.95,3.4,2.84,3.4c.97,0,1.72-.3,2.25-.9.53-.6.8-1.45.8-2.54Z"/>
      <path class="cls-4" d="m534.05,117.3h-2.41v-24.47h2.41v7.91c.8-1.37,1.96-2.06,3.48-2.06s2.64.51,3.53,1.54c.89,1.03,1.33,2.6,1.33,4.7v6.42c0,2.1-.44,3.67-1.33,4.7-.89,1.03-2.05,1.54-3.49,1.54-1.54,0-2.71-.65-3.51-1.95v1.67Zm5.92-6.24v-5.85c0-2.91-.96-4.36-2.87-4.36-.99,0-1.75.37-2.27,1.12-.52.74-.78,1.84-.78,3.28v5.85c0,1.42.26,2.49.78,3.23.52.73,1.28,1.1,2.27,1.1s1.66-.34,2.15-1.01c.48-.67.73-1.79.73-3.35Z"/>
      <path class="cls-4" d="m545.19,111.34v-6.42c0-2.15.48-3.73,1.45-4.74s2.33-1.51,4.08-1.51,3.03.51,3.99,1.52c.96,1.02,1.44,2.59,1.44,4.72v6.42c0,2.13-.48,3.7-1.44,4.72-.96,1.02-2.29,1.53-3.99,1.53s-3.11-.5-4.08-1.51-1.45-2.58-1.45-4.74Zm8.55-.28v-5.85c0-1.56-.26-2.68-.78-3.35-.52-.67-1.28-1.01-2.27-1.01s-1.76.33-2.29.99c-.53.66-.8,1.79-.8,3.37v5.85c0,1.58.27,2.71.8,3.37.53.66,1.29.99,2.29.99s1.75-.34,2.27-1.01c.52-.67.78-1.79.78-3.35Z"/>
      <path class="cls-4" d="m561.62,98.96v1.81c.4-.71.93-1.24,1.6-1.58.66-.34,1.41-.51,2.23-.51.5,0,.93.05,1.31.14v2.34c-.64-.21-1.23-.32-1.77-.32-.97,0-1.76.31-2.38.92-.61.61-.92,1.45-.92,2.52v13.02h-2.41v-18.34h2.34Z"/>
      <path class="cls-4" d="m578.64,104v13.3h-2.31v-1.7c-.83,1.32-2.07,1.99-3.72,1.99-1.51,0-2.67-.48-3.48-1.44-.8-.96-1.21-2.3-1.21-4.03s.47-2.95,1.4-3.88c.93-.93,2.29-1.4,4.06-1.4h2.84v-2.94c0-2.06-.95-3.09-2.84-3.09-.87,0-1.55.24-2.02.71-.47.47-.71,1.14-.71,1.99v.28h-2.27v-.32c0-1.49.45-2.66,1.37-3.51.91-.85,2.12-1.28,3.64-1.28,1.7,0,3,.47,3.9,1.4.9.93,1.35,2.24,1.35,3.92Zm-2.41,8.05v-3.41h-2.59c-2.2,0-3.3,1.15-3.3,3.44s.95,3.4,2.84,3.4c.97,0,1.72-.3,2.25-.9.53-.6.8-1.45.8-2.54Z"/>
      <path class="cls-4" d="m585.49,112.37c0,.95.22,1.65.67,2.11.45.46,1.13.69,2.06.69h.5v2.13h-.6c-3.36,0-5.04-1.61-5.04-4.82v-11.63h-2.34v-1.88h2.34v-3.83l2.41-1.1v4.93h3.51v1.88h-3.51v11.53Z"/>
      <path class="cls-4" d="m591.1,111.34v-6.42c0-2.15.48-3.73,1.45-4.74.97-1,2.33-1.51,4.08-1.51s3.03.51,3.99,1.52c.96,1.02,1.44,2.59,1.44,4.72v6.42c0,2.13-.48,3.7-1.44,4.72-.96,1.02-2.29,1.53-3.99,1.53s-3.11-.5-4.08-1.51c-.97-1-1.45-2.58-1.45-4.74Zm8.55-.28v-5.85c0-1.56-.26-2.68-.78-3.35-.52-.67-1.28-1.01-2.27-1.01s-1.76.33-2.29.99c-.53.66-.8,1.79-.8,3.37v5.85c0,1.58.27,2.71.8,3.37.53.66,1.29.99,2.29.99s1.75-.34,2.27-1.01c.52-.67.78-1.79.78-3.35Z"/>
      <path class="cls-4" d="m607.52,98.96v1.81c.4-.71.93-1.24,1.6-1.58.66-.34,1.41-.51,2.23-.51.5,0,.93.05,1.31.14v2.34c-.64-.21-1.23-.32-1.77-.32-.97,0-1.76.31-2.38.92-.61.61-.92,1.45-.92,2.52v13.02h-2.41v-18.34h2.34Z"/>
      <path class="cls-4" d="m619.9,119.03c-.35,1.37-.96,2.33-1.81,2.89-.85.56-2.02.83-3.51.83h-.35v-2.16h.6c.92,0,1.63-.18,2.13-.53.5-.35.84-.95,1.03-1.77l.14-.57-4.97-18.76h2.62l3.48,14.01,3.37-14.01h2.62l-5.36,20.07Z"/>
    </g>
    <g>
      <path class="cls-1" d="m65.54,23.66c0-3.61,2.93-6.54,6.54-6.54s6.54,2.93,6.54,6.54-2.93,6.54-6.54,6.54-6.54-2.93-6.54-6.54Z"/>
      <path class="cls-1" d="m41.54,4.68c0-2.58,2.09-4.68,4.68-4.68s4.68,2.09,4.68,4.68-2.09,4.68-4.68,4.68-4.68-2.09-4.68-4.68Z"/>
      <path class="cls-1" d="m94.64,65.54c3.61,0,6.54,2.93,6.54,6.54s-2.93,6.54-6.54,6.54-6.54-2.93-6.54-6.54,2.93-6.54,6.54-6.54Z"/>
      <path class="cls-1" d="m113.62,41.54c2.58,0,4.68,2.09,4.68,4.68s-2.09,4.68-4.68,4.68-4.68-2.09-4.68-4.68,2.09-4.68,4.68-4.68Z"/>
      <circle class="cls-2" cx="94.64" cy="46.21" r="7.34" transform="translate(-4.96 80.46) rotate(-45)"/>
      <path class="cls-1" d="m50.58,65.07c-1.98-1.24-3.13-3.47-3.13-5.81v-.23c0-2.34,1.14-4.57,3.13-5.81,2.33-1.46,3.89-4.05,3.89-7.01,0-3.12-1.72-5.83-4.27-7.23-1.67-.92-2.74-2.63-2.74-4.54h0c0-1.82.91-3.55,2.48-4.47,2.26-1.33,3.75-3.84,3.61-6.68-.18-3.7-3.16-6.73-6.86-6.96-4.27-.27-7.81,3.11-7.81,7.32,0,2.71,1.47,5.07,3.65,6.34,1.54.9,2.45,2.59,2.45,4.37v.08c0,1.86-.99,3.6-2.63,4.48-2.83,1.51-4.68,4.61-4.34,8.1.24,2.55,1.67,4.77,3.72,6.1,2,1.31,3.26,3.47,3.26,5.86v.46c0,2.32-1.25,4.43-3.2,5.68-2.5,1.6-4.08,4.51-3.77,7.77.38,4,3.69,7.18,7.69,7.43,4.8.3,8.78-3.51,8.78-8.24,0-2.96-1.55-5.55-3.89-7.01Zm-9.05-18.86c0-2.58,2.09-4.68,4.68-4.68s4.68,2.09,4.68,4.68-2.09,4.68-4.68,4.68-4.68-2.09-4.68-4.68Z"/>
      <path class="cls-1" d="m75.74,88.28c-1.47-.84-2.41-2.36-2.41-4.05v-.56c0-1.79.99-3.43,2.58-4.26,2.64-1.38,4.44-4.14,4.44-7.32,0-2.96-1.55-5.55-3.89-7.01-1.91-1.19-3.13-3.23-3.13-5.48v-.74c0-2.32,1.25-4.43,3.2-5.68,2.5-1.6,4.08-4.51,3.77-7.77-.36-3.77-3.91-7.2-7.69-7.43-4.8-.3-8.78,3.51-8.78,8.24,0,2.96,1.55,5.55,3.89,7.01,1.91,1.19,3.13,3.23,3.13,5.48v.74c0,2.29-1.18,4.42-3.13,5.63-2.55,1.59-4.16,4.53-3.85,7.82.27,2.82,1.99,5.23,4.39,6.5,1.57.83,2.59,2.42,2.59,4.19v.53c0,1.75-.97,3.32-2.48,4.21-2.26,1.33-3.74,3.84-3.61,6.68.18,3.7,3.16,6.73,6.86,6.96,4.27.27,7.81-3.11,7.81-7.32,0-2.72-1.48-5.09-3.68-6.36Zm-8.33-16.2c0-2.58,2.09-4.68,4.68-4.68s4.68,2.09,4.68,4.68-2.09,4.68-4.68,4.68-4.68-2.09-4.68-4.68Z"/>
      <path class="cls-1" d="m23.66,52.76c-3.61,0-6.54-2.93-6.54-6.54s2.93-6.54,6.54-6.54,6.54,2.93,6.54,6.54-2.93,6.54-6.54,6.54Z"/>
      <path class="cls-1" d="m4.68,76.76c-2.58,0-4.68-2.09-4.68-4.68s2.09-4.68,4.68-4.68,4.68,2.09,4.68,4.68-2.09,4.68-4.68,4.68Z"/>
      <circle class="cls-5" cx="23.66" cy="72.08" r="7.34" transform="translate(-51.93 78.54) rotate(-76.72)"/>
      <path class="cls-1" d="m52.76,94.64c0,3.61-2.93,6.54-6.54,6.54s-6.54-2.93-6.54-6.54,2.93-6.54,6.54-6.54,6.54,2.93,6.54,6.54Z"/>
      <circle class="cls-1" cx="72.08" cy="113.62" r="4.68"/>
    </g>
    <g>
      <g>
        <path class="cls-3" d="m154.89,16.27h-1.61l-7.88-12.27v12.27h-1.61V1.05h1.61l7.88,12.22V1.05h1.61v15.22Z"/>
        <path class="cls-3" d="m165.51,8.66v7.61h-1.48v-1.19c-.34.46-.76.79-1.26,1s-1.11.32-1.83.32c-1.18,0-2.09-.28-2.74-.84-.65-.56-.97-1.38-.97-2.45,0-1,.33-1.78.98-2.35.65-.57,1.58-.85,2.77-.85h3.02v-1.28c0-.81-.22-1.42-.66-1.83-.44-.41-1.07-.62-1.88-.62-.77,0-1.36.17-1.8.52-.43.35-.65.82-.65,1.42v.07h-1.46v-.11c0-.96.35-1.72,1.04-2.3.69-.57,1.64-.86,2.85-.86,1.31,0,2.31.32,3.01.95.7.63,1.05,1.56,1.05,2.78Zm-1.5,3.82v-1.46h-2.8c-1.65,0-2.47.69-2.47,2.07s.82,2.1,2.45,2.1c.99,0,1.7-.22,2.15-.67.45-.45.67-1.13.67-2.04Z"/>
        <path class="cls-3" d="m170.71,13.43c0,1.02.48,1.52,1.43,1.52h.88v1.32h-1.13c-.85,0-1.52-.25-2-.74-.48-.49-.72-1.17-.72-2.04v-7.21h-1.74v-1.19h1.74v-2.56l1.52-.71v3.27h2.52v1.19h-2.52v7.15Z"/>
        <path class="cls-3" d="m177.11,1.27v1.99h-1.59v-1.99h1.59Zm-.04,3.82v11.19h-1.5V5.09h1.5Z"/>
        <path class="cls-3" d="m179.74,11.82v-2.3c0-1.59.39-2.75,1.17-3.49.78-.74,1.82-1.1,3.13-1.1s2.31.37,3.08,1.1c.77.74,1.16,1.9,1.16,3.49v2.3c0,1.59-.39,2.75-1.16,3.49-.77.74-1.8,1.1-3.08,1.1s-2.35-.36-3.13-1.09c-.78-.73-1.17-1.89-1.17-3.5Zm7.04-.09v-2.12c0-1.22-.25-2.08-.74-2.57-.49-.49-1.16-.74-2-.74s-1.55.25-2.05.74c-.5.49-.75,1.35-.75,2.57v2.12c0,1.24.25,2.1.75,2.59.5.49,1.18.74,2.05.74s1.5-.25,2-.74c.49-.49.74-1.36.74-2.59Z"/>
        <path class="cls-3" d="m192.25,5.09v1.37c.32-.5.75-.88,1.27-1.12.52-.25,1.11-.38,1.75-.38,1.19,0,2.11.35,2.75,1.05.64.7.96,1.67.96,2.92v7.35h-1.5v-7.13c0-.93-.23-1.63-.68-2.12-.46-.49-1.09-.73-1.9-.73s-1.43.25-1.91.74c-.48.49-.72,1.19-.72,2.11v7.13h-1.5V5.09h1.48Z"/>
        <path class="cls-3" d="m209.48,8.66v7.61h-1.48v-1.19c-.34.46-.76.79-1.26,1s-1.11.32-1.83.32c-1.18,0-2.09-.28-2.74-.84-.65-.56-.97-1.38-.97-2.45,0-1,.33-1.78.98-2.35.65-.57,1.58-.85,2.77-.85h3.02v-1.28c0-.81-.22-1.42-.66-1.83-.44-.41-1.07-.62-1.88-.62-.77,0-1.36.17-1.8.52-.43.35-.65.82-.65,1.42v.07h-1.46v-.11c0-.96.35-1.72,1.04-2.3.69-.57,1.64-.86,2.85-.86,1.31,0,2.31.32,3.01.95.7.63,1.05,1.56,1.05,2.78Zm-1.5,3.82v-1.46h-2.8c-1.65,0-2.47.69-2.47,2.07s.82,2.1,2.45,2.1c.99,0,1.7-.22,2.15-.67.45-.45.67-1.13.67-2.04Z"/>
        <path class="cls-3" d="m212.33,13.34V1.05h1.5v12.2c0,.57.11.99.33,1.26.22.27.58.4,1.08.4h.9v1.37h-1.06c-.9,0-1.58-.25-2.05-.75s-.71-1.23-.71-2.18Z"/>
        <path class="cls-3" d="m226.87,16.27h-1.61v-6.4l-4.55-8.83h1.74l3.6,7.3,3.62-7.3h1.74l-4.54,8.85v6.38Z"/>
        <path class="cls-3" d="m232.76,12.17v-7.08h1.5v6.88c0,1.03.2,1.8.6,2.32.4.51,1.07.77,2.01.77s1.61-.25,2.01-.75c.4-.5.6-1.28.6-2.34v-6.88h1.5v7.08c0,1.37-.34,2.42-1.03,3.14-.68.73-1.72,1.09-3.1,1.09s-2.37-.36-3.06-1.09c-.68-.73-1.03-1.78-1.03-3.14Z"/>
        <path class="cls-3" d="m245.29,5.09v1.37c.32-.5.75-.88,1.27-1.12.52-.25,1.11-.38,1.75-.38,1.19,0,2.11.35,2.75,1.05.64.7.96,1.67.96,2.92v7.35h-1.5v-7.13c0-.93-.23-1.63-.68-2.12-.46-.49-1.09-.73-1.9-.73s-1.43.25-1.91.74c-.48.49-.72,1.19-.72,2.11v7.13h-1.5V5.09h1.48Z"/>
        <path class="cls-3" d="m254.87,13.34V1.05h1.5v12.2c0,.57.11.99.33,1.26.22.27.58.4,1.08.4h.9v1.37h-1.06c-.9,0-1.58-.25-2.05-.75s-.71-1.23-.71-2.18Z"/>
        <path class="cls-3" d="m262.15,1.27v1.99h-1.59v-1.99h1.59Zm-.04,3.82v11.19h-1.5V5.09h1.5Z"/>
        <path class="cls-3" d="m266.6,5.09v1.37c.32-.5.75-.88,1.27-1.12.52-.25,1.11-.38,1.75-.38,1.19,0,2.11.35,2.75,1.05.64.7.96,1.67.96,2.92v7.35h-1.5v-7.13c0-.93-.23-1.63-.68-2.12-.46-.49-1.09-.73-1.9-.73s-1.43.25-1.91.74c-.48.49-.72,1.19-.72,2.11v7.13h-1.5V5.09h1.48Z"/>
        <path class="cls-3" d="m281.3,13.96c-.46-.78-.68-1.66-.68-2.65V1.05h1.63v10.13c0,1.16.33,2.09.98,2.77.65.68,1.53,1.03,2.64,1.03s1.96-.34,2.63-1.03c.66-.68.99-1.61.99-2.77V1.05h1.61v10.26c0,1-.22,1.89-.67,2.66-.45.77-1.07,1.37-1.86,1.8-.79.43-1.69.64-2.69.64s-1.9-.21-2.69-.64c-.79-.43-1.42-1.03-1.88-1.81Z"/>
        <path class="cls-3" d="m295.53,5.09v1.37c.32-.5.75-.88,1.27-1.12.52-.25,1.11-.38,1.75-.38,1.19,0,2.11.35,2.75,1.05.64.7.96,1.67.96,2.92v7.35h-1.5v-7.13c0-.93-.23-1.63-.68-2.12-.46-.49-1.09-.73-1.9-.73s-1.43.25-1.91.74c-.48.49-.72,1.19-.72,2.11v7.13h-1.5V5.09h1.48Z"/>
        <path class="cls-3" d="m306.83,1.27v1.99h-1.59v-1.99h1.59Zm-.04,3.82v11.19h-1.5V5.09h1.5Z"/>
        <path class="cls-3" d="m310.09,5.09l2.91,8.98,2.91-8.98h1.61l-3.86,11.19h-1.35l-3.86-11.19h1.63Z"/>
        <path class="cls-3" d="m320.18,11.64c0,1.27.26,2.15.77,2.66.52.51,1.23.76,2.14.76.79,0,1.42-.19,1.86-.57.45-.38.67-.91.67-1.59v-.07h1.46v.11c0,1.04-.36,1.88-1.09,2.52-.73.63-1.73.95-3.01.95s-2.35-.39-3.13-1.17c-.78-.78-1.17-1.99-1.17-3.64v-1.94c0-1.6.39-2.79,1.17-3.56.78-.77,1.81-1.16,3.09-1.16s2.31.39,3.08,1.16c.77.77,1.16,1.96,1.16,3.56v1.32h-6.99v.66Zm0-2.03v.24h5.49v-.4c0-1.16-.24-1.98-.73-2.45-.49-.47-1.15-.71-2.01-.71s-1.51.25-2.01.74c-.5.49-.75,1.35-.75,2.57Z"/>
        <path class="cls-3" d="m331.14,5.09v1.5c.31-.56.72-.97,1.22-1.25.51-.27,1.08-.41,1.71-.41.28,0,.55.02.82.07v1.5c-.35-.12-.74-.18-1.15-.18-.77,0-1.39.26-1.86.8-.48.53-.72,1.22-.72,2.07v7.08h-1.5V5.09h1.48Z"/>
        <path class="cls-3" d="m336.02,13.14v-.09h1.46v.07c0,.62.24,1.11.72,1.47.48.36,1.12.54,1.93.54s1.5-.17,1.97-.51c.48-.34.72-.82.72-1.46,0-.56-.17-.97-.5-1.24-.33-.26-.86-.46-1.6-.6l-1.39-.24c-1.09-.19-1.88-.51-2.38-.97-.5-.46-.75-1.12-.75-1.99,0-.97.36-1.75,1.08-2.33.72-.58,1.66-.87,2.8-.87,1.24,0,2.22.28,2.96.85.74.57,1.1,1.3,1.1,2.22v.13h-1.46v-.07c0-.59-.23-1.05-.68-1.39-.46-.34-1.08-.51-1.88-.51s-1.39.17-1.82.51c-.43.34-.65.8-.65,1.39,0,.49.15.86.46,1.14.31.27.8.47,1.48.58l1.46.27c1.1.21,1.92.54,2.44,1,.52.46.78,1.14.78,2.02,0,1.06-.38,1.88-1.15,2.46-.76.58-1.79.87-3.07.87s-2.2-.29-2.93-.88c-.74-.59-1.1-1.38-1.1-2.38Z"/>
        <path class="cls-3" d="m348.09,1.27v1.99h-1.59v-1.99h1.59Zm-.04,3.82v11.19h-1.5V5.09h1.5Z"/>
        <path class="cls-3" d="m353.43,13.43c0,1.02.48,1.52,1.43,1.52h.88v1.32h-1.13c-.85,0-1.52-.25-2-.74-.48-.49-.72-1.17-.72-2.04v-7.21h-1.74v-1.19h1.74v-2.56l1.52-.71v3.27h2.52v1.19h-2.52v7.15Z"/>
        <path class="cls-3" d="m361.52,17.49c-.26.75-.63,1.29-1.09,1.63-.46.34-1.08.51-1.84.51h-.66v-1.37h.55c.54,0,.95-.11,1.22-.33.27-.22.5-.58.67-1.08l.22-.68-3.84-11.08h1.63l2.93,8.89,2.93-8.89h1.57l-4.3,12.4Z"/>
        <path class="cls-3" d="m371.3,11.82v-2.3c0-1.59.39-2.75,1.17-3.49.78-.74,1.82-1.1,3.13-1.1s2.31.37,3.08,1.1c.77.74,1.16,1.9,1.16,3.49v2.3c0,1.59-.39,2.75-1.16,3.49-.77.74-1.8,1.1-3.08,1.1s-2.35-.36-3.13-1.09c-.78-.73-1.17-1.89-1.17-3.5Zm7.04-.09v-2.12c0-1.22-.25-2.08-.74-2.57-.49-.49-1.16-.74-2-.74s-1.55.25-2.05.74c-.5.49-.75,1.35-.75,2.57v2.12c0,1.24.25,2.1.75,2.59.5.49,1.18.74,2.05.74s1.5-.25,2-.74c.49-.49.74-1.36.74-2.59Z"/>
        <path class="cls-3" d="m384.71,5.09h2.34v1.19h-2.34v10h-1.52V6.28h-1.41v-1.19h1.41v-1.26c0-.85.24-1.53.72-2.03.48-.5,1.14-.75,1.97-.75h1.17v1.19h-.93c-.94,0-1.41.51-1.41,1.52v1.32Z"/>
        <path class="cls-3" d="m392.48,11.97h1.59c.21,2.02,1.41,3.02,3.62,3.02,1.15,0,2.02-.24,2.61-.73.6-.49.89-1.19.89-2.12,0-.84-.24-1.47-.71-1.9-.47-.43-1.18-.72-2.14-.88l-1.72-.29c-1.24-.2-2.18-.63-2.85-1.27-.66-.64-.99-1.54-.99-2.7,0-1.34.45-2.38,1.35-3.13.9-.75,2.08-1.12,3.55-1.12,1.35,0,2.46.35,3.32,1.05.86.7,1.37,1.76,1.53,3.19h-1.59c-.18-1.9-1.27-2.85-3.29-2.85-1.04,0-1.86.25-2.44.74-.58.49-.87,1.17-.87,2.02,0,.75.22,1.33.67,1.75.45.42,1.13.71,2.04.87l1.77.31c1.28.22,2.26.66,2.93,1.32.68.66,1.02,1.6,1.02,2.8,0,1.38-.46,2.45-1.39,3.21-.93.76-2.2,1.14-3.82,1.14-1.53,0-2.73-.38-3.6-1.13-.87-.75-1.37-1.85-1.5-3.31Z"/>
        <path class="cls-3" d="m404.64,11.82v-2.3c0-1.59.39-2.75,1.18-3.49.79-.74,1.84-1.1,3.17-1.1s2.29.34,3.03,1.01c.74.68,1.11,1.58,1.11,2.71v.11h-1.46v-.11c0-.75-.24-1.33-.71-1.74s-1.11-.62-1.92-.62c-.91,0-1.63.25-2.14.74-.51.49-.77,1.35-.77,2.57v2.12c0,1.24.25,2.1.76,2.59.51.49,1.22.74,2.13.74.82,0,1.47-.21,1.94-.62.47-.41.71-.99.71-1.74v-.11h1.46v.09c0,1.13-.37,2.04-1.12,2.71-.75.68-1.75,1.02-3,1.02-1.34,0-2.4-.36-3.19-1.09-.79-.73-1.18-1.89-1.18-3.5Z"/>
        <path class="cls-3" d="m417.35,1.27v1.99h-1.59v-1.99h1.59Zm-.04,3.82v11.19h-1.5V5.09h1.5Z"/>
        <path class="cls-3" d="m421.47,11.64c0,1.27.26,2.15.77,2.66.52.51,1.23.76,2.14.76.79,0,1.42-.19,1.86-.57.45-.38.67-.91.67-1.59v-.07h1.46v.11c0,1.04-.36,1.88-1.09,2.52-.73.63-1.73.95-3.01.95s-2.35-.39-3.13-1.17-1.17-1.99-1.17-3.64v-1.94c0-1.6.39-2.79,1.17-3.56.78-.77,1.81-1.16,3.09-1.16s2.31.39,3.08,1.16c.77.77,1.16,1.96,1.16,3.56v1.32h-6.99v.66Zm0-2.03v.24h5.49v-.4c0-1.16-.24-1.98-.73-2.45-.49-.47-1.15-.71-2.01-.71s-1.51.25-2.01.74c-.5.49-.75,1.35-.75,2.57Z"/>
        <path class="cls-3" d="m432.44,5.09v1.37c.32-.5.75-.88,1.27-1.12.52-.25,1.11-.38,1.75-.38,1.19,0,2.11.35,2.75,1.05.64.7.96,1.67.96,2.92v7.35h-1.5v-7.13c0-.93-.23-1.63-.68-2.12-.46-.49-1.09-.73-1.9-.73s-1.43.25-1.91.74c-.48.49-.72,1.19-.72,2.11v7.13h-1.5V5.09h1.48Z"/>
        <path class="cls-3" d="m441.66,11.82v-2.3c0-1.59.39-2.75,1.18-3.49.79-.74,1.84-1.1,3.17-1.1s2.29.34,3.03,1.01c.74.68,1.11,1.58,1.11,2.71v.11h-1.46v-.11c0-.75-.24-1.33-.71-1.74-.47-.41-1.11-.62-1.92-.62-.91,0-1.63.25-2.14.74-.51.49-.77,1.35-.77,2.57v2.12c0,1.24.25,2.1.76,2.59.51.49,1.22.74,2.13.74.82,0,1.47-.21,1.94-.62.47-.41.71-.99.71-1.74v-.11h1.46v.09c0,1.13-.37,2.04-1.12,2.71-.75.68-1.75,1.02-3,1.02-1.34,0-2.4-.36-3.19-1.09-.79-.73-1.18-1.89-1.18-3.5Z"/>
        <path class="cls-3" d="m453.8,11.64c0,1.27.26,2.15.77,2.66.52.51,1.23.76,2.14.76.79,0,1.42-.19,1.86-.57.45-.38.67-.91.67-1.59v-.07h1.46v.11c0,1.04-.36,1.88-1.09,2.52s-1.73.95-3.01.95-2.35-.39-3.13-1.17c-.78-.78-1.17-1.99-1.17-3.64v-1.94c0-1.6.39-2.79,1.17-3.56.78-.77,1.81-1.16,3.09-1.16s2.31.39,3.08,1.16c.77.77,1.16,1.96,1.16,3.56v1.32h-6.99v.66Zm0-2.03v.24h5.49v-.4c0-1.16-.24-1.98-.73-2.45-.49-.47-1.15-.71-2.01-.71s-1.51.25-2.01.74c-.5.49-.75,1.35-.75,2.57Z"/>
        <path class="cls-3" d="m475.26,8.66v7.61h-1.48v-1.19c-.34.46-.76.79-1.26,1s-1.11.32-1.83.32c-1.18,0-2.09-.28-2.74-.84-.65-.56-.97-1.38-.97-2.45,0-1,.33-1.78.98-2.35.65-.57,1.58-.85,2.77-.85h3.02v-1.28c0-.81-.22-1.42-.66-1.83-.44-.41-1.07-.62-1.88-.62-.77,0-1.36.17-1.8.52-.43.35-.65.82-.65,1.42v.07h-1.46v-.11c0-.96.35-1.72,1.04-2.3.69-.57,1.64-.86,2.85-.86,1.31,0,2.31.32,3.01.95.7.63,1.05,1.56,1.05,2.78Zm-1.5,3.82v-1.46h-2.8c-1.65,0-2.47.69-2.47,2.07s.82,2.1,2.45,2.1c.99,0,1.7-.22,2.15-.67.45-.45.67-1.13.67-2.04Z"/>
        <path class="cls-3" d="m479.59,5.09v1.37c.32-.5.75-.88,1.27-1.12.52-.25,1.11-.38,1.75-.38,1.19,0,2.11.35,2.75,1.05.64.7.96,1.67.96,2.92v7.35h-1.5v-7.13c0-.93-.23-1.63-.68-2.12-.46-.49-1.09-.73-1.9-.73s-1.43.25-1.91.74c-.48.49-.72,1.19-.72,2.11v7.13h-1.5V5.09h1.48Z"/>
        <path class="cls-3" d="m488.81,11.82v-2.3c0-1.57.35-2.73,1.06-3.47.71-.74,1.62-1.11,2.74-1.11,1.35,0,2.35.57,3,1.72V1.05h1.52v15.22h-1.52v-1.48c-.29.53-.7.93-1.2,1.2-.51.27-1.11.41-1.82.41-1.1,0-2.01-.37-2.71-1.11-.71-.74-1.06-1.9-1.06-3.48Zm6.8-.11v-1.96c0-1.04-.23-1.88-.68-2.5-.46-.62-1.13-.94-2.03-.94-1.71,0-2.56,1.1-2.56,3.31v2.12c0,2.22.82,3.33,2.47,3.33.93,0,1.63-.31,2.1-.93.47-.62.71-1.43.71-2.43Z"/>
        <path class="cls-3" d="m508.76,2.51v13.77h-1.59V2.51h-4.35v-1.46h10.28v1.46h-4.35Z"/>
        <path class="cls-3" d="m513.86,11.64c0,1.27.26,2.15.77,2.66.52.51,1.23.76,2.14.76.79,0,1.42-.19,1.86-.57.45-.38.67-.91.67-1.59v-.07h1.46v.11c0,1.04-.36,1.88-1.09,2.52-.73.63-1.73.95-3.01.95s-2.35-.39-3.13-1.17c-.78-.78-1.17-1.99-1.17-3.64v-1.94c0-1.6.39-2.79,1.17-3.56.78-.77,1.81-1.16,3.09-1.16s2.31.39,3.08,1.16c.77.77,1.16,1.96,1.16,3.56v1.32h-6.99v.66Zm0-2.03v.24h5.49v-.4c0-1.16-.24-1.98-.73-2.45-.49-.47-1.15-.71-2.01-.71s-1.51.25-2.01.74c-.5.49-.75,1.35-.75,2.57Z"/>
        <path class="cls-3" d="m522.99,11.82v-2.3c0-1.59.39-2.75,1.18-3.49.79-.74,1.84-1.1,3.17-1.1s2.29.34,3.03,1.01c.74.68,1.11,1.58,1.11,2.71v.11h-1.46v-.11c0-.75-.24-1.33-.71-1.74s-1.11-.62-1.92-.62c-.91,0-1.63.25-2.14.74-.51.49-.77,1.35-.77,2.57v2.12c0,1.24.25,2.1.76,2.59.51.49,1.22.74,2.13.74.82,0,1.47-.21,1.94-.62.47-.41.71-.99.71-1.74v-.11h1.46v.09c0,1.13-.37,2.04-1.12,2.71-.75.68-1.75,1.02-3,1.02-1.34,0-2.4-.36-3.19-1.09-.79-.73-1.18-1.89-1.18-3.5Z"/>
        <path class="cls-3" d="m535.48,1.05v5.41c.68-1,1.68-1.5,3-1.5,1.16,0,2.07.35,2.73,1.04.65.69.98,1.67.98,2.93v7.35h-1.5v-7.13c0-.93-.23-1.63-.68-2.12-.46-.49-1.09-.73-1.9-.73s-1.43.25-1.91.74c-.48.49-.72,1.19-.72,2.11v7.13h-1.5V1.05h1.5Z"/>
        <path class="cls-3" d="m546.51,5.09v1.37c.32-.5.75-.88,1.27-1.12.52-.25,1.11-.38,1.75-.38,1.19,0,2.11.35,2.75,1.05.64.7.96,1.67.96,2.92v7.35h-1.5v-7.13c0-.93-.23-1.63-.68-2.12-.46-.49-1.09-.73-1.9-.73s-1.43.25-1.91.74c-.48.49-.72,1.19-.72,2.11v7.13h-1.5V5.09h1.48Z"/>
        <path class="cls-3" d="m555.73,11.82v-2.3c0-1.59.39-2.75,1.17-3.49.78-.74,1.82-1.1,3.13-1.1s2.31.37,3.08,1.1c.77.74,1.16,1.9,1.16,3.49v2.3c0,1.59-.39,2.75-1.16,3.49-.77.74-1.8,1.1-3.08,1.1s-2.35-.36-3.13-1.09c-.78-.73-1.17-1.89-1.17-3.5Zm7.04-.09v-2.12c0-1.22-.25-2.08-.74-2.57-.49-.49-1.16-.74-2-.74s-1.55.25-2.05.74c-.5.49-.75,1.35-.75,2.57v2.12c0,1.24.25,2.1.75,2.59.5.49,1.18.74,2.05.74s1.5-.25,2-.74c.49-.49.74-1.36.74-2.59Z"/>
        <path class="cls-3" d="m566.76,13.34V1.05h1.5v12.2c0,.57.11.99.33,1.26.22.27.58.4,1.08.4h.9v1.37h-1.06c-.9,0-1.58-.25-2.05-.75-.47-.5-.71-1.23-.71-2.18Z"/>
        <path class="cls-3" d="m571.97,11.82v-2.3c0-1.59.39-2.75,1.17-3.49.78-.74,1.82-1.1,3.13-1.1s2.31.37,3.08,1.1c.77.74,1.16,1.9,1.16,3.49v2.3c0,1.59-.39,2.75-1.16,3.49-.77.74-1.8,1.1-3.08,1.1s-2.35-.36-3.13-1.09c-.78-.73-1.17-1.89-1.17-3.5Zm7.04-.09v-2.12c0-1.22-.25-2.08-.74-2.57-.49-.49-1.16-.74-2-.74s-1.55.25-2.05.74c-.5.49-.75,1.35-.75,2.57v2.12c0,1.24.25,2.1.75,2.59.5.49,1.18.74,2.05.74s1.5-.25,2-.74c.49-.49.74-1.36.74-2.59Z"/>
        <path class="cls-3" d="m582.85,16.83h1.5c.07.49.33.88.76,1.18.43.3,1,.45,1.71.45,1.75,0,2.63-.98,2.63-2.93v-1.57c-.29.53-.7.93-1.2,1.21-.51.28-1.11.42-1.82.42-1.1,0-2.01-.37-2.71-1.11-.71-.74-1.06-1.91-1.06-3.5v-1.54c0-1.57.35-2.73,1.06-3.46.71-.74,1.62-1.1,2.74-1.1,1.37,0,2.37.57,3,1.7v-1.57h1.52v10.39c0,1.35-.36,2.42-1.09,3.2-.73.78-1.75,1.17-3.06,1.17-1.18,0-2.11-.26-2.81-.79-.7-.53-1.08-1.24-1.16-2.14Zm6.6-5.96v-1.21c0-1.05-.23-1.88-.68-2.5-.46-.62-1.13-.94-2.03-.94-1.71,0-2.56,1.11-2.56,3.33v1.35c0,2.22.82,3.33,2.47,3.33.93,0,1.63-.31,2.1-.93.47-.62.71-1.43.71-2.43Z"/>
        <path class="cls-3" d="m597.23,17.49c-.26.75-.63,1.29-1.09,1.63-.46.34-1.08.51-1.84.51h-.66v-1.37h.55c.54,0,.95-.11,1.22-.33.27-.22.5-.58.67-1.08l.22-.68-3.84-11.08h1.63l2.93,8.89,2.93-8.89h1.57l-4.3,12.4Z"/>
        <path class="cls-3" d="m148.73,27.1c1.56,0,2.79.45,3.7,1.35.91.9,1.37,2.32,1.37,4.25v3.44c0,1.94-.46,3.35-1.37,4.25-.91.9-2.15,1.35-3.7,1.35h-5.01v-14.63h5.01Zm3.5,9.12v-3.46c0-1.48-.3-2.57-.9-3.25-.6-.68-1.46-1.02-2.58-1.02h-3.46v11.83h3.46c2.32,0,3.48-1.37,3.48-4.12Z"/>
        <path class="cls-3" d="m157.45,37.28c0,1.22.25,2.07.74,2.56.49.49,1.18.73,2.06.73.76,0,1.36-.18,1.79-.55.43-.37.65-.88.65-1.53v-.06h1.4v.11c0,1-.35,1.81-1.05,2.42-.7.61-1.66.91-2.89.91s-2.26-.37-3.01-1.12c-.75-.75-1.12-1.92-1.12-3.5v-1.87c0-1.54.37-2.68,1.12-3.42s1.74-1.11,2.97-1.11,2.22.37,2.96,1.11c.74.74,1.11,1.88,1.11,3.42v1.27h-6.72v.64Zm0-1.95v.23h5.28v-.38c0-1.12-.23-1.9-.7-2.35-.47-.45-1.11-.68-1.93-.68s-1.45.24-1.93.71c-.48.47-.72,1.3-.72,2.47Z"/>
        <path class="cls-3" d="m168.02,30.98v1.51c.28-.54.66-.94,1.14-1.22.48-.28,1.03-.41,1.65-.41,1.1,0,2,.35,2.69,1.06.69.71,1.04,1.82,1.04,3.33v2.21c0,1.53-.34,2.64-1.02,3.35-.68.71-1.55,1.06-2.61,1.06-1.34,0-2.31-.52-2.91-1.55v4.64h-1.44v-13.98h1.44Zm5.09,4.37c0-2.14-.83-3.2-2.48-3.2-.86,0-1.51.3-1.95.9-.44.6-.66,1.4-.66,2.41v1.89c0,.95.23,1.72.69,2.32.46.6,1.13.9,2,.9,1.6,0,2.4-1.07,2.4-3.2v-2.01Z"/>
        <path class="cls-3" d="m184.31,34.42v7.32h-1.42v-1.15c-.33.44-.73.76-1.21.96-.48.21-1.07.31-1.76.31-1.13,0-2.01-.27-2.63-.81-.62-.54-.93-1.32-.93-2.35,0-.96.31-1.71.94-2.26.63-.54,1.52-.82,2.66-.82h2.91v-1.23c0-.78-.21-1.36-.64-1.76-.42-.4-1.03-.59-1.8-.59-.74,0-1.31.17-1.73.5-.42.33-.63.79-.63,1.37v.06h-1.4v-.11c0-.92.33-1.65,1-2.21.66-.55,1.58-.83,2.74-.83,1.26,0,2.22.3,2.9.91.67.61,1.01,1.5,1.01,2.67Zm-1.44,3.67v-1.4h-2.69c-1.58,0-2.38.66-2.38,1.99s.78,2.02,2.35,2.02c.95,0,1.64-.22,2.07-.65.43-.43.65-1.09.65-1.96Z"/>
        <path class="cls-3" d="m188.47,30.98v1.44c.3-.54.69-.94,1.18-1.2s1.04-.39,1.64-.39c.27,0,.53.02.79.06v1.44c-.34-.11-.71-.17-1.1-.17-.74,0-1.33.25-1.79.76-.46.51-.69,1.17-.69,1.99v6.81h-1.44v-10.75h1.42Z"/>
        <path class="cls-3" d="m196.02,39c0,.98.46,1.46,1.38,1.46h.85v1.27h-1.08c-.82,0-1.46-.24-1.92-.71-.46-.47-.69-1.13-.69-1.96v-6.94h-1.68v-1.14h1.68v-2.46l1.46-.68v3.14h2.42v1.14h-2.42v6.87Z"/>
        <path class="cls-3" d="m201.94,30.98v1.31c.31-.47.72-.82,1.22-1.07.5-.25,1.06-.37,1.69-.37.74,0,1.36.16,1.89.47.52.31.93.76,1.21,1.34.71-1.2,1.8-1.8,3.27-1.8,1.15,0,2.04.34,2.67,1.01.64.67.95,1.61.95,2.81v7.06h-1.44v-6.85c0-.89-.22-1.57-.65-2.04-.43-.47-1.04-.7-1.81-.7s-1.41.24-1.86.71c-.45.47-.67,1.13-.67,1.96v6.91h-1.46v-6.85c0-.89-.22-1.57-.65-2.04-.43-.47-1.04-.7-1.81-.7s-1.38.24-1.83.71-.69,1.15-.69,2.03v6.85h-1.44v-10.75h1.42Z"/>
        <path class="cls-3" d="m218.68,37.28c0,1.22.25,2.07.74,2.56.49.49,1.18.73,2.06.73.76,0,1.36-.18,1.79-.55.43-.37.65-.88.65-1.53v-.06h1.4v.11c0,1-.35,1.81-1.05,2.42-.7.61-1.66.91-2.9.91s-2.26-.37-3.01-1.12c-.75-.75-1.12-1.92-1.12-3.5v-1.87c0-1.54.37-2.68,1.12-3.42s1.74-1.11,2.97-1.11,2.22.37,2.96,1.11c.74.74,1.11,1.88,1.11,3.42v1.27h-6.72v.64Zm0-1.95v.23h5.28v-.38c0-1.12-.23-1.9-.7-2.35-.47-.45-1.11-.68-1.93-.68s-1.45.24-1.93.71c-.48.47-.72,1.3-.72,2.47Z"/>
        <path class="cls-3" d="m229.22,30.98v1.31c.31-.48.72-.84,1.22-1.08.5-.24,1.06-.36,1.69-.36,1.15,0,2.03.34,2.64,1.01.62.67.92,1.61.92,2.81v7.06h-1.44v-6.85c0-.89-.22-1.57-.66-2.04-.44-.47-1.05-.7-1.82-.7s-1.38.24-1.83.71-.69,1.15-.69,2.03v6.85h-1.44v-10.75h1.42Z"/>
        <path class="cls-3" d="m240.7,39c0,.98.46,1.46,1.38,1.46h.85v1.27h-1.08c-.82,0-1.46-.24-1.92-.71-.46-.47-.69-1.13-.69-1.96v-6.94h-1.68v-1.14h1.68v-2.46l1.46-.68v3.14h2.42v1.14h-2.42v6.87Z"/>
        <path class="cls-3" d="m249.02,37.45v-2.21c0-1.53.37-2.64,1.12-3.35.75-.71,1.75-1.06,3.01-1.06s2.22.35,2.96,1.06c.74.71,1.11,1.82,1.11,3.35v2.21c0,1.53-.37,2.64-1.11,3.35-.74.71-1.73,1.06-2.96,1.06s-2.26-.35-3.01-1.05c-.75-.7-1.12-1.82-1.12-3.36Zm6.77-.08v-2.04c0-1.17-.24-2-.71-2.47-.47-.47-1.11-.71-1.92-.71s-1.49.24-1.97.71c-.48.47-.72,1.3-.72,2.47v2.04c0,1.19.24,2.02.72,2.49.48.47,1.14.71,1.97.71s1.45-.24,1.92-.71c.47-.47.71-1.3.71-2.49Z"/>
        <path class="cls-3" d="m261.92,30.98h2.25v1.14h-2.25v9.61h-1.46v-9.61h-1.36v-1.14h1.36v-1.21c0-.82.23-1.47.69-1.95.46-.48,1.09-.72,1.9-.72h1.12v1.15h-.89c-.9,0-1.36.49-1.36,1.46v1.27Z"/>
        <path class="cls-3" d="m271.93,33.59h6.28v1.4h-6.28v5.35h7.34v1.4h-8.89v-14.63h8.89v1.4h-7.34v5.09Z"/>
        <path class="cls-3" d="m281.44,38.91v-11.81h1.44v11.73c0,.55.11.95.32,1.21.21.25.56.38,1.04.38h.87v1.32h-1.02c-.86,0-1.52-.24-1.97-.72-.45-.48-.68-1.18-.68-2.1Z"/>
        <path class="cls-3" d="m287.89,37.28c0,1.22.25,2.07.74,2.56.49.49,1.18.73,2.06.73.76,0,1.36-.18,1.79-.55.43-.37.65-.88.65-1.53v-.06h1.4v.11c0,1-.35,1.81-1.05,2.42-.7.61-1.66.91-2.89.91s-2.26-.37-3.01-1.12c-.75-.75-1.12-1.92-1.12-3.5v-1.87c0-1.54.37-2.68,1.12-3.42s1.74-1.11,2.97-1.11,2.22.37,2.96,1.11c.74.74,1.11,1.88,1.11,3.42v1.27h-6.72v.64Zm0-1.95v.23h5.28v-.38c0-1.12-.23-1.9-.7-2.35-.47-.45-1.11-.68-1.93-.68s-1.45.24-1.93.71c-.48.47-.72,1.3-.72,2.47Z"/>
        <path class="cls-3" d="m296.67,37.45v-2.21c0-1.53.38-2.64,1.13-3.35.76-.71,1.77-1.06,3.04-1.06s2.2.33,2.92.98c.71.65,1.07,1.52,1.07,2.61v.11h-1.4v-.11c0-.72-.23-1.28-.68-1.68-.45-.4-1.07-.59-1.85-.59-.88,0-1.56.24-2.06.71-.5.47-.74,1.3-.74,2.47v2.04c0,1.19.24,2.02.73,2.49.49.47,1.17.71,2.05.71.79,0,1.41-.2,1.87-.59.45-.4.68-.95.68-1.67v-.11h1.4v.08c0,1.09-.36,1.96-1.08,2.61-.72.65-1.68.98-2.88.98-1.29,0-2.31-.35-3.06-1.05-.76-.7-1.13-1.82-1.13-3.36Z"/>
        <path class="cls-3" d="m309.5,39c0,.98.46,1.46,1.38,1.46h.85v1.27h-1.08c-.82,0-1.46-.24-1.92-.71-.46-.47-.69-1.13-.69-1.96v-6.94h-1.68v-1.14h1.68v-2.46l1.46-.68v3.14h2.42v1.14h-2.42v6.87Z"/>
        <path class="cls-3" d="m315.42,30.98v1.44c.3-.54.69-.94,1.18-1.2s1.04-.39,1.64-.39c.27,0,.53.02.78.06v1.44c-.34-.11-.71-.17-1.1-.17-.74,0-1.33.25-1.79.76-.46.51-.69,1.17-.69,1.99v6.81h-1.44v-10.75h1.42Z"/>
        <path class="cls-3" d="m320.37,37.45v-2.21c0-1.53.37-2.64,1.12-3.35.75-.71,1.75-1.06,3.01-1.06s2.22.35,2.96,1.06c.74.71,1.11,1.82,1.11,3.35v2.21c0,1.53-.37,2.64-1.11,3.35-.74.71-1.73,1.06-2.96,1.06s-2.26-.35-3.01-1.05c-.75-.7-1.12-1.82-1.12-3.36Zm6.77-.08v-2.04c0-1.17-.24-2-.71-2.47s-1.11-.71-1.92-.71-1.49.24-1.97.71c-.48.47-.72,1.3-.72,2.47v2.04c0,1.19.24,2.02.72,2.49.48.47,1.14.71,1.97.71s1.45-.24,1.92-.71c.47-.47.71-1.3.71-2.49Z"/>
        <path class="cls-3" d="m332.4,30.98v1.31c.31-.48.72-.84,1.22-1.08.5-.24,1.06-.36,1.69-.36,1.15,0,2.03.34,2.64,1.01.62.67.92,1.61.92,2.81v7.06h-1.44v-6.85c0-.89-.22-1.57-.66-2.04-.44-.47-1.05-.7-1.82-.7s-1.38.24-1.83.71-.69,1.15-.69,2.03v6.85h-1.44v-10.75h1.42Z"/>
        <path class="cls-3" d="m343.26,27.31v1.91h-1.53v-1.91h1.53Zm-.04,3.67v10.75h-1.44v-10.75h1.44Z"/>
        <path class="cls-3" d="m345.78,37.45v-2.21c0-1.53.38-2.64,1.13-3.35.76-.71,1.77-1.06,3.04-1.06s2.2.33,2.92.98c.71.65,1.07,1.52,1.07,2.61v.11h-1.4v-.11c0-.72-.23-1.28-.68-1.68-.45-.4-1.07-.59-1.85-.59-.88,0-1.56.24-2.06.71-.5.47-.74,1.3-.74,2.47v2.04c0,1.19.24,2.02.73,2.49.49.47,1.17.71,2.05.71.79,0,1.41-.2,1.87-.59.45-.4.68-.95.68-1.67v-.11h1.4v.08c0,1.09-.36,1.96-1.08,2.61-.72.65-1.68.98-2.88.98-1.29,0-2.31-.35-3.06-1.05-.76-.7-1.13-1.82-1.13-3.36Z"/>
        <path class="cls-3" d="m362.16,33.59h6.28v1.4h-6.28v5.35h7.34v1.4h-8.89v-14.63h8.89v1.4h-7.34v5.09Z"/>
        <path class="cls-3" d="m373.09,30.98v1.31c.31-.48.72-.84,1.22-1.08.5-.24,1.06-.36,1.69-.36,1.15,0,2.03.34,2.64,1.01.62.67.92,1.61.92,2.81v7.06h-1.44v-6.85c0-.89-.22-1.57-.66-2.04-.44-.47-1.05-.7-1.82-.7s-1.38.24-1.83.71-.69,1.15-.69,2.03v6.85h-1.44v-10.75h1.42Z"/>
        <path class="cls-3" d="m382.15,42.26h1.44c.07.47.31.84.73,1.13.42.29.97.43,1.64.43,1.68,0,2.52-.94,2.52-2.82v-1.51c-.28.51-.67.9-1.16,1.17-.49.27-1.07.4-1.75.4-1.06,0-1.93-.36-2.61-1.07-.68-.71-1.02-1.84-1.02-3.36v-1.49c0-1.51.34-2.62,1.02-3.33.68-.71,1.56-1.06,2.63-1.06,1.31,0,2.28.54,2.88,1.63v-1.51h1.46v9.99c0,1.3-.35,2.33-1.05,3.08-.7.75-1.68,1.12-2.94,1.12-1.13,0-2.03-.25-2.7-.76-.67-.51-1.04-1.2-1.11-2.06Zm6.34-5.73v-1.17c0-1-.22-1.81-.66-2.41-.44-.6-1.09-.9-1.95-.9-1.64,0-2.46,1.07-2.46,3.2v1.29c0,2.13.79,3.2,2.38,3.2.89,0,1.56-.3,2.02-.89.45-.59.68-1.37.68-2.33Z"/>
        <path class="cls-3" d="m394.34,27.31v1.91h-1.53v-1.91h1.53Zm-.04,3.67v10.75h-1.44v-10.75h1.44Z"/>
        <path class="cls-3" d="m398.63,30.98v1.31c.31-.48.72-.84,1.22-1.08.5-.24,1.06-.36,1.69-.36,1.15,0,2.03.34,2.64,1.01.62.67.92,1.61.92,2.81v7.06h-1.44v-6.85c0-.89-.22-1.57-.66-2.04-.44-.47-1.05-.7-1.82-.7s-1.38.24-1.83.71-.69,1.15-.69,2.03v6.85h-1.44v-10.75h1.42Z"/>
        <path class="cls-3" d="m408.94,37.28c0,1.22.25,2.07.74,2.56.49.49,1.18.73,2.06.73.76,0,1.36-.18,1.79-.55.43-.37.65-.88.65-1.53v-.06h1.4v.11c0,1-.35,1.81-1.05,2.42-.7.61-1.66.91-2.89.91s-2.26-.37-3.01-1.12c-.75-.75-1.12-1.92-1.12-3.5v-1.87c0-1.54.37-2.68,1.12-3.42s1.74-1.11,2.97-1.11,2.22.37,2.96,1.11c.74.74,1.11,1.88,1.11,3.42v1.27h-6.72v.64Zm0-1.95v.23h5.28v-.38c0-1.12-.23-1.9-.7-2.35-.47-.45-1.11-.68-1.93-.68s-1.45.24-1.93.71c-.48.47-.72,1.3-.72,2.47Z"/>
        <path class="cls-3" d="m419.17,37.28c0,1.22.25,2.07.74,2.56.49.49,1.18.73,2.06.73.76,0,1.36-.18,1.79-.55.43-.37.65-.88.65-1.53v-.06h1.4v.11c0,1-.35,1.81-1.05,2.42-.7.61-1.66.91-2.89.91s-2.26-.37-3.01-1.12c-.75-.75-1.12-1.92-1.12-3.5v-1.87c0-1.54.37-2.68,1.12-3.42.75-.74,1.74-1.11,2.97-1.11s2.22.37,2.96,1.11c.74.74,1.11,1.88,1.11,3.42v1.27h-6.72v.64Zm0-1.95v.23h5.28v-.38c0-1.12-.23-1.9-.7-2.35-.47-.45-1.11-.68-1.93-.68s-1.45.24-1.93.71c-.48.47-.72,1.3-.72,2.47Z"/>
        <path class="cls-3" d="m429.71,30.98v1.44c.3-.54.69-.94,1.18-1.2.49-.26,1.04-.39,1.64-.39.27,0,.53.02.78.06v1.44c-.34-.11-.71-.17-1.1-.17-.74,0-1.33.25-1.79.76-.46.51-.69,1.17-.69,1.99v6.81h-1.44v-10.75h1.42Z"/>
        <path class="cls-3" d="m436.65,27.31v1.91h-1.53v-1.91h1.53Zm-.04,3.67v10.75h-1.44v-10.75h1.44Z"/>
        <path class="cls-3" d="m440.93,30.98v1.31c.31-.48.72-.84,1.22-1.08.5-.24,1.06-.36,1.69-.36,1.15,0,2.03.34,2.64,1.01.62.67.92,1.61.92,2.81v7.06h-1.44v-6.85c0-.89-.22-1.57-.66-2.04s-1.05-.7-1.82-.7-1.38.24-1.83.71-.69,1.15-.69,2.03v6.85h-1.44v-10.75h1.42Z"/>
        <path class="cls-3" d="m449.99,42.26h1.44c.07.47.31.84.73,1.13.42.29.97.43,1.64.43,1.68,0,2.52-.94,2.52-2.82v-1.51c-.28.51-.67.9-1.16,1.17-.49.27-1.07.4-1.75.4-1.06,0-1.93-.36-2.61-1.07-.68-.71-1.02-1.84-1.02-3.36v-1.49c0-1.51.34-2.62,1.02-3.33.68-.71,1.56-1.06,2.63-1.06,1.31,0,2.28.54,2.88,1.63v-1.51h1.46v9.99c0,1.3-.35,2.33-1.05,3.08-.7.75-1.68,1.12-2.94,1.12-1.13,0-2.03-.25-2.7-.76-.67-.51-1.04-1.2-1.11-2.06Zm6.34-5.73v-1.17c0-1-.22-1.81-.66-2.41-.44-.6-1.09-.9-1.95-.9-1.64,0-2.46,1.07-2.46,3.2v1.29c0,2.13.79,3.2,2.38,3.2.89,0,1.56-.3,2.02-.89.45-.59.68-1.37.68-2.33Z"/>
      </g>
      <g>
        <path class="cls-6" d="m154.89,16.27h-1.61l-7.88-12.27v12.27h-1.61V1.05h1.61l7.88,12.22V1.05h1.61v15.22Z"/>
        <path class="cls-6" d="m165.51,8.66v7.61h-1.48v-1.19c-.34.46-.76.79-1.26,1s-1.11.32-1.83.32c-1.18,0-2.09-.28-2.74-.84-.65-.56-.97-1.38-.97-2.45,0-1,.33-1.78.98-2.35.65-.57,1.58-.85,2.77-.85h3.02v-1.28c0-.81-.22-1.42-.66-1.83-.44-.41-1.07-.62-1.88-.62-.77,0-1.36.17-1.8.52-.43.35-.65.82-.65,1.42v.07h-1.46v-.11c0-.96.35-1.72,1.04-2.3.69-.57,1.64-.86,2.85-.86,1.31,0,2.31.32,3.01.95.7.63,1.05,1.56,1.05,2.78Zm-1.5,3.82v-1.46h-2.8c-1.65,0-2.47.69-2.47,2.07s.82,2.1,2.45,2.1c.99,0,1.7-.22,2.15-.67.45-.45.67-1.13.67-2.04Z"/>
        <path class="cls-6" d="m170.71,13.43c0,1.02.48,1.52,1.43,1.52h.88v1.32h-1.13c-.85,0-1.52-.25-2-.74-.48-.49-.72-1.17-.72-2.04v-7.21h-1.74v-1.19h1.74v-2.56l1.52-.71v3.27h2.52v1.19h-2.52v7.15Z"/>
        <path class="cls-6" d="m177.11,1.27v1.99h-1.59v-1.99h1.59Zm-.04,3.82v11.19h-1.5V5.09h1.5Z"/>
        <path class="cls-6" d="m179.74,11.82v-2.3c0-1.59.39-2.75,1.17-3.49.78-.74,1.82-1.1,3.13-1.1s2.31.37,3.08,1.1c.77.74,1.16,1.9,1.16,3.49v2.3c0,1.59-.39,2.75-1.16,3.49-.77.74-1.8,1.1-3.08,1.1s-2.35-.36-3.13-1.09c-.78-.73-1.17-1.89-1.17-3.5Zm7.04-.09v-2.12c0-1.22-.25-2.08-.74-2.57-.49-.49-1.16-.74-2-.74s-1.55.25-2.05.74c-.5.49-.75,1.35-.75,2.57v2.12c0,1.24.25,2.1.75,2.59.5.49,1.18.74,2.05.74s1.5-.25,2-.74c.49-.49.74-1.36.74-2.59Z"/>
        <path class="cls-6" d="m192.25,5.09v1.37c.32-.5.75-.88,1.27-1.12.52-.25,1.11-.38,1.75-.38,1.19,0,2.11.35,2.75,1.05.64.7.96,1.67.96,2.92v7.35h-1.5v-7.13c0-.93-.23-1.63-.68-2.12-.46-.49-1.09-.73-1.9-.73s-1.43.25-1.91.74c-.48.49-.72,1.19-.72,2.11v7.13h-1.5V5.09h1.48Z"/>
        <path class="cls-6" d="m209.48,8.66v7.61h-1.48v-1.19c-.34.46-.76.79-1.26,1s-1.11.32-1.83.32c-1.18,0-2.09-.28-2.74-.84-.65-.56-.97-1.38-.97-2.45,0-1,.33-1.78.98-2.35.65-.57,1.58-.85,2.77-.85h3.02v-1.28c0-.81-.22-1.42-.66-1.83-.44-.41-1.07-.62-1.88-.62-.77,0-1.36.17-1.8.52-.43.35-.65.82-.65,1.42v.07h-1.46v-.11c0-.96.35-1.72,1.04-2.3.69-.57,1.64-.86,2.85-.86,1.31,0,2.31.32,3.01.95.7.63,1.05,1.56,1.05,2.78Zm-1.5,3.82v-1.46h-2.8c-1.65,0-2.47.69-2.47,2.07s.82,2.1,2.45,2.1c.99,0,1.7-.22,2.15-.67.45-.45.67-1.13.67-2.04Z"/>
        <path class="cls-6" d="m212.33,13.34V1.05h1.5v12.2c0,.57.11.99.33,1.26.22.27.58.4,1.08.4h.9v1.37h-1.06c-.9,0-1.58-.25-2.05-.75s-.71-1.23-.71-2.18Z"/>
        <path class="cls-6" d="m226.87,16.27h-1.61v-6.4l-4.55-8.83h1.74l3.6,7.3,3.62-7.3h1.74l-4.54,8.85v6.38Z"/>
        <path class="cls-6" d="m232.76,12.17v-7.08h1.5v6.88c0,1.03.2,1.8.6,2.32.4.51,1.07.77,2.01.77s1.61-.25,2.01-.75c.4-.5.6-1.28.6-2.34v-6.88h1.5v7.08c0,1.37-.34,2.42-1.03,3.14-.68.73-1.72,1.09-3.1,1.09s-2.37-.36-3.06-1.09c-.68-.73-1.03-1.78-1.03-3.14Z"/>
        <path class="cls-6" d="m245.29,5.09v1.37c.32-.5.75-.88,1.27-1.12.52-.25,1.11-.38,1.75-.38,1.19,0,2.11.35,2.75,1.05.64.7.96,1.67.96,2.92v7.35h-1.5v-7.13c0-.93-.23-1.63-.68-2.12-.46-.49-1.09-.73-1.9-.73s-1.43.25-1.91.74c-.48.49-.72,1.19-.72,2.11v7.13h-1.5V5.09h1.48Z"/>
        <path class="cls-6" d="m254.87,13.34V1.05h1.5v12.2c0,.57.11.99.33,1.26.22.27.58.4,1.08.4h.9v1.37h-1.06c-.9,0-1.58-.25-2.05-.75s-.71-1.23-.71-2.18Z"/>
        <path class="cls-6" d="m262.15,1.27v1.99h-1.59v-1.99h1.59Zm-.04,3.82v11.19h-1.5V5.09h1.5Z"/>
        <path class="cls-6" d="m266.6,5.09v1.37c.32-.5.75-.88,1.27-1.12.52-.25,1.11-.38,1.75-.38,1.19,0,2.11.35,2.75,1.05.64.7.96,1.67.96,2.92v7.35h-1.5v-7.13c0-.93-.23-1.63-.68-2.12-.46-.49-1.09-.73-1.9-.73s-1.43.25-1.91.74c-.48.49-.72,1.19-.72,2.11v7.13h-1.5V5.09h1.48Z"/>
        <path class="cls-6" d="m281.3,13.96c-.46-.78-.68-1.66-.68-2.65V1.05h1.63v10.13c0,1.16.33,2.09.98,2.77.65.68,1.53,1.03,2.64,1.03s1.96-.34,2.63-1.03c.66-.68.99-1.61.99-2.77V1.05h1.61v10.26c0,1-.22,1.89-.67,2.66-.45.77-1.07,1.37-1.86,1.8-.79.43-1.69.64-2.69.64s-1.9-.21-2.69-.64c-.79-.43-1.42-1.03-1.88-1.81Z"/>
        <path class="cls-6" d="m295.53,5.09v1.37c.32-.5.75-.88,1.27-1.12.52-.25,1.11-.38,1.75-.38,1.19,0,2.11.35,2.75,1.05.64.7.96,1.67.96,2.92v7.35h-1.5v-7.13c0-.93-.23-1.63-.68-2.12-.46-.49-1.09-.73-1.9-.73s-1.43.25-1.91.74c-.48.49-.72,1.19-.72,2.11v7.13h-1.5V5.09h1.48Z"/>
        <path class="cls-6" d="m306.83,1.27v1.99h-1.59v-1.99h1.59Zm-.04,3.82v11.19h-1.5V5.09h1.5Z"/>
        <path class="cls-6" d="m310.09,5.09l2.91,8.98,2.91-8.98h1.61l-3.86,11.19h-1.35l-3.86-11.19h1.63Z"/>
        <path class="cls-6" d="m320.18,11.64c0,1.27.26,2.15.77,2.66.52.51,1.23.76,2.14.76.79,0,1.42-.19,1.86-.57.45-.38.67-.91.67-1.59v-.07h1.46v.11c0,1.04-.36,1.88-1.09,2.52-.73.63-1.73.95-3.01.95s-2.35-.39-3.13-1.17c-.78-.78-1.17-1.99-1.17-3.64v-1.94c0-1.6.39-2.79,1.17-3.56.78-.77,1.81-1.16,3.09-1.16s2.31.39,3.08,1.16c.77.77,1.16,1.96,1.16,3.56v1.32h-6.99v.66Zm0-2.03v.24h5.49v-.4c0-1.16-.24-1.98-.73-2.45-.49-.47-1.15-.71-2.01-.71s-1.51.25-2.01.74c-.5.49-.75,1.35-.75,2.57Z"/>
        <path class="cls-6" d="m331.14,5.09v1.5c.31-.56.72-.97,1.22-1.25.51-.27,1.08-.41,1.71-.41.28,0,.55.02.82.07v1.5c-.35-.12-.74-.18-1.15-.18-.77,0-1.39.26-1.86.8-.48.53-.72,1.22-.72,2.07v7.08h-1.5V5.09h1.48Z"/>
        <path class="cls-6" d="m336.02,13.14v-.09h1.46v.07c0,.62.24,1.11.72,1.47.48.36,1.12.54,1.93.54s1.5-.17,1.97-.51c.48-.34.72-.82.72-1.46,0-.56-.17-.97-.5-1.24-.33-.26-.86-.46-1.6-.6l-1.39-.24c-1.09-.19-1.88-.51-2.38-.97-.5-.46-.75-1.12-.75-1.99,0-.97.36-1.75,1.08-2.33.72-.58,1.66-.87,2.8-.87,1.24,0,2.22.28,2.96.85.74.57,1.1,1.3,1.1,2.22v.13h-1.46v-.07c0-.59-.23-1.05-.68-1.39-.46-.34-1.08-.51-1.88-.51s-1.39.17-1.82.51c-.43.34-.65.8-.65,1.39,0,.49.15.86.46,1.14.31.27.8.47,1.48.58l1.46.27c1.1.21,1.92.54,2.44,1,.52.46.78,1.14.78,2.02,0,1.06-.38,1.88-1.15,2.46-.76.58-1.79.87-3.07.87s-2.2-.29-2.93-.88c-.74-.59-1.1-1.38-1.1-2.38Z"/>
        <path class="cls-6" d="m348.09,1.27v1.99h-1.59v-1.99h1.59Zm-.04,3.82v11.19h-1.5V5.09h1.5Z"/>
        <path class="cls-6" d="m353.43,13.43c0,1.02.48,1.52,1.43,1.52h.88v1.32h-1.13c-.85,0-1.52-.25-2-.74-.48-.49-.72-1.17-.72-2.04v-7.21h-1.74v-1.19h1.74v-2.56l1.52-.71v3.27h2.52v1.19h-2.52v7.15Z"/>
        <path class="cls-6" d="m361.52,17.49c-.26.75-.63,1.29-1.09,1.63-.46.34-1.08.51-1.84.51h-.66v-1.37h.55c.54,0,.95-.11,1.22-.33.27-.22.5-.58.67-1.08l.22-.68-3.84-11.08h1.63l2.93,8.89,2.93-8.89h1.57l-4.3,12.4Z"/>
        <path class="cls-6" d="m371.3,11.82v-2.3c0-1.59.39-2.75,1.17-3.49.78-.74,1.82-1.1,3.13-1.1s2.31.37,3.08,1.1c.77.74,1.16,1.9,1.16,3.49v2.3c0,1.59-.39,2.75-1.16,3.49-.77.74-1.8,1.1-3.08,1.1s-2.35-.36-3.13-1.09c-.78-.73-1.17-1.89-1.17-3.5Zm7.04-.09v-2.12c0-1.22-.25-2.08-.74-2.57-.49-.49-1.16-.74-2-.74s-1.55.25-2.05.74c-.5.49-.75,1.35-.75,2.57v2.12c0,1.24.25,2.1.75,2.59.5.49,1.18.74,2.05.74s1.5-.25,2-.74c.49-.49.74-1.36.74-2.59Z"/>
        <path class="cls-6" d="m384.71,5.09h2.34v1.19h-2.34v10h-1.52V6.28h-1.41v-1.19h1.41v-1.26c0-.85.24-1.53.72-2.03.48-.5,1.14-.75,1.97-.75h1.17v1.19h-.93c-.94,0-1.41.51-1.41,1.52v1.32Z"/>
        <path class="cls-6" d="m392.48,11.97h1.59c.21,2.02,1.41,3.02,3.62,3.02,1.15,0,2.02-.24,2.61-.73.6-.49.89-1.19.89-2.12,0-.84-.24-1.47-.71-1.9-.47-.43-1.18-.72-2.14-.88l-1.72-.29c-1.24-.2-2.18-.63-2.85-1.27-.66-.64-.99-1.54-.99-2.7,0-1.34.45-2.38,1.35-3.13.9-.75,2.08-1.12,3.55-1.12,1.35,0,2.46.35,3.32,1.05.86.7,1.37,1.76,1.53,3.19h-1.59c-.18-1.9-1.27-2.85-3.29-2.85-1.04,0-1.86.25-2.44.74-.58.49-.87,1.17-.87,2.02,0,.75.22,1.33.67,1.75.45.42,1.13.71,2.04.87l1.77.31c1.28.22,2.26.66,2.93,1.32.68.66,1.02,1.6,1.02,2.8,0,1.38-.46,2.45-1.39,3.21-.93.76-2.2,1.14-3.82,1.14-1.53,0-2.73-.38-3.6-1.13-.87-.75-1.37-1.85-1.5-3.31Z"/>
        <path class="cls-6" d="m404.64,11.82v-2.3c0-1.59.39-2.75,1.18-3.49.79-.74,1.84-1.1,3.17-1.1s2.29.34,3.03,1.01c.74.68,1.11,1.58,1.11,2.71v.11h-1.46v-.11c0-.75-.24-1.33-.71-1.74s-1.11-.62-1.92-.62c-.91,0-1.63.25-2.14.74-.51.49-.77,1.35-.77,2.57v2.12c0,1.24.25,2.1.76,2.59.51.49,1.22.74,2.13.74.82,0,1.47-.21,1.94-.62.47-.41.71-.99.71-1.74v-.11h1.46v.09c0,1.13-.37,2.04-1.12,2.71-.75.68-1.75,1.02-3,1.02-1.34,0-2.4-.36-3.19-1.09-.79-.73-1.18-1.89-1.18-3.5Z"/>
        <path class="cls-6" d="m417.35,1.27v1.99h-1.59v-1.99h1.59Zm-.04,3.82v11.19h-1.5V5.09h1.5Z"/>
        <path class="cls-6" d="m421.47,11.64c0,1.27.26,2.15.77,2.66.52.51,1.23.76,2.14.76.79,0,1.42-.19,1.86-.57.45-.38.67-.91.67-1.59v-.07h1.46v.11c0,1.04-.36,1.88-1.09,2.52-.73.63-1.73.95-3.01.95s-2.35-.39-3.13-1.17-1.17-1.99-1.17-3.64v-1.94c0-1.6.39-2.79,1.17-3.56.78-.77,1.81-1.16,3.09-1.16s2.31.39,3.08,1.16c.77.77,1.16,1.96,1.16,3.56v1.32h-6.99v.66Zm0-2.03v.24h5.49v-.4c0-1.16-.24-1.98-.73-2.45-.49-.47-1.15-.71-2.01-.71s-1.51.25-2.01.74c-.5.49-.75,1.35-.75,2.57Z"/>
        <path class="cls-6" d="m432.44,5.09v1.37c.32-.5.75-.88,1.27-1.12.52-.25,1.11-.38,1.75-.38,1.19,0,2.11.35,2.75,1.05.64.7.96,1.67.96,2.92v7.35h-1.5v-7.13c0-.93-.23-1.63-.68-2.12-.46-.49-1.09-.73-1.9-.73s-1.43.25-1.91.74c-.48.49-.72,1.19-.72,2.11v7.13h-1.5V5.09h1.48Z"/>
        <path class="cls-6" d="m441.66,11.82v-2.3c0-1.59.39-2.75,1.18-3.49.79-.74,1.84-1.1,3.17-1.1s2.29.34,3.03,1.01c.74.68,1.11,1.58,1.11,2.71v.11h-1.46v-.11c0-.75-.24-1.33-.71-1.74-.47-.41-1.11-.62-1.92-.62-.91,0-1.63.25-2.14.74-.51.49-.77,1.35-.77,2.57v2.12c0,1.24.25,2.1.76,2.59.51.49,1.22.74,2.13.74.82,0,1.47-.21,1.94-.62.47-.41.71-.99.71-1.74v-.11h1.46v.09c0,1.13-.37,2.04-1.12,2.71-.75.68-1.75,1.02-3,1.02-1.34,0-2.4-.36-3.19-1.09-.79-.73-1.18-1.89-1.18-3.5Z"/>
        <path class="cls-6" d="m453.8,11.64c0,1.27.26,2.15.77,2.66.52.51,1.23.76,2.14.76.79,0,1.42-.19,1.86-.57.45-.38.67-.91.67-1.59v-.07h1.46v.11c0,1.04-.36,1.88-1.09,2.52s-1.73.95-3.01.95-2.35-.39-3.13-1.17c-.78-.78-1.17-1.99-1.17-3.64v-1.94c0-1.6.39-2.79,1.17-3.56.78-.77,1.81-1.16,3.09-1.16s2.31.39,3.08,1.16c.77.77,1.16,1.96,1.16,3.56v1.32h-6.99v.66Zm0-2.03v.24h5.49v-.4c0-1.16-.24-1.98-.73-2.45-.49-.47-1.15-.71-2.01-.71s-1.51.25-2.01.74c-.5.49-.75,1.35-.75,2.57Z"/>
        <path class="cls-6" d="m475.26,8.66v7.61h-1.48v-1.19c-.34.46-.76.79-1.26,1s-1.11.32-1.83.32c-1.18,0-2.09-.28-2.74-.84-.65-.56-.97-1.38-.97-2.45,0-1,.33-1.78.98-2.35.65-.57,1.58-.85,2.77-.85h3.02v-1.28c0-.81-.22-1.42-.66-1.83-.44-.41-1.07-.62-1.88-.62-.77,0-1.36.17-1.8.52-.43.35-.65.82-.65,1.42v.07h-1.46v-.11c0-.96.35-1.72,1.04-2.3.69-.57,1.64-.86,2.85-.86,1.31,0,2.31.32,3.01.95.7.63,1.05,1.56,1.05,2.78Zm-1.5,3.82v-1.46h-2.8c-1.65,0-2.47.69-2.47,2.07s.82,2.1,2.45,2.1c.99,0,1.7-.22,2.15-.67.45-.45.67-1.13.67-2.04Z"/>
        <path class="cls-6" d="m479.59,5.09v1.37c.32-.5.75-.88,1.27-1.12.52-.25,1.11-.38,1.75-.38,1.19,0,2.11.35,2.75,1.05.64.7.96,1.67.96,2.92v7.35h-1.5v-7.13c0-.93-.23-1.63-.68-2.12-.46-.49-1.09-.73-1.9-.73s-1.43.25-1.91.74c-.48.49-.72,1.19-.72,2.11v7.13h-1.5V5.09h1.48Z"/>
        <path class="cls-6" d="m488.81,11.82v-2.3c0-1.57.35-2.73,1.06-3.47.71-.74,1.62-1.11,2.74-1.11,1.35,0,2.35.57,3,1.72V1.05h1.52v15.22h-1.52v-1.48c-.29.53-.7.93-1.2,1.2-.51.27-1.11.41-1.82.41-1.1,0-2.01-.37-2.71-1.11-.71-.74-1.06-1.9-1.06-3.48Zm6.8-.11v-1.96c0-1.04-.23-1.88-.68-2.5-.46-.62-1.13-.94-2.03-.94-1.71,0-2.56,1.1-2.56,3.31v2.12c0,2.22.82,3.33,2.47,3.33.93,0,1.63-.31,2.1-.93.47-.62.71-1.43.71-2.43Z"/>
        <path class="cls-6" d="m508.76,2.51v13.77h-1.59V2.51h-4.35v-1.46h10.28v1.46h-4.35Z"/>
        <path class="cls-6" d="m513.86,11.64c0,1.27.26,2.15.77,2.66.52.51,1.23.76,2.14.76.79,0,1.42-.19,1.86-.57.45-.38.67-.91.67-1.59v-.07h1.46v.11c0,1.04-.36,1.88-1.09,2.52-.73.63-1.73.95-3.01.95s-2.35-.39-3.13-1.17c-.78-.78-1.17-1.99-1.17-3.64v-1.94c0-1.6.39-2.79,1.17-3.56.78-.77,1.81-1.16,3.09-1.16s2.31.39,3.08,1.16c.77.77,1.16,1.96,1.16,3.56v1.32h-6.99v.66Zm0-2.03v.24h5.49v-.4c0-1.16-.24-1.98-.73-2.45-.49-.47-1.15-.71-2.01-.71s-1.51.25-2.01.74c-.5.49-.75,1.35-.75,2.57Z"/>
        <path class="cls-6" d="m522.99,11.82v-2.3c0-1.59.39-2.75,1.18-3.49.79-.74,1.84-1.1,3.17-1.1s2.29.34,3.03,1.01c.74.68,1.11,1.58,1.11,2.71v.11h-1.46v-.11c0-.75-.24-1.33-.71-1.74s-1.11-.62-1.92-.62c-.91,0-1.63.25-2.14.74-.51.49-.77,1.35-.77,2.57v2.12c0,1.24.25,2.1.76,2.59.51.49,1.22.74,2.13.74.82,0,1.47-.21,1.94-.62.47-.41.71-.99.71-1.74v-.11h1.46v.09c0,1.13-.37,2.04-1.12,2.71-.75.68-1.75,1.02-3,1.02-1.34,0-2.4-.36-3.19-1.09-.79-.73-1.18-1.89-1.18-3.5Z"/>
        <path class="cls-6" d="m535.48,1.05v5.41c.68-1,1.68-1.5,3-1.5,1.16,0,2.07.35,2.73,1.04.65.69.98,1.67.98,2.93v7.35h-1.5v-7.13c0-.93-.23-1.63-.68-2.12-.46-.49-1.09-.73-1.9-.73s-1.43.25-1.91.74c-.48.49-.72,1.19-.72,2.11v7.13h-1.5V1.05h1.5Z"/>
        <path class="cls-6" d="m546.51,5.09v1.37c.32-.5.75-.88,1.27-1.12.52-.25,1.11-.38,1.75-.38,1.19,0,2.11.35,2.75,1.05.64.7.96,1.67.96,2.92v7.35h-1.5v-7.13c0-.93-.23-1.63-.68-2.12-.46-.49-1.09-.73-1.9-.73s-1.43.25-1.91.74c-.48.49-.72,1.19-.72,2.11v7.13h-1.5V5.09h1.48Z"/>
        <path class="cls-6" d="m555.73,11.82v-2.3c0-1.59.39-2.75,1.17-3.49.78-.74,1.82-1.1,3.13-1.1s2.31.37,3.08,1.1c.77.74,1.16,1.9,1.16,3.49v2.3c0,1.59-.39,2.75-1.16,3.49-.77.74-1.8,1.1-3.08,1.1s-2.35-.36-3.13-1.09c-.78-.73-1.17-1.89-1.17-3.5Zm7.04-.09v-2.12c0-1.22-.25-2.08-.74-2.57-.49-.49-1.16-.74-2-.74s-1.55.25-2.05.74c-.5.49-.75,1.35-.75,2.57v2.12c0,1.24.25,2.1.75,2.59.5.49,1.18.74,2.05.74s1.5-.25,2-.74c.49-.49.74-1.36.74-2.59Z"/>
        <path class="cls-6" d="m566.76,13.34V1.05h1.5v12.2c0,.57.11.99.33,1.26.22.27.58.4,1.08.4h.9v1.37h-1.06c-.9,0-1.58-.25-2.05-.75-.47-.5-.71-1.23-.71-2.18Z"/>
        <path class="cls-6" d="m571.97,11.82v-2.3c0-1.59.39-2.75,1.17-3.49.78-.74,1.82-1.1,3.13-1.1s2.31.37,3.08,1.1c.77.74,1.16,1.9,1.16,3.49v2.3c0,1.59-.39,2.75-1.16,3.49-.77.74-1.8,1.1-3.08,1.1s-2.35-.36-3.13-1.09c-.78-.73-1.17-1.89-1.17-3.5Zm7.04-.09v-2.12c0-1.22-.25-2.08-.74-2.57-.49-.49-1.16-.74-2-.74s-1.55.25-2.05.74c-.5.49-.75,1.35-.75,2.57v2.12c0,1.24.25,2.1.75,2.59.5.49,1.18.74,2.05.74s1.5-.25,2-.74c.49-.49.74-1.36.74-2.59Z"/>
        <path class="cls-6" d="m582.85,16.83h1.5c.07.49.33.88.76,1.18.43.3,1,.45,1.71.45,1.75,0,2.63-.98,2.63-2.93v-1.57c-.29.53-.7.93-1.2,1.21-.51.28-1.11.42-1.82.42-1.1,0-2.01-.37-2.71-1.11-.71-.74-1.06-1.91-1.06-3.5v-1.54c0-1.57.35-2.73,1.06-3.46.71-.74,1.62-1.1,2.74-1.1,1.37,0,2.37.57,3,1.7v-1.57h1.52v10.39c0,1.35-.36,2.42-1.09,3.2-.73.78-1.75,1.17-3.06,1.17-1.18,0-2.11-.26-2.81-.79-.7-.53-1.08-1.24-1.16-2.14Zm6.6-5.96v-1.21c0-1.05-.23-1.88-.68-2.5-.46-.62-1.13-.94-2.03-.94-1.71,0-2.56,1.11-2.56,3.33v1.35c0,2.22.82,3.33,2.47,3.33.93,0,1.63-.31,2.1-.93.47-.62.71-1.43.71-2.43Z"/>
        <path class="cls-6" d="m597.23,17.49c-.26.75-.63,1.29-1.09,1.63-.46.34-1.08.51-1.84.51h-.66v-1.37h.55c.54,0,.95-.11,1.22-.33.27-.22.5-.58.67-1.08l.22-.68-3.84-11.08h1.63l2.93,8.89,2.93-8.89h1.57l-4.3,12.4Z"/>
        <path class="cls-6" d="m148.73,27.1c1.56,0,2.79.45,3.7,1.35.91.9,1.37,2.32,1.37,4.25v3.44c0,1.94-.46,3.35-1.37,4.25-.91.9-2.15,1.35-3.7,1.35h-5.01v-14.63h5.01Zm3.5,9.12v-3.46c0-1.48-.3-2.57-.9-3.25-.6-.68-1.46-1.02-2.58-1.02h-3.46v11.83h3.46c2.32,0,3.48-1.37,3.48-4.12Z"/>
        <path class="cls-6" d="m157.45,37.28c0,1.22.25,2.07.74,2.56.49.49,1.18.73,2.06.73.76,0,1.36-.18,1.79-.55.43-.37.65-.88.65-1.53v-.06h1.4v.11c0,1-.35,1.81-1.05,2.42-.7.61-1.66.91-2.89.91s-2.26-.37-3.01-1.12c-.75-.75-1.12-1.92-1.12-3.5v-1.87c0-1.54.37-2.68,1.12-3.42s1.74-1.11,2.97-1.11,2.22.37,2.96,1.11c.74.74,1.11,1.88,1.11,3.42v1.27h-6.72v.64Zm0-1.95v.23h5.28v-.38c0-1.12-.23-1.9-.7-2.35-.47-.45-1.11-.68-1.93-.68s-1.45.24-1.93.71c-.48.47-.72,1.3-.72,2.47Z"/>
        <path class="cls-6" d="m168.02,30.98v1.51c.28-.54.66-.94,1.14-1.22.48-.28,1.03-.41,1.65-.41,1.1,0,2,.35,2.69,1.06.69.71,1.04,1.82,1.04,3.33v2.21c0,1.53-.34,2.64-1.02,3.35-.68.71-1.55,1.06-2.61,1.06-1.34,0-2.31-.52-2.91-1.55v4.64h-1.44v-13.98h1.44Zm5.09,4.37c0-2.14-.83-3.2-2.48-3.2-.86,0-1.51.3-1.95.9-.44.6-.66,1.4-.66,2.41v1.89c0,.95.23,1.72.69,2.32.46.6,1.13.9,2,.9,1.6,0,2.4-1.07,2.4-3.2v-2.01Z"/>
        <path class="cls-6" d="m184.31,34.42v7.32h-1.42v-1.15c-.33.44-.73.76-1.21.96-.48.21-1.07.31-1.76.31-1.13,0-2.01-.27-2.63-.81-.62-.54-.93-1.32-.93-2.35,0-.96.31-1.71.94-2.26.63-.54,1.52-.82,2.66-.82h2.91v-1.23c0-.78-.21-1.36-.64-1.76-.42-.4-1.03-.59-1.8-.59-.74,0-1.31.17-1.73.5-.42.33-.63.79-.63,1.37v.06h-1.4v-.11c0-.92.33-1.65,1-2.21.66-.55,1.58-.83,2.74-.83,1.26,0,2.22.3,2.9.91.67.61,1.01,1.5,1.01,2.67Zm-1.44,3.67v-1.4h-2.69c-1.58,0-2.38.66-2.38,1.99s.78,2.02,2.35,2.02c.95,0,1.64-.22,2.07-.65.43-.43.65-1.09.65-1.96Z"/>
        <path class="cls-6" d="m188.47,30.98v1.44c.3-.54.69-.94,1.18-1.2s1.04-.39,1.64-.39c.27,0,.53.02.79.06v1.44c-.34-.11-.71-.17-1.1-.17-.74,0-1.33.25-1.79.76-.46.51-.69,1.17-.69,1.99v6.81h-1.44v-10.75h1.42Z"/>
        <path class="cls-6" d="m196.02,39c0,.98.46,1.46,1.38,1.46h.85v1.27h-1.08c-.82,0-1.46-.24-1.92-.71-.46-.47-.69-1.13-.69-1.96v-6.94h-1.68v-1.14h1.68v-2.46l1.46-.68v3.14h2.42v1.14h-2.42v6.87Z"/>
        <path class="cls-6" d="m201.94,30.98v1.31c.31-.47.72-.82,1.22-1.07.5-.25,1.06-.37,1.69-.37.74,0,1.36.16,1.89.47.52.31.93.76,1.21,1.34.71-1.2,1.8-1.8,3.27-1.8,1.15,0,2.04.34,2.67,1.01.64.67.95,1.61.95,2.81v7.06h-1.44v-6.85c0-.89-.22-1.57-.65-2.04-.43-.47-1.04-.7-1.81-.7s-1.41.24-1.86.71c-.45.47-.67,1.13-.67,1.96v6.91h-1.46v-6.85c0-.89-.22-1.57-.65-2.04-.43-.47-1.04-.7-1.81-.7s-1.38.24-1.83.71-.69,1.15-.69,2.03v6.85h-1.44v-10.75h1.42Z"/>
        <path class="cls-6" d="m218.68,37.28c0,1.22.25,2.07.74,2.56.49.49,1.18.73,2.06.73.76,0,1.36-.18,1.79-.55.43-.37.65-.88.65-1.53v-.06h1.4v.11c0,1-.35,1.81-1.05,2.42-.7.61-1.66.91-2.9.91s-2.26-.37-3.01-1.12c-.75-.75-1.12-1.92-1.12-3.5v-1.87c0-1.54.37-2.68,1.12-3.42s1.74-1.11,2.97-1.11,2.22.37,2.96,1.11c.74.74,1.11,1.88,1.11,3.42v1.27h-6.72v.64Zm0-1.95v.23h5.28v-.38c0-1.12-.23-1.9-.7-2.35-.47-.45-1.11-.68-1.93-.68s-1.45.24-1.93.71c-.48.47-.72,1.3-.72,2.47Z"/>
        <path class="cls-6" d="m229.22,30.98v1.31c.31-.48.72-.84,1.22-1.08.5-.24,1.06-.36,1.69-.36,1.15,0,2.03.34,2.64,1.01.62.67.92,1.61.92,2.81v7.06h-1.44v-6.85c0-.89-.22-1.57-.66-2.04-.44-.47-1.05-.7-1.82-.7s-1.38.24-1.83.71-.69,1.15-.69,2.03v6.85h-1.44v-10.75h1.42Z"/>
        <path class="cls-6" d="m240.7,39c0,.98.46,1.46,1.38,1.46h.85v1.27h-1.08c-.82,0-1.46-.24-1.92-.71-.46-.47-.69-1.13-.69-1.96v-6.94h-1.68v-1.14h1.68v-2.46l1.46-.68v3.14h2.42v1.14h-2.42v6.87Z"/>
        <path class="cls-6" d="m249.02,37.45v-2.21c0-1.53.37-2.64,1.12-3.35.75-.71,1.75-1.06,3.01-1.06s2.22.35,2.96,1.06c.74.71,1.11,1.82,1.11,3.35v2.21c0,1.53-.37,2.64-1.11,3.35-.74.71-1.73,1.06-2.96,1.06s-2.26-.35-3.01-1.05c-.75-.7-1.12-1.82-1.12-3.36Zm6.77-.08v-2.04c0-1.17-.24-2-.71-2.47-.47-.47-1.11-.71-1.92-.71s-1.49.24-1.97.71c-.48.47-.72,1.3-.72,2.47v2.04c0,1.19.24,2.02.72,2.49.48.47,1.14.71,1.97.71s1.45-.24,1.92-.71c.47-.47.71-1.3.71-2.49Z"/>
        <path class="cls-6" d="m261.92,30.98h2.25v1.14h-2.25v9.61h-1.46v-9.61h-1.36v-1.14h1.36v-1.21c0-.82.23-1.47.69-1.95.46-.48,1.09-.72,1.9-.72h1.12v1.15h-.89c-.9,0-1.36.49-1.36,1.46v1.27Z"/>
        <path class="cls-6" d="m271.93,33.59h6.28v1.4h-6.28v5.35h7.34v1.4h-8.89v-14.63h8.89v1.4h-7.34v5.09Z"/>
        <path class="cls-6" d="m281.44,38.91v-11.81h1.44v11.73c0,.55.11.95.32,1.21.21.25.56.38,1.04.38h.87v1.32h-1.02c-.86,0-1.52-.24-1.97-.72-.45-.48-.68-1.18-.68-2.1Z"/>
        <path class="cls-6" d="m287.89,37.28c0,1.22.25,2.07.74,2.56.49.49,1.18.73,2.06.73.76,0,1.36-.18,1.79-.55.43-.37.65-.88.65-1.53v-.06h1.4v.11c0,1-.35,1.81-1.05,2.42-.7.61-1.66.91-2.89.91s-2.26-.37-3.01-1.12c-.75-.75-1.12-1.92-1.12-3.5v-1.87c0-1.54.37-2.68,1.12-3.42s1.74-1.11,2.97-1.11,2.22.37,2.96,1.11c.74.74,1.11,1.88,1.11,3.42v1.27h-6.72v.64Zm0-1.95v.23h5.28v-.38c0-1.12-.23-1.9-.7-2.35-.47-.45-1.11-.68-1.93-.68s-1.45.24-1.93.71c-.48.47-.72,1.3-.72,2.47Z"/>
        <path class="cls-6" d="m296.67,37.45v-2.21c0-1.53.38-2.64,1.13-3.35.76-.71,1.77-1.06,3.04-1.06s2.2.33,2.92.98c.71.65,1.07,1.52,1.07,2.61v.11h-1.4v-.11c0-.72-.23-1.28-.68-1.68-.45-.4-1.07-.59-1.85-.59-.88,0-1.56.24-2.06.71-.5.47-.74,1.3-.74,2.47v2.04c0,1.19.24,2.02.73,2.49.49.47,1.17.71,2.05.71.79,0,1.41-.2,1.87-.59.45-.4.68-.95.68-1.67v-.11h1.4v.08c0,1.09-.36,1.96-1.08,2.61-.72.65-1.68.98-2.88.98-1.29,0-2.31-.35-3.06-1.05-.76-.7-1.13-1.82-1.13-3.36Z"/>
        <path class="cls-6" d="m309.5,39c0,.98.46,1.46,1.38,1.46h.85v1.27h-1.08c-.82,0-1.46-.24-1.92-.71-.46-.47-.69-1.13-.69-1.96v-6.94h-1.68v-1.14h1.68v-2.46l1.46-.68v3.14h2.42v1.14h-2.42v6.87Z"/>
        <path class="cls-6" d="m315.42,30.98v1.44c.3-.54.69-.94,1.18-1.2s1.04-.39,1.64-.39c.27,0,.53.02.78.06v1.44c-.34-.11-.71-.17-1.1-.17-.74,0-1.33.25-1.79.76-.46.51-.69,1.17-.69,1.99v6.81h-1.44v-10.75h1.42Z"/>
        <path class="cls-6" d="m320.37,37.45v-2.21c0-1.53.37-2.64,1.12-3.35.75-.71,1.75-1.06,3.01-1.06s2.22.35,2.96,1.06c.74.71,1.11,1.82,1.11,3.35v2.21c0,1.53-.37,2.64-1.11,3.35-.74.71-1.73,1.06-2.96,1.06s-2.26-.35-3.01-1.05c-.75-.7-1.12-1.82-1.12-3.36Zm6.77-.08v-2.04c0-1.17-.24-2-.71-2.47s-1.11-.71-1.92-.71-1.49.24-1.97.71c-.48.47-.72,1.3-.72,2.47v2.04c0,1.19.24,2.02.72,2.49.48.47,1.14.71,1.97.71s1.45-.24,1.92-.71c.47-.47.71-1.3.71-2.49Z"/>
        <path class="cls-6" d="m332.4,30.98v1.31c.31-.48.72-.84,1.22-1.08.5-.24,1.06-.36,1.69-.36,1.15,0,2.03.34,2.64,1.01.62.67.92,1.61.92,2.81v7.06h-1.44v-6.85c0-.89-.22-1.57-.66-2.04-.44-.47-1.05-.7-1.82-.7s-1.38.24-1.83.71-.69,1.15-.69,2.03v6.85h-1.44v-10.75h1.42Z"/>
        <path class="cls-6" d="m343.26,27.31v1.91h-1.53v-1.91h1.53Zm-.04,3.67v10.75h-1.44v-10.75h1.44Z"/>
        <path class="cls-6" d="m345.78,37.45v-2.21c0-1.53.38-2.64,1.13-3.35.76-.71,1.77-1.06,3.04-1.06s2.2.33,2.92.98c.71.65,1.07,1.52,1.07,2.61v.11h-1.4v-.11c0-.72-.23-1.28-.68-1.68-.45-.4-1.07-.59-1.85-.59-.88,0-1.56.24-2.06.71-.5.47-.74,1.3-.74,2.47v2.04c0,1.19.24,2.02.73,2.49.49.47,1.17.71,2.05.71.79,0,1.41-.2,1.87-.59.45-.4.68-.95.68-1.67v-.11h1.4v.08c0,1.09-.36,1.96-1.08,2.61-.72.65-1.68.98-2.88.98-1.29,0-2.31-.35-3.06-1.05-.76-.7-1.13-1.82-1.13-3.36Z"/>
        <path class="cls-6" d="m362.16,33.59h6.28v1.4h-6.28v5.35h7.34v1.4h-8.89v-14.63h8.89v1.4h-7.34v5.09Z"/>
        <path class="cls-6" d="m373.09,30.98v1.31c.31-.48.72-.84,1.22-1.08.5-.24,1.06-.36,1.69-.36,1.15,0,2.03.34,2.64,1.01.62.67.92,1.61.92,2.81v7.06h-1.44v-6.85c0-.89-.22-1.57-.66-2.04-.44-.47-1.05-.7-1.82-.7s-1.38.24-1.83.71-.69,1.15-.69,2.03v6.85h-1.44v-10.75h1.42Z"/>
        <path class="cls-6" d="m382.15,42.26h1.44c.07.47.31.84.73,1.13.42.29.97.43,1.64.43,1.68,0,2.52-.94,2.52-2.82v-1.51c-.28.51-.67.9-1.16,1.17-.49.27-1.07.4-1.75.4-1.06,0-1.93-.36-2.61-1.07-.68-.71-1.02-1.84-1.02-3.36v-1.49c0-1.51.34-2.62,1.02-3.33.68-.71,1.56-1.06,2.63-1.06,1.31,0,2.28.54,2.88,1.63v-1.51h1.46v9.99c0,1.3-.35,2.33-1.05,3.08-.7.75-1.68,1.12-2.94,1.12-1.13,0-2.03-.25-2.7-.76-.67-.51-1.04-1.2-1.11-2.06Zm6.34-5.73v-1.17c0-1-.22-1.81-.66-2.41-.44-.6-1.09-.9-1.95-.9-1.64,0-2.46,1.07-2.46,3.2v1.29c0,2.13.79,3.2,2.38,3.2.89,0,1.56-.3,2.02-.89.45-.59.68-1.37.68-2.33Z"/>
        <path class="cls-6" d="m394.34,27.31v1.91h-1.53v-1.91h1.53Zm-.04,3.67v10.75h-1.44v-10.75h1.44Z"/>
        <path class="cls-6" d="m398.63,30.98v1.31c.31-.48.72-.84,1.22-1.08.5-.24,1.06-.36,1.69-.36,1.15,0,2.03.34,2.64,1.01.62.67.92,1.61.92,2.81v7.06h-1.44v-6.85c0-.89-.22-1.57-.66-2.04-.44-.47-1.05-.7-1.82-.7s-1.38.24-1.83.71-.69,1.15-.69,2.03v6.85h-1.44v-10.75h1.42Z"/>
        <path class="cls-6" d="m408.94,37.28c0,1.22.25,2.07.74,2.56.49.49,1.18.73,2.06.73.76,0,1.36-.18,1.79-.55.43-.37.65-.88.65-1.53v-.06h1.4v.11c0,1-.35,1.81-1.05,2.42-.7.61-1.66.91-2.89.91s-2.26-.37-3.01-1.12c-.75-.75-1.12-1.92-1.12-3.5v-1.87c0-1.54.37-2.68,1.12-3.42s1.74-1.11,2.97-1.11,2.22.37,2.96,1.11c.74.74,1.11,1.88,1.11,3.42v1.27h-6.72v.64Zm0-1.95v.23h5.28v-.38c0-1.12-.23-1.9-.7-2.35-.47-.45-1.11-.68-1.93-.68s-1.45.24-1.93.71c-.48.47-.72,1.3-.72,2.47Z"/>
        <path class="cls-6" d="m419.17,37.28c0,1.22.25,2.07.74,2.56.49.49,1.18.73,2.06.73.76,0,1.36-.18,1.79-.55.43-.37.65-.88.65-1.53v-.06h1.4v.11c0,1-.35,1.81-1.05,2.42-.7.61-1.66.91-2.89.91s-2.26-.37-3.01-1.12c-.75-.75-1.12-1.92-1.12-3.5v-1.87c0-1.54.37-2.68,1.12-3.42.75-.74,1.74-1.11,2.97-1.11s2.22.37,2.96,1.11c.74.74,1.11,1.88,1.11,3.42v1.27h-6.72v.64Zm0-1.95v.23h5.28v-.38c0-1.12-.23-1.9-.7-2.35-.47-.45-1.11-.68-1.93-.68s-1.45.24-1.93.71c-.48.47-.72,1.3-.72,2.47Z"/>
        <path class="cls-6" d="m429.71,30.98v1.44c.3-.54.69-.94,1.18-1.2.49-.26,1.04-.39,1.64-.39.27,0,.53.02.78.06v1.44c-.34-.11-.71-.17-1.1-.17-.74,0-1.33.25-1.79.76-.46.51-.69,1.17-.69,1.99v6.81h-1.44v-10.75h1.42Z"/>
        <path class="cls-6" d="m436.65,27.31v1.91h-1.53v-1.91h1.53Zm-.04,3.67v10.75h-1.44v-10.75h1.44Z"/>
        <path class="cls-6" d="m440.93,30.98v1.31c.31-.48.72-.84,1.22-1.08.5-.24,1.06-.36,1.69-.36,1.15,0,2.03.34,2.64,1.01.62.67.92,1.61.92,2.81v7.06h-1.44v-6.85c0-.89-.22-1.57-.66-2.04s-1.05-.7-1.82-.7-1.38.24-1.83.71-.69,1.15-.69,2.03v6.85h-1.44v-10.75h1.42Z"/>
        <path class="cls-6" d="m449.99,42.26h1.44c.07.47.31.84.73,1.13.42.29.97.43,1.64.43,1.68,0,2.52-.94,2.52-2.82v-1.51c-.28.51-.67.9-1.16,1.17-.49.27-1.07.4-1.75.4-1.06,0-1.93-.36-2.61-1.07-.68-.71-1.02-1.84-1.02-3.36v-1.49c0-1.51.34-2.62,1.02-3.33.68-.71,1.56-1.06,2.63-1.06,1.31,0,2.28.54,2.88,1.63v-1.51h1.46v9.99c0,1.3-.35,2.33-1.05,3.08-.7.75-1.68,1.12-2.94,1.12-1.13,0-2.03-.25-2.7-.76-.67-.51-1.04-1.2-1.11-2.06Zm6.34-5.73v-1.17c0-1-.22-1.81-.66-2.41-.44-.6-1.09-.9-1.95-.9-1.64,0-2.46,1.07-2.46,3.2v1.29c0,2.13.79,3.2,2.38,3.2.89,0,1.56-.3,2.02-.89.45-.59.68-1.37.68-2.33Z"/>
      </g>
    </g>
  </g>
</svg>