<svg xmlns="http://www.w3.org/2000/svg" xmlns:xlink="http://www.w3.org/1999/xlink" viewBox="0 0 110.1 110.1"><defs><style>.cls-1{fill:url(#未命名漸層_8);}</style><linearGradient id="未命名漸層_8" y1="55.05" x2="110.1" y2="55.05" gradientUnits="userSpaceOnUse"><stop offset="0" stop-color="#00f559"/><stop offset="0.51" stop-color="#00cfff"/><stop offset="0.54" stop-color="#07c6fd"/><stop offset="1" stop-color="#644de2"/></linearGradient></defs><title>跨領域系統暨生醫應用設計實驗室</title><g id="圖層_2" data-name="圖層 2"><g id="圖層_1-2" data-name="圖層 1"><circle class="cls-1" cx="67.09" cy="22.02" r="6.09"/><circle class="cls-1" cx="43.01" cy="4.35" r="4.35"/><circle class="cls-1" cx="88.09" cy="67.09" r="6.09"/><circle class="cls-1" cx="105.75" cy="43.01" r="4.35"/><circle class="cls-1" cx="88.09" cy="43.01" r="6.83"/><path class="cls-1" d="M47.08,60.57a6.35,6.35,0,0,1-2.91-5.41v-.21a6.35,6.35,0,0,1,2.91-5.41,7.69,7.69,0,0,0-.36-13.26,4.84,4.84,0,0,1-2.55-4.22h0a4.81,4.81,0,0,1,2.31-4.16,6.83,6.83,0,1,0-6.9,0A4.68,4.68,0,0,1,41.86,32v.08a4.7,4.7,0,0,1-2.45,4.17,7.68,7.68,0,0,0-.58,13.22,6.54,6.54,0,0,1,3,5.45v.42a6.3,6.3,0,0,1-3,5.28,7.69,7.69,0,1,0,8.2,0ZM38.66,43A4.35,4.35,0,1,1,43,47.37,4.35,4.35,0,0,1,38.66,43Z"/><path class="cls-1" d="M70.49,82.17a4.37,4.37,0,0,1-2.25-3.77v-.52a4.48,4.48,0,0,1,2.4-4,7.69,7.69,0,0,0,.51-13.34,6,6,0,0,1-2.91-5.1v-.69a6.3,6.3,0,0,1,3-5.28,7.68,7.68,0,0,0,3.51-7.23,8.07,8.07,0,0,0-7.16-6.92A7.69,7.69,0,0,0,63,49.54a6,6,0,0,1,2.91,5.1v.69A6.18,6.18,0,0,1,63,60.57a7.68,7.68,0,0,0,.5,13.32,4.43,4.43,0,0,1,2.41,3.9v.49a4.57,4.57,0,0,1-2.31,3.92,6.83,6.83,0,1,0,6.87,0ZM62.74,67.09a4.35,4.35,0,1,1,4.35,4.35A4.35,4.35,0,0,1,62.74,67.09Z"/><circle class="cls-1" cx="22.02" cy="43.01" r="6.09"/><circle class="cls-1" cx="4.35" cy="67.09" r="4.35"/><circle class="cls-1" cx="22.02" cy="67.09" r="6.83"/><circle class="cls-1" cx="43.01" cy="88.09" r="6.09"/><circle class="cls-1" cx="67.09" cy="105.75" r="4.35"/></g></g></svg>