<svg xmlns="http://www.w3.org/2000/svg" xmlns:xlink="http://www.w3.org/1999/xlink" viewBox="0 0 717.33 118.07"><defs><style>.cls-1{fill:#878787;}.cls-2{fill:url(#未命名漸層_38);}.cls-3{fill:url(#未命名漸層_38-2);}.cls-4{fill:url(#未命名漸層_38-3);}.cls-5{fill:url(#未命名漸層_38-4);}.cls-6{fill:url(#未命名漸層_38-5);}.cls-7{fill:url(#未命名漸層_38-6);}.cls-8{fill:url(#未命名漸層_38-7);}.cls-9{fill:url(#未命名漸層_38-8);}.cls-10{fill:url(#未命名漸層_38-9);}.cls-11{fill:url(#未命名漸層_38-10);}.cls-12{fill:url(#未命名漸層_38-11);}.cls-13{fill:url(#未命名漸層_38-12);}.cls-14{fill:#0064b4;}.cls-15{fill:#505050;}</style><linearGradient id="未命名漸層_38" x1="-63.36" y1="-872.14" x2="-62.36" y2="-872.14" gradientTransform="matrix(73.16, 42.24, 42.24, -73.16, 41512.23, -61129.54)" gradientUnits="userSpaceOnUse"><stop offset="0" stop-color="#00f559"/><stop offset="0.51" stop-color="#00cfff"/><stop offset="1" stop-color="#644de2"/></linearGradient><linearGradient id="未命名漸層_38-2" x1="-63.36" y1="-872.1" x2="-62.36" y2="-872.1" xlink:href="#未命名漸層_38"/><linearGradient id="未命名漸層_38-3" x1="-63.36" y1="-872.48" x2="-62.36" y2="-872.48" xlink:href="#未命名漸層_38"/><linearGradient id="未命名漸層_38-4" x1="-63.36" y1="-872.13" x2="-62.36" y2="-872.13" xlink:href="#未命名漸層_38"/><linearGradient id="未命名漸層_38-5" x1="-63.36" y1="-872.23" x2="-62.36" y2="-872.23" xlink:href="#未命名漸層_38"/><linearGradient id="未命名漸層_38-6" x1="-63.36" y1="-872.52" x2="-62.36" y2="-872.52" xlink:href="#未命名漸層_38"/><linearGradient id="未命名漸層_38-7" x1="-63.36" y1="-872.58" x2="-62.36" y2="-872.58" xlink:href="#未命名漸層_38"/><linearGradient id="未命名漸層_38-8" x1="-63.36" y1="-872.62" x2="-62.36" y2="-872.62" xlink:href="#未命名漸層_38"/><linearGradient id="未命名漸層_38-9" x1="-63.36" y1="-872.98" x2="-62.36" y2="-872.98" xlink:href="#未命名漸層_38"/><linearGradient id="未命名漸層_38-10" x1="-63.36" y1="-872.87" x2="-62.36" y2="-872.87" xlink:href="#未命名漸層_38"/><linearGradient id="未命名漸層_38-11" x1="-63.36" y1="-872.96" x2="-62.36" y2="-872.96" xlink:href="#未命名漸層_38"/><linearGradient id="未命名漸層_38-12" x1="-63.36" y1="-873" x2="-62.36" y2="-873" xlink:href="#未命名漸層_38"/></defs><title>資產 1</title><g id="圖層_2" data-name="圖層 2"><g id="圖層_1-2" data-name="圖層 1"><path class="cls-1" d="M133.41,109.18v-7a5.3,5.3,0,0,1,1.26-3.86A4.47,4.47,0,0,1,138,97a4.53,4.53,0,0,1,3.28,1.22,4.91,4.91,0,0,1,1.27,3.7v.22h-1.79V102a3.66,3.66,0,0,0-.75-2.54,2.58,2.58,0,0,0-2-.81,2.56,2.56,0,0,0-2.13.89,4.49,4.49,0,0,0-.71,2.8v6.9q0,3.47,2.84,3.48a2.58,2.58,0,0,0,2-.81,3.58,3.58,0,0,0,.73-2.47v-.22h1.74v.24a4.88,4.88,0,0,1-1.25,3.66A4.45,4.45,0,0,1,138,114.3a4.51,4.51,0,0,1-3.35-1.29A5.23,5.23,0,0,1,133.41,109.18Z"/><path class="cls-1" d="M146.38,101.45v1.25a2.67,2.67,0,0,1,1.1-1.09,3.31,3.31,0,0,1,1.54-.36,3.75,3.75,0,0,1,.91.1V103a3.87,3.87,0,0,0-1.22-.22,2.22,2.22,0,0,0-1.64.64,2.35,2.35,0,0,0-.64,1.74v9h-1.66V101.45Z"/><path class="cls-1" d="M151.33,110v-4.43a4.57,4.57,0,0,1,1-3.27,3.73,3.73,0,0,1,2.81-1,3.6,3.6,0,0,1,2.75,1.05,4.61,4.61,0,0,1,1,3.25V110a4.61,4.61,0,0,1-1,3.25,3.6,3.6,0,0,1-2.75,1.05,3.73,3.73,0,0,1-2.81-1A4.57,4.57,0,0,1,151.33,110Zm5.9-.2v-4a3.84,3.84,0,0,0-.54-2.31,1.86,1.86,0,0,0-1.57-.7,1.91,1.91,0,0,0-1.58.69,3.77,3.77,0,0,0-.55,2.33v4a3.77,3.77,0,0,0,.55,2.33,1.91,1.91,0,0,0,1.58.69,1.86,1.86,0,0,0,1.57-.7A3.85,3.85,0,0,0,157.23,109.79Z"/><path class="cls-1" d="M160.58,110.7v-.15h1.54v.15a2.06,2.06,0,0,0,.59,1.58,2.27,2.27,0,0,0,1.62.55,2.24,2.24,0,0,0,1.53-.5,2.29,2.29,0,0,0,.18-2.8,3.49,3.49,0,0,0-1.32-.86l-1.59-.66a3.42,3.42,0,0,1-2.42-3.3,3.3,3.3,0,0,1,1-2.51,3.7,3.7,0,0,1,2.66-.94,3.58,3.58,0,0,1,2.63,1,3.45,3.45,0,0,1,1,2.57v.32h-1.54v-.15a2.37,2.37,0,0,0-.54-1.66,2.3,2.3,0,0,0-3-.09,1.82,1.82,0,0,0-.53,1.38,2,2,0,0,0,.34,1.15,2.74,2.74,0,0,0,1.2.86l1.59.66a5.06,5.06,0,0,1,1.95,1.3,3.18,3.18,0,0,1,.65,2.13,3.48,3.48,0,0,1-1,2.67,3.93,3.93,0,0,1-2.8,1,3.71,3.71,0,0,1-2.7-1A3.51,3.51,0,0,1,160.58,110.7Z"/><path class="cls-1" d="M169.18,110.7v-.15h1.54v.15a2.06,2.06,0,0,0,.59,1.58,2.27,2.27,0,0,0,1.62.55,2.24,2.24,0,0,0,1.53-.5,2.29,2.29,0,0,0,.18-2.8,3.49,3.49,0,0,0-1.32-.86l-1.59-.66a3.42,3.42,0,0,1-2.42-3.3,3.3,3.3,0,0,1,1-2.51,3.7,3.7,0,0,1,2.66-.94,3.58,3.58,0,0,1,2.63,1,3.45,3.45,0,0,1,1,2.57v.32H175v-.15a2.37,2.37,0,0,0-.54-1.66,2.3,2.3,0,0,0-3-.09,1.82,1.82,0,0,0-.53,1.38,2,2,0,0,0,.34,1.15,2.74,2.74,0,0,0,1.2.86l1.59.66a5.06,5.06,0,0,1,1.95,1.3,3.18,3.18,0,0,1,.65,2.13,3.48,3.48,0,0,1-1,2.67,3.93,3.93,0,0,1-2.8,1,3.71,3.71,0,0,1-2.7-1A3.51,3.51,0,0,1,169.18,110.7Z"/><path class="cls-1" d="M185,104.8v1.59h-6.73V104.8Z"/><path class="cls-1" d="M186.92,110v-4.43a4.87,4.87,0,0,1,.92-3.24,3,3,0,0,1,2.41-1.07,2.65,2.65,0,0,1,2.42,1.42V97.21h1.66V114.1h-1.66V113a2.68,2.68,0,0,1-2.42,1.35,3,3,0,0,1-2.41-1.06A4.87,4.87,0,0,1,186.92,110Zm5.75-.17v-4q0-3-2.1-3t-2,3v4a4.07,4.07,0,0,0,.5,2.31,1.71,1.71,0,0,0,1.48.7,1.8,1.8,0,0,0,1.57-.76A3.84,3.84,0,0,0,192.68,109.82Z"/><path class="cls-1" d="M198.55,97.24v2.2h-1.69v-2.2Zm0,4.21V114.1h-1.66V101.45Z"/><path class="cls-1" d="M200.58,110.7v-.15h1.54v.15a2.06,2.06,0,0,0,.59,1.58,2.27,2.27,0,0,0,1.62.55,2.24,2.24,0,0,0,1.53-.5,2.3,2.3,0,0,0,.18-2.8,3.49,3.49,0,0,0-1.32-.86l-1.59-.66a3.42,3.42,0,0,1-2.42-3.3,3.3,3.3,0,0,1,1-2.51,3.7,3.7,0,0,1,2.66-.94,3.58,3.58,0,0,1,2.63,1,3.45,3.45,0,0,1,1,2.57v.32h-1.54v-.15a2.38,2.38,0,0,0-.54-1.66,2.3,2.3,0,0,0-3-.09,1.82,1.82,0,0,0-.53,1.38,2,2,0,0,0,.34,1.15,2.74,2.74,0,0,0,1.2.86l1.59.66a5.06,5.06,0,0,1,1.95,1.3,3.18,3.18,0,0,1,.65,2.13,3.48,3.48,0,0,1-1,2.67,3.93,3.93,0,0,1-2.8,1,3.71,3.71,0,0,1-2.7-1A3.51,3.51,0,0,1,200.58,110.7Z"/><path class="cls-1" d="M209.67,110v-4.43a4.57,4.57,0,0,1,1-3.27,3.73,3.73,0,0,1,2.81-1,3.69,3.69,0,0,1,2.77,1,4.19,4.19,0,0,1,1,3v.34h-1.66v-.34q0-2.55-2.06-2.55a2,2,0,0,0-1.63.69,3.77,3.77,0,0,0-.55,2.33v4a3.77,3.77,0,0,0,.55,2.33,1.93,1.93,0,0,0,1.6.69q2.08,0,2.08-2.55v-.34h1.66v.32a4.24,4.24,0,0,1-1,3,3.63,3.63,0,0,1-2.74,1,3.76,3.76,0,0,1-2.84-1A4.57,4.57,0,0,1,209.67,110Z"/><path class="cls-1" d="M221.22,97.24v2.2h-1.69v-2.2Zm0,4.21V114.1h-1.66V101.45Z"/><path class="cls-1" d="M225.41,101.45v1.22a2.63,2.63,0,0,1,2.4-1.42,3.06,3.06,0,0,1,2.44,1.07,4.87,4.87,0,0,1,.92,3.24V110a4.87,4.87,0,0,1-.92,3.24,3,3,0,0,1-2.41,1.06,2.69,2.69,0,0,1-2.42-1.32v4.85h-1.66V101.45Zm4.09,8.35v-4q0-3-2-3a1.79,1.79,0,0,0-1.57.77,3.94,3.94,0,0,0-.54,2.26v4a3.83,3.83,0,0,0,.54,2.23,1.8,1.8,0,0,0,1.57.76,1.71,1.71,0,0,0,1.48-.7A4.07,4.07,0,0,0,229.49,109.79Z"/><path class="cls-1" d="M233.31,110.75V97.21H235v13.46q0,1.93,1.74,1.93h.37v1.49h-.42a3.43,3.43,0,0,1-2.51-.86A3.35,3.35,0,0,1,233.31,110.75Z"/><path class="cls-1" d="M240.36,97.24v2.2h-1.69v-2.2Zm0,4.21V114.1h-1.66V101.45Z"/><path class="cls-1" d="M244.5,101.45v1.15a2.7,2.7,0,0,1,1-1,3,3,0,0,1,1.47-.37,2.92,2.92,0,0,1,2.35,1,4.06,4.06,0,0,1,.83,2.72v9.15h-1.66V105a2.41,2.41,0,0,0-.54-1.69,2,2,0,0,0-2.88,0,2.39,2.39,0,0,0-.55,1.68v9.08h-1.66V101.45Z"/><path class="cls-1" d="M259.48,104.92v9.18h-1.59v-1.17a2.83,2.83,0,0,1-2.57,1.37,3,3,0,0,1-2.4-1,4.2,4.2,0,0,1-.83-2.78,3.62,3.62,0,0,1,1-2.68,3.79,3.79,0,0,1,2.8-1h2v-2q0-2.13-2-2.13a1.89,1.89,0,0,0-1.39.49,1.85,1.85,0,0,0-.49,1.37v.2h-1.57v-.22a3.15,3.15,0,0,1,.94-2.42,3.52,3.52,0,0,1,2.51-.88,3.56,3.56,0,0,1,2.69,1A3.74,3.74,0,0,1,259.48,104.92Zm-1.66,5.56v-2.35H256q-2.28,0-2.28,2.37t2,2.35a2,2,0,0,0,1.55-.62A2.56,2.56,0,0,0,257.82,110.48Z"/><path class="cls-1" d="M263.47,101.45v1.25a2.67,2.67,0,0,1,1.1-1.09,3.31,3.31,0,0,1,1.54-.36,3.75,3.75,0,0,1,.91.1V103a3.88,3.88,0,0,0-1.22-.22,2.22,2.22,0,0,0-1.64.64,2.35,2.35,0,0,0-.64,1.74v9h-1.66V101.45Z"/><path class="cls-1" d="M272,115.3a3.22,3.22,0,0,1-1.25,2,4.4,4.4,0,0,1-2.42.58h-.24v-1.49h.42A2.5,2.5,0,0,0,270,116a2,2,0,0,0,.71-1.22l.1-.39-3.43-12.95h1.81l2.4,9.67,2.33-9.67h1.81Z"/><path class="cls-1" d="M280,109.48h1.74a3.79,3.79,0,0,0,.77,2.46,2.6,2.6,0,0,0,2,.75,2.47,2.47,0,0,0,2-.75,3.42,3.42,0,0,0,.65-2.29,3.09,3.09,0,0,0-.58-2,5.37,5.37,0,0,0-2.07-1.3l-1-.39a6,6,0,0,1-2.5-1.69,4.27,4.27,0,0,1-.83-2.77,4.57,4.57,0,0,1,1.16-3.28A4.19,4.19,0,0,1,284.5,97a4.11,4.11,0,0,1,3.06,1.14,5,5,0,0,1,1.22,3.41h-1.69q-.17-3-2.62-3a2.39,2.39,0,0,0-1.91.73,3.08,3.08,0,0,0-.64,2.08,2.85,2.85,0,0,0,.58,1.88,4.82,4.82,0,0,0,2,1.22l1,.39a5.91,5.91,0,0,1,2.55,1.74,4.72,4.72,0,0,1,.86,3,4.8,4.8,0,0,1-1.15,3.44,4.37,4.37,0,0,1-3.33,1.21,4.2,4.2,0,0,1-3.27-1.22A5.32,5.32,0,0,1,280,109.48Z"/><path class="cls-1" d="M294.27,115.3a3.22,3.22,0,0,1-1.25,2,4.4,4.4,0,0,1-2.42.58h-.24v-1.49h.42a2.5,2.5,0,0,0,1.47-.37,2,2,0,0,0,.71-1.22l.1-.39-3.43-12.95h1.81l2.4,9.67,2.33-9.67H298Z"/><path class="cls-1" d="M299,110.7v-.15h1.54v.15a2.06,2.06,0,0,0,.59,1.58,2.27,2.27,0,0,0,1.62.55,2.24,2.24,0,0,0,1.53-.5,2.29,2.29,0,0,0,.18-2.8,3.49,3.49,0,0,0-1.32-.86l-1.59-.66a3.42,3.42,0,0,1-2.42-3.3,3.3,3.3,0,0,1,1-2.51,3.7,3.7,0,0,1,2.66-.94,3.58,3.58,0,0,1,2.63,1,3.45,3.45,0,0,1,1,2.57v.32h-1.54v-.15a2.37,2.37,0,0,0-.54-1.66,2.3,2.3,0,0,0-3-.09,1.82,1.82,0,0,0-.53,1.38,2,2,0,0,0,.34,1.15,2.74,2.74,0,0,0,1.2.86l1.59.66a5.06,5.06,0,0,1,1.95,1.3,3.18,3.18,0,0,1,.65,2.13,3.48,3.48,0,0,1-1,2.67,3.93,3.93,0,0,1-2.8,1,3.71,3.71,0,0,1-2.7-1A3.51,3.51,0,0,1,299,110.7Z"/><path class="cls-1" d="M310.33,110.7a2,2,0,0,0,.47,1.46,1.9,1.9,0,0,0,1.42.48h.34v1.47h-.42q-3.48,0-3.48-3.33v-8H307v-1.3h1.62V98.8l1.66-.76v3.4h2.42v1.3h-2.42Z"/><path class="cls-1" d="M315.86,109.77a3.81,3.81,0,0,0,.58,2.37,2,2,0,0,0,1.63.71q2,0,2-2.52v-.1h1.64v.07a4.15,4.15,0,0,1-1,3,3.61,3.61,0,0,1-2.73,1q-3.82,0-3.82-4.5v-4.09a4.9,4.9,0,0,1,1-3.33,3.48,3.48,0,0,1,2.75-1.13,3.56,3.56,0,0,1,2.78,1.13,4.83,4.83,0,0,1,1,3.33v2.57h-5.87Zm0-4V107h4.23v-1.3a3.67,3.67,0,0,0-.55-2.28,1.91,1.91,0,0,0-1.58-.69,1.86,1.86,0,0,0-1.57.7A3.84,3.84,0,0,0,315.86,105.76Z"/><path class="cls-1" d="M325.53,101.45v1.15a2.72,2.72,0,0,1,1-1,2.91,2.91,0,0,1,1.46-.37,3.07,3.07,0,0,1,1.62.43,3.13,3.13,0,0,1,1.13,1.16,3.34,3.34,0,0,1,1.19-1.17,3.15,3.15,0,0,1,1.6-.42,3.05,3.05,0,0,1,2.45,1,4.06,4.06,0,0,1,.83,2.73v9.15h-1.69V105a2.45,2.45,0,0,0-.53-1.69,1.8,1.8,0,0,0-1.41-.59,1.88,1.88,0,0,0-1.46.6,2.35,2.35,0,0,0-.55,1.65v9.1h-1.66V105a2.42,2.42,0,0,0-.54-1.68,1.85,1.85,0,0,0-1.44-.6,1.82,1.82,0,0,0-1.42.6,2.42,2.42,0,0,0-.54,1.68v9.08h-1.69V101.45Z"/><path class="cls-1" d="M338.85,110.7v-.15h1.54v.15a2.06,2.06,0,0,0,.59,1.58,2.27,2.27,0,0,0,1.62.55,2.24,2.24,0,0,0,1.53-.5,2.29,2.29,0,0,0,.18-2.8,3.49,3.49,0,0,0-1.32-.86l-1.59-.66a3.42,3.42,0,0,1-2.42-3.3,3.3,3.3,0,0,1,1-2.51,3.7,3.7,0,0,1,2.66-.94,3.58,3.58,0,0,1,2.63,1,3.45,3.45,0,0,1,1,2.57v.32h-1.54v-.15a2.37,2.37,0,0,0-.54-1.66,2.3,2.3,0,0,0-3-.09,1.82,1.82,0,0,0-.53,1.38,2,2,0,0,0,.34,1.15,2.74,2.74,0,0,0,1.2.86l1.59.66a5.06,5.06,0,0,1,1.95,1.3,3.18,3.18,0,0,1,.65,2.13,3.48,3.48,0,0,1-1,2.67,3.93,3.93,0,0,1-2.8,1,3.71,3.71,0,0,1-2.7-1A3.51,3.51,0,0,1,338.85,110.7Z"/><path class="cls-1" d="M358.85,104.92v9.18h-1.59v-1.17a2.83,2.83,0,0,1-2.57,1.37,3,3,0,0,1-2.4-1,4.2,4.2,0,0,1-.83-2.78,3.62,3.62,0,0,1,1-2.68,3.79,3.79,0,0,1,2.8-1h2v-2q0-2.13-2-2.13a1.89,1.89,0,0,0-1.4.49,1.86,1.86,0,0,0-.49,1.37v.2h-1.57v-.22a3.16,3.16,0,0,1,.94-2.42,3.52,3.52,0,0,1,2.51-.88,3.56,3.56,0,0,1,2.69,1A3.74,3.74,0,0,1,358.85,104.92Zm-1.66,5.56v-2.35h-1.79q-2.28,0-2.28,2.37t2,2.35a2,2,0,0,0,1.55-.62A2.56,2.56,0,0,0,357.18,110.48Z"/><path class="cls-1" d="M362.84,101.45v1.15a2.7,2.7,0,0,1,1-1,3,3,0,0,1,1.47-.37,2.92,2.92,0,0,1,2.35,1,4.06,4.06,0,0,1,.83,2.72v9.15h-1.66V105a2.41,2.41,0,0,0-.54-1.69,2,2,0,0,0-2.88,0,2.39,2.39,0,0,0-.55,1.68v9.08h-1.66V101.45Z"/><path class="cls-1" d="M370.67,110v-4.43a4.87,4.87,0,0,1,.92-3.24,3,3,0,0,1,2.41-1.07,2.65,2.65,0,0,1,2.42,1.42V97.21h1.66V114.1h-1.66V113A2.68,2.68,0,0,1,374,114.3a3,3,0,0,1-2.41-1.06A4.87,4.87,0,0,1,370.67,110Zm5.75-.17v-4q0-3-2.1-3t-2,3v4a4.07,4.07,0,0,0,.5,2.31,1.71,1.71,0,0,0,1.48.7,1.8,1.8,0,0,0,1.57-.76A3.84,3.84,0,0,0,376.42,109.82Z"/><path class="cls-1" d="M392,112.93a4.33,4.33,0,0,1-3.37,1.17h-4.33V97.21h4.31a4.29,4.29,0,0,1,3.27,1.09,4.72,4.72,0,0,1,1,3.32q0,2.89-2.23,3.72,2.4.66,2.4,4.11A5,5,0,0,1,392,112.93ZM386,104.56h2.37q2.64,0,2.64-2.84a3.25,3.25,0,0,0-.62-2.24,2.61,2.61,0,0,0-2-.67H386Zm5.19,4.77q0-3.18-2.79-3.18H386v6.36h2.4a2.64,2.64,0,0,0,2.13-.78A3.66,3.66,0,0,0,391.23,109.33Z"/><path class="cls-1" d="M397.06,97.24v2.2h-1.69v-2.2Zm0,4.21V114.1h-1.66V101.45Z"/><path class="cls-1" d="M399.36,110v-4.43a4.57,4.57,0,0,1,1-3.27,3.72,3.72,0,0,1,2.81-1,3.6,3.6,0,0,1,2.75,1.05,4.61,4.61,0,0,1,1,3.25V110a4.61,4.61,0,0,1-1,3.25,3.6,3.6,0,0,1-2.75,1.05,3.73,3.73,0,0,1-2.81-1A4.57,4.57,0,0,1,399.36,110Zm5.9-.2v-4a3.84,3.84,0,0,0-.54-2.31,1.86,1.86,0,0,0-1.57-.7,1.91,1.91,0,0,0-1.58.69,3.77,3.77,0,0,0-.55,2.33v4a3.77,3.77,0,0,0,.55,2.33,1.91,1.91,0,0,0,1.58.69,1.86,1.86,0,0,0,1.57-.7A3.85,3.85,0,0,0,405.26,109.79Z"/><path class="cls-1" d="M410.72,101.45v1.15a2.72,2.72,0,0,1,1-1,2.91,2.91,0,0,1,1.46-.37,3.07,3.07,0,0,1,1.62.43,3.13,3.13,0,0,1,1.13,1.16,3.34,3.34,0,0,1,1.19-1.17,3.15,3.15,0,0,1,1.6-.42,3.05,3.05,0,0,1,2.45,1,4.06,4.06,0,0,1,.83,2.73v9.15h-1.69V105a2.45,2.45,0,0,0-.53-1.69,1.8,1.8,0,0,0-1.41-.59,1.88,1.88,0,0,0-1.46.6,2.35,2.35,0,0,0-.55,1.65v9.1h-1.66V105a2.42,2.42,0,0,0-.54-1.68,1.85,1.85,0,0,0-1.44-.6,1.82,1.82,0,0,0-1.42.6,2.42,2.42,0,0,0-.54,1.68v9.08h-1.69V101.45Z"/><path class="cls-1" d="M425.83,109.77a3.81,3.81,0,0,0,.58,2.37,2,2,0,0,0,1.63.71q2,0,2-2.52v-.1h1.64v.07a4.15,4.15,0,0,1-1,3,3.61,3.61,0,0,1-2.73,1q-3.82,0-3.82-4.5v-4.09a4.9,4.9,0,0,1,1-3.33,3.48,3.48,0,0,1,2.75-1.13,3.56,3.56,0,0,1,2.78,1.13,4.82,4.82,0,0,1,1,3.33v2.57h-5.87Zm0-4V107h4.23v-1.3a3.67,3.67,0,0,0-.55-2.28,1.91,1.91,0,0,0-1.58-.69,1.86,1.86,0,0,0-1.57.7A3.84,3.84,0,0,0,425.83,105.76Z"/><path class="cls-1" d="M433.63,110v-4.43a4.87,4.87,0,0,1,.92-3.24,3,3,0,0,1,2.41-1.07,2.65,2.65,0,0,1,2.42,1.42V97.21h1.66V114.1h-1.66V113A2.68,2.68,0,0,1,437,114.3a3,3,0,0,1-2.41-1.06A4.87,4.87,0,0,1,433.63,110Zm5.75-.17v-4q0-3-2.1-3t-2,3v4a4.07,4.07,0,0,0,.5,2.31,1.71,1.71,0,0,0,1.48.7,1.8,1.8,0,0,0,1.57-.76A3.84,3.84,0,0,0,439.39,109.82Z"/><path class="cls-1" d="M445.26,97.24v2.2h-1.69v-2.2Zm0,4.21V114.1h-1.66V101.45Z"/><path class="cls-1" d="M447.56,110v-4.43a4.57,4.57,0,0,1,1-3.27,3.72,3.72,0,0,1,2.81-1,3.69,3.69,0,0,1,2.77,1,4.19,4.19,0,0,1,1,3v.34h-1.66v-.34q0-2.55-2.06-2.55a2,2,0,0,0-1.63.69,3.77,3.77,0,0,0-.55,2.33v4a3.77,3.77,0,0,0,.55,2.33,1.93,1.93,0,0,0,1.6.69q2.08,0,2.08-2.55v-.34h1.66v.32a4.24,4.24,0,0,1-1,3,3.63,3.63,0,0,1-2.74,1,3.76,3.76,0,0,1-2.84-1A4.57,4.57,0,0,1,447.56,110Z"/><path class="cls-1" d="M464.21,104.92v9.18h-1.59v-1.17A2.83,2.83,0,0,1,460,114.3a3,3,0,0,1-2.4-1,4.2,4.2,0,0,1-.83-2.78,3.62,3.62,0,0,1,1-2.68,3.79,3.79,0,0,1,2.8-1h2v-2q0-2.13-2-2.13a1.89,1.89,0,0,0-1.4.49,1.86,1.86,0,0,0-.49,1.37v.2h-1.57v-.22a3.15,3.15,0,0,1,.94-2.42,3.52,3.52,0,0,1,2.51-.88,3.56,3.56,0,0,1,2.69,1A3.74,3.74,0,0,1,464.21,104.92Zm-1.66,5.56v-2.35h-1.79q-2.28,0-2.28,2.37t2,2.35a2,2,0,0,0,1.55-.62A2.56,2.56,0,0,0,462.54,110.48Z"/><path class="cls-1" d="M466.58,110.75V97.21h1.69v13.46q0,1.93,1.74,1.93h.37v1.49H470a3.43,3.43,0,0,1-2.51-.86A3.35,3.35,0,0,1,466.58,110.75Z"/><path class="cls-1" d="M477.28,109.79l-1.08,4.31h-1.86l4.6-16.89h1.64l4.6,16.89H483.3l-1.08-4.31Zm2.47-9.89-2.08,8.35h4.16Z"/><path class="cls-1" d="M488.15,101.45v1.22a2.63,2.63,0,0,1,2.4-1.42,3.06,3.06,0,0,1,2.44,1.07,4.87,4.87,0,0,1,.92,3.24V110a4.87,4.87,0,0,1-.92,3.24,3,3,0,0,1-2.41,1.06,2.69,2.69,0,0,1-2.42-1.32v4.85h-1.66V101.45Zm4.09,8.35v-4q0-3-2-3a1.79,1.79,0,0,0-1.57.77,3.94,3.94,0,0,0-.54,2.26v4a3.83,3.83,0,0,0,.54,2.23,1.8,1.8,0,0,0,1.57.76,1.71,1.71,0,0,0,1.48-.7A4.07,4.07,0,0,0,492.24,109.79Z"/><path class="cls-1" d="M497.72,101.45v1.22a2.63,2.63,0,0,1,2.4-1.42,3.06,3.06,0,0,1,2.44,1.07,4.87,4.87,0,0,1,.92,3.24V110a4.87,4.87,0,0,1-.92,3.24,3,3,0,0,1-2.41,1.06,2.69,2.69,0,0,1-2.42-1.32v4.85h-1.66V101.45Zm4.09,8.35v-4q0-3-2-3a1.79,1.79,0,0,0-1.57.77,3.94,3.94,0,0,0-.54,2.26v4a3.83,3.83,0,0,0,.54,2.23,1.8,1.8,0,0,0,1.57.76,1.71,1.71,0,0,0,1.48-.7A4.07,4.07,0,0,0,501.81,109.79Z"/><path class="cls-1" d="M505.63,110.75V97.21h1.69v13.46q0,1.93,1.74,1.93h.37v1.49H509a3.42,3.42,0,0,1-2.51-.86A3.35,3.35,0,0,1,505.63,110.75Z"/><path class="cls-1" d="M512.68,97.24v2.2H511v-2.2Zm0,4.21V114.1H511V101.45Z"/><path class="cls-1" d="M515,110v-4.43a4.57,4.57,0,0,1,1-3.27,3.73,3.73,0,0,1,2.81-1,3.69,3.69,0,0,1,2.77,1,4.19,4.19,0,0,1,1,3v.34h-1.66v-.34q0-2.55-2.06-2.55a2,2,0,0,0-1.63.69,3.77,3.77,0,0,0-.55,2.33v4a3.77,3.77,0,0,0,.55,2.33,1.93,1.93,0,0,0,1.6.69q2.08,0,2.08-2.55v-.34h1.66v.32a4.24,4.24,0,0,1-1,3,3.63,3.63,0,0,1-2.74,1,3.76,3.76,0,0,1-2.84-1A4.57,4.57,0,0,1,515,110Z"/><path class="cls-1" d="M531.63,104.92v9.18H530v-1.17a2.83,2.83,0,0,1-2.57,1.37,3,3,0,0,1-2.4-1,4.2,4.2,0,0,1-.83-2.78,3.62,3.62,0,0,1,1-2.68,3.79,3.79,0,0,1,2.8-1h2v-2q0-2.13-2-2.13a1.89,1.89,0,0,0-1.39.49,1.85,1.85,0,0,0-.49,1.37v.2h-1.57v-.22a3.15,3.15,0,0,1,.94-2.42,3.52,3.52,0,0,1,2.51-.88,3.56,3.56,0,0,1,2.69,1A3.74,3.74,0,0,1,531.63,104.92ZM530,110.48v-2.35h-1.79q-2.28,0-2.28,2.37t2,2.35a2,2,0,0,0,1.55-.62A2.56,2.56,0,0,0,530,110.48Z"/><path class="cls-1" d="M536.35,110.7a2,2,0,0,0,.46,1.46,1.9,1.9,0,0,0,1.42.48h.34v1.47h-.42q-3.48,0-3.48-3.33v-8h-1.62v-1.3h1.62V98.8l1.66-.76v3.4h2.42v1.3h-2.42Z"/><path class="cls-1" d="M542.52,97.24v2.2h-1.69v-2.2Zm0,4.21V114.1h-1.66V101.45Z"/><path class="cls-1" d="M544.82,110v-4.43a4.57,4.57,0,0,1,1-3.27,3.72,3.72,0,0,1,2.81-1,3.6,3.6,0,0,1,2.75,1.05,4.61,4.61,0,0,1,1,3.25V110a4.61,4.61,0,0,1-1,3.25,3.6,3.6,0,0,1-2.75,1.05,3.73,3.73,0,0,1-2.81-1A4.57,4.57,0,0,1,544.82,110Zm5.9-.2v-4a3.84,3.84,0,0,0-.54-2.31,1.86,1.86,0,0,0-1.57-.7,1.91,1.91,0,0,0-1.58.69,3.77,3.77,0,0,0-.55,2.33v4a3.77,3.77,0,0,0,.55,2.33,1.91,1.91,0,0,0,1.58.69,1.86,1.86,0,0,0,1.57-.7A3.85,3.85,0,0,0,550.72,109.79Z"/><path class="cls-1" d="M556.16,101.45v1.15a2.7,2.7,0,0,1,1-1,3,3,0,0,1,1.47-.37,2.92,2.92,0,0,1,2.35,1,4.06,4.06,0,0,1,.83,2.72v9.15h-1.66V105a2.41,2.41,0,0,0-.54-1.69,2,2,0,0,0-2.88,0,2.39,2.39,0,0,0-.55,1.68v9.08h-1.66V101.45Z"/><path class="cls-1" d="M563.87,110.7v-.15h1.54v.15a2.06,2.06,0,0,0,.59,1.58,2.27,2.27,0,0,0,1.62.55,2.24,2.24,0,0,0,1.53-.5,2.29,2.29,0,0,0,.18-2.8,3.49,3.49,0,0,0-1.32-.86l-1.59-.66a3.42,3.42,0,0,1-2.42-3.3,3.3,3.3,0,0,1,1-2.51,3.7,3.7,0,0,1,2.66-.94,3.58,3.58,0,0,1,2.63,1,3.45,3.45,0,0,1,1,2.57v.32h-1.54v-.15a2.37,2.37,0,0,0-.54-1.66,2.3,2.3,0,0,0-3-.09,1.82,1.82,0,0,0-.53,1.38,2,2,0,0,0,.34,1.15,2.74,2.74,0,0,0,1.2.86l1.59.66a5.06,5.06,0,0,1,1.95,1.3,3.18,3.18,0,0,1,.65,2.13,3.48,3.48,0,0,1-1,2.67,3.93,3.93,0,0,1-2.8,1,3.71,3.71,0,0,1-2.7-1A3.51,3.51,0,0,1,563.87,110.7Z"/><path class="cls-1" d="M581.35,97.21a4.42,4.42,0,0,1,3.3,1.27,5.29,5.29,0,0,1,1.25,3.84V109a5.29,5.29,0,0,1-1.25,3.83,4.39,4.39,0,0,1-3.3,1.29H577V97.21Zm2,14.42a4.06,4.06,0,0,0,.72-2.62V102.5a4.51,4.51,0,0,0-.71-2.78,2.44,2.44,0,0,0-2.06-.92h-2.59v13.71h2.59A2.49,2.49,0,0,0,583.39,111.63Z"/><path class="cls-1" d="M589.55,109.77a3.81,3.81,0,0,0,.58,2.37,2,2,0,0,0,1.63.71q2,0,2-2.52v-.1h1.64v.07a4.15,4.15,0,0,1-1,3,3.61,3.61,0,0,1-2.73,1q-3.82,0-3.82-4.5v-4.09a4.9,4.9,0,0,1,1-3.33,3.48,3.48,0,0,1,2.75-1.13,3.56,3.56,0,0,1,2.78,1.13,4.83,4.83,0,0,1,1,3.33v2.57h-5.87Zm0-4V107h4.23v-1.3a3.67,3.67,0,0,0-.55-2.28,1.91,1.91,0,0,0-1.58-.69,1.86,1.86,0,0,0-1.57.7A3.84,3.84,0,0,0,589.55,105.76Z"/><path class="cls-1" d="M597.11,110.7v-.15h1.54v.15a2.06,2.06,0,0,0,.59,1.58,2.27,2.27,0,0,0,1.62.55,2.24,2.24,0,0,0,1.53-.5,2.29,2.29,0,0,0,.18-2.8,3.49,3.49,0,0,0-1.32-.86l-1.59-.66a3.42,3.42,0,0,1-2.42-3.3,3.3,3.3,0,0,1,1-2.51,3.7,3.7,0,0,1,2.66-.94,3.58,3.58,0,0,1,2.63,1,3.45,3.45,0,0,1,1,2.57v.32h-1.54v-.15a2.37,2.37,0,0,0-.54-1.66,2.3,2.3,0,0,0-3-.09,1.82,1.82,0,0,0-.53,1.38,2,2,0,0,0,.34,1.15,2.74,2.74,0,0,0,1.2.86l1.59.66a5.06,5.06,0,0,1,1.95,1.3,3.18,3.18,0,0,1,.65,2.13,3.48,3.48,0,0,1-1,2.67,3.93,3.93,0,0,1-2.8,1,3.71,3.71,0,0,1-2.7-1A3.51,3.51,0,0,1,597.11,110.7Z"/><path class="cls-1" d="M608.25,97.24v2.2h-1.69v-2.2Zm0,4.21V114.1h-1.66V101.45Z"/><path class="cls-1" d="M610.7,114.86h1.59a1.83,1.83,0,0,0,.56,1.29,2,2,0,0,0,1.39.48,1.79,1.79,0,0,0,1.57-.69,3.59,3.59,0,0,0,.49-2.08V112a2.66,2.66,0,0,1-2.42,1.32,3,3,0,0,1-2.41-1.06,4.83,4.83,0,0,1-.92-3.22v-3.5a4.82,4.82,0,0,1,.92-3.22,3,3,0,0,1,2.41-1.07,2.62,2.62,0,0,1,2.42,1.42v-1.22H618v12.26a5,5,0,0,1-.92,3.18,3.34,3.34,0,0,1-2.8,1.17,3.64,3.64,0,0,1-2.58-.86A3.21,3.21,0,0,1,610.7,114.86Zm5.6-6v-3.08q0-3-2.1-3a1.73,1.73,0,0,0-1.46.69,3.86,3.86,0,0,0-.53,2.3v3.11a4,4,0,0,0,.5,2.3,1.72,1.72,0,0,0,1.48.68,1.8,1.8,0,0,0,1.57-.76A3.84,3.84,0,0,0,616.3,108.84Z"/><path class="cls-1" d="M622,101.45v1.15a2.7,2.7,0,0,1,1-1,3,3,0,0,1,1.47-.37,2.92,2.92,0,0,1,2.35,1,4.07,4.07,0,0,1,.83,2.72v9.15H626V105a2.41,2.41,0,0,0-.54-1.69,2,2,0,0,0-2.88,0A2.39,2.39,0,0,0,622,105v9.08h-1.66V101.45Z"/><path class="cls-1" d="M635.59,97.21v15.3h5.73v1.59h-7.51V97.21Z"/><path class="cls-1" d="M649.4,104.92v9.18h-1.59v-1.17a2.83,2.83,0,0,1-2.57,1.37,3,3,0,0,1-2.4-1,4.2,4.2,0,0,1-.83-2.78,3.62,3.62,0,0,1,1-2.68,3.8,3.8,0,0,1,2.8-1h2v-2q0-2.13-2-2.13a1.89,1.89,0,0,0-1.39.49,1.85,1.85,0,0,0-.49,1.37v.2h-1.57v-.22a3.16,3.16,0,0,1,.94-2.42,3.52,3.52,0,0,1,2.51-.88,3.56,3.56,0,0,1,2.69,1A3.74,3.74,0,0,1,649.4,104.92Zm-1.66,5.56v-2.35h-1.79q-2.28,0-2.28,2.37t2,2.35a2,2,0,0,0,1.55-.62A2.56,2.56,0,0,0,647.74,110.48Z"/><path class="cls-1" d="M653.44,114.1h-1.66V97.21h1.66v5.46a2.63,2.63,0,0,1,2.4-1.42,3.06,3.06,0,0,1,2.44,1.07,4.87,4.87,0,0,1,.92,3.24V110a4.87,4.87,0,0,1-.92,3.24,3,3,0,0,1-2.41,1.06,2.68,2.68,0,0,1-2.42-1.35Zm4.09-4.31v-4q0-3-2-3a1.79,1.79,0,0,0-1.57.77,4,4,0,0,0-.54,2.26v4A3.84,3.84,0,0,0,654,112a1.8,1.8,0,0,0,1.57.76,1.71,1.71,0,0,0,1.48-.7A4.07,4.07,0,0,0,657.53,109.79Z"/><path class="cls-1" d="M661.13,110v-4.43a4.57,4.57,0,0,1,1-3.27,3.72,3.72,0,0,1,2.81-1,3.6,3.6,0,0,1,2.75,1.05,4.61,4.61,0,0,1,1,3.25V110a4.61,4.61,0,0,1-1,3.25,3.6,3.6,0,0,1-2.75,1.05,3.73,3.73,0,0,1-2.81-1A4.57,4.57,0,0,1,661.13,110Zm5.9-.2v-4a3.85,3.85,0,0,0-.54-2.31,1.86,1.86,0,0,0-1.57-.7,1.91,1.91,0,0,0-1.58.69,3.77,3.77,0,0,0-.55,2.33v4a3.77,3.77,0,0,0,.55,2.33,1.91,1.91,0,0,0,1.58.69,1.86,1.86,0,0,0,1.57-.7A3.85,3.85,0,0,0,667,109.79Z"/><path class="cls-1" d="M672.46,101.45v1.25a2.67,2.67,0,0,1,1.1-1.09,3.3,3.3,0,0,1,1.54-.36,3.75,3.75,0,0,1,.91.1V103a3.87,3.87,0,0,0-1.22-.22,2.22,2.22,0,0,0-1.64.64,2.34,2.34,0,0,0-.64,1.74v9h-1.66V101.45Z"/><path class="cls-1" d="M684.21,104.92v9.18h-1.59v-1.17A2.83,2.83,0,0,1,680,114.3a3,3,0,0,1-2.4-1,4.2,4.2,0,0,1-.83-2.78,3.62,3.62,0,0,1,1-2.68,3.8,3.8,0,0,1,2.8-1h2v-2q0-2.13-2-2.13a1.89,1.89,0,0,0-1.39.49,1.85,1.85,0,0,0-.49,1.37v.2h-1.57v-.22a3.16,3.16,0,0,1,.94-2.42,3.52,3.52,0,0,1,2.51-.88,3.56,3.56,0,0,1,2.69,1A3.74,3.74,0,0,1,684.21,104.92Zm-1.66,5.56v-2.35h-1.79q-2.28,0-2.28,2.37t2,2.35a2,2,0,0,0,1.55-.62A2.56,2.56,0,0,0,682.55,110.48Z"/><path class="cls-1" d="M688.93,110.7a2,2,0,0,0,.46,1.46,1.9,1.9,0,0,0,1.42.48h.34v1.47h-.42q-3.48,0-3.48-3.33v-8h-1.62v-1.3h1.62V98.8l1.66-.76v3.4h2.42v1.3h-2.42Z"/><path class="cls-1" d="M692.8,110v-4.43a4.57,4.57,0,0,1,1-3.27,3.72,3.72,0,0,1,2.81-1,3.6,3.6,0,0,1,2.75,1.05,4.61,4.61,0,0,1,1,3.25V110a4.61,4.61,0,0,1-1,3.25,3.6,3.6,0,0,1-2.75,1.05,3.73,3.73,0,0,1-2.81-1A4.57,4.57,0,0,1,692.8,110Zm5.9-.2v-4a3.85,3.85,0,0,0-.54-2.31,1.86,1.86,0,0,0-1.57-.7,1.91,1.91,0,0,0-1.58.69,3.77,3.77,0,0,0-.55,2.33v4a3.77,3.77,0,0,0,.55,2.33,1.91,1.91,0,0,0,1.58.69,1.86,1.86,0,0,0,1.57-.7A3.85,3.85,0,0,0,698.7,109.79Z"/><path class="cls-1" d="M704.14,101.45v1.25a2.67,2.67,0,0,1,1.1-1.09,3.3,3.3,0,0,1,1.54-.36,3.75,3.75,0,0,1,.91.1V103a3.87,3.87,0,0,0-1.22-.22,2.22,2.22,0,0,0-1.64.64,2.34,2.34,0,0,0-.64,1.74v9h-1.66V101.45Z"/><path class="cls-1" d="M712.68,115.3a3.22,3.22,0,0,1-1.25,2,4.4,4.4,0,0,1-2.42.58h-.24v-1.49h.42a2.5,2.5,0,0,0,1.47-.37,2,2,0,0,0,.71-1.22l.1-.39L708,101.45h1.81l2.4,9.67,2.33-9.67h1.81Z"/><circle class="cls-2" cx="67.09" cy="22.02" r="6.09"/><circle class="cls-3" cx="43.01" cy="4.35" r="4.35"/><circle class="cls-4" cx="88.09" cy="67.09" r="6.09"/><circle class="cls-5" cx="105.75" cy="43.01" r="4.35"/><circle class="cls-6" cx="88.09" cy="43.01" r="6.83"/><path class="cls-7" d="M47.08,60.57a6.35,6.35,0,0,1-2.91-5.41v-.21a6.35,6.35,0,0,1,2.91-5.41,7.69,7.69,0,0,0-.36-13.26,4.83,4.83,0,0,1-.25-8.38,6.83,6.83,0,1,0-6.9,0A4.68,4.68,0,0,1,41.86,32v.08a4.7,4.7,0,0,1-2.45,4.17,7.68,7.68,0,0,0-.58,13.23,6.54,6.54,0,0,1,3,5.45v.42a6.3,6.3,0,0,1-3,5.28,7.69,7.69,0,1,0,8.2,0ZM38.66,43A4.35,4.35,0,1,1,43,47.37,4.35,4.35,0,0,1,38.66,43Z"/><path class="cls-8" d="M70.49,82.17a4.37,4.37,0,0,1-2.25-3.77v-.52a4.48,4.48,0,0,1,2.4-4,7.69,7.69,0,0,0,.51-13.34,6,6,0,0,1-2.91-5.1v-.69a6.3,6.3,0,0,1,3-5.28,7.68,7.68,0,0,0,3.51-7.23,8.07,8.07,0,0,0-7.16-6.92A7.69,7.69,0,0,0,63,49.54a6,6,0,0,1,2.91,5.1v.69A6.18,6.18,0,0,1,63,60.57a7.68,7.68,0,0,0,.5,13.32,4.43,4.43,0,0,1,2.41,3.9v.49a4.57,4.57,0,0,1-2.31,3.92,6.83,6.83,0,1,0,6.87,0ZM62.74,67.09a4.35,4.35,0,1,1,4.35,4.35A4.35,4.35,0,0,1,62.74,67.09Z"/><circle class="cls-9" cx="22.02" cy="43.01" r="6.09"/><circle class="cls-10" cx="4.35" cy="67.09" r="4.35"/><circle class="cls-11" cx="22.02" cy="67.09" r="6.83"/><circle class="cls-12" cx="43.01" cy="88.09" r="6.09"/><circle class="cls-13" cx="67.09" cy="105.75" r="4.35"/><path class="cls-14" d="M151.28,62.7a40.88,40.88,0,0,1-4.18,4.68l-.44.43h3l.07-.07a36.39,36.39,0,0,0,2.82-3.12v1.86H163.9v-2H152.67q.47-.59.92-1.2a39.32,39.32,0,0,0,3.14-5h3.75a27.75,27.75,0,0,0,2.81,5.13A28.74,28.74,0,0,0,167,67.7l.07.07H170l-.43-.43c-.82-.82-1.58-1.62-2.26-2.36s-1.29-1.48-1.84-2.21a21.73,21.73,0,0,1-1.51-2.28c-.39-.68-.77-1.43-1.14-2.22h5.61v-2H157.71c.22-.48.43-1,.62-1.44s.45-1.19.63-1.8l.1-.32h-2.43l-.06.17c-.21.61-.43,1.2-.66,1.77s-.45,1.08-.71,1.62h-7v2h5.93A36.62,36.62,0,0,1,151.28,62.7Z"/><path class="cls-14" d="M147.34,72.11h5.92l-1.39,2.48a2.35,2.35,0,0,0-.28,2.15,2.38,2.38,0,0,0,2.33,1.11h8.83a1.56,1.56,0,0,1,1.19.41,1.51,1.51,0,0,1,.4,1.1v4.1a1.38,1.38,0,0,1-1.59,1.59h-7.84L156.13,87h6.63a4,4,0,0,0,2.84-1,3.84,3.84,0,0,0,.73-1.19,4.47,4.47,0,0,0,.27-1.64V79.44a3.57,3.57,0,0,0-1.11-2.81,3,3,0,0,0-1.24-.6,6.64,6.64,0,0,0-1.5-.16H154c-.15,0-.17,0-.18-.07a.24.24,0,0,1,0-.23l1.84-3.46h13.35v-2H147.34Z"/><path class="cls-14" d="M143.74,66.91a3.84,3.84,0,0,0,2.66-1,4.08,4.08,0,0,0,1.13-3.07V57.09a4.2,4.2,0,0,0-.84-2.81,3.47,3.47,0,0,0-2.85-1.11H139.5a3.25,3.25,0,0,0-2.57,1,4.26,4.26,0,0,0-.92,2.9v6.06a3.76,3.76,0,0,0,1.09,3,3.6,3.6,0,0,0,2.56.81h1.78V83.44l-1.62.47c-.49.14-1,.26-1.48.38V69.42H136V84.83l-.49.09-.68.14-.19,0v2.06l.29-.05c1-.18,2.17-.43,3.36-.73s2.39-.63,3.55-1,2.3-.71,3.37-1.06,2-.69,2.79-1l.16-.06v-2.1l-.34.13c-.6.24-1.29.48-2,.74l-2.07.68V75.08h5.32v-2h-5.32ZM138.3,56.58a1.73,1.73,0,0,1,.28-1,1.06,1.06,0,0,1,.91-.35h4.38a1.29,1.29,0,0,1,1,.37,1.51,1.51,0,0,1,.34,1.06v6.76a1.4,1.4,0,0,1-.45,1.09,1.6,1.6,0,0,1-1.14.42h-3.87c-1,0-1.47-.44-1.47-1.39Z"/><path class="cls-14" d="M198,57.34a24.09,24.09,0,0,1-1,2.43h-.9a4.17,4.17,0,0,0-3.24,1.33,4.28,4.28,0,0,0-1,2.94V75.5a4.23,4.23,0,0,0,1,3,3.88,3.88,0,0,0,3,1.18h7a3.87,3.87,0,0,0,3-1.21,4.13,4.13,0,0,0,1-2.91V64a4.27,4.27,0,0,0-1.14-3.16,4.62,4.62,0,0,0-3.18-1h-3.21a22.6,22.6,0,0,0,.86-2.25c.26-.81.5-1.62.7-2.41h7.09V53.16H190v1.95h8.69C198.51,55.88,198.29,56.63,198,57.34Zm-3.85,16.14h10.44v2.37a2.24,2.24,0,0,1-.46,1.34,1.35,1.35,0,0,1-1.17.6h-7a1.69,1.69,0,0,1-1.3-.55,1.89,1.89,0,0,1-.52-1.35Zm10.44-5.94v4.15H194.19V67.54Zm0-1.79H194.19V63.58a1.94,1.94,0,0,1,.54-1.36,1.65,1.65,0,0,1,1.28-.58h6.84a1.65,1.65,0,0,1,1.3.52,2,2,0,0,1,.48,1.41Z"/><path class="cls-14" d="M195.77,80.36a24.93,24.93,0,0,1-2.52,3.06,29.72,29.72,0,0,1-3.68,3.22l-.6.45h3.4l.06,0a14.39,14.39,0,0,0,3.28-3,31.78,31.78,0,0,0,2.5-3.45l.24-.38h-2.61Z"/><path class="cls-14" d="M209,86.65c-1.19-1.14-2.26-2.24-3.19-3.27a20.25,20.25,0,0,1-2.24-2.93l-.07-.12h-2.67l.25.39A33.47,33.47,0,0,0,203.56,84a27.11,27.11,0,0,0,2.92,3l.07.06h2.94Z"/><path class="cls-14" d="M175.95,66.9a29.35,29.35,0,0,0,2.4-5.38c.54-1.7,1-3.36,1.37-4.93.19-.9.64-1.32,1.44-1.32h2.66a1.88,1.88,0,0,1,1,.24,1.53,1.53,0,0,1,.57.91c.42,1.56.94,3.3,1.57,5.17a41,41,0,0,0,2.2,5.35l.07.14h2.6l-.19-.37a41.94,41.94,0,0,1-2.43-5.58c-.63-1.82-1.17-3.53-1.58-5.08a3.77,3.77,0,0,0-1.29-2.16,2.75,2.75,0,0,0-1.16-.54,7.11,7.11,0,0,0-1.5-.14h-2.19a4.4,4.4,0,0,0-2.82.76,4.21,4.21,0,0,0-1.22,2.32c-.21.86-.43,1.71-.66,2.53s-.5,1.67-.8,2.51-.65,1.7-1.06,2.58-.9,1.81-1.44,2.76l-.21.37h2.61Z"/><path class="cls-14" d="M184.61,80.08c.77-.84,1.51-1.72,2.2-2.64a28,28,0,0,0,1.87-2.8,13,13,0,0,0,1.24-2.75h0a2.26,2.26,0,0,0-.24-2.21,3,3,0,0,0-2.51-.88H174.5v2.1h12.6c.18,0,.41,0,.48.16a.77.77,0,0,1-.05.59,19,19,0,0,1-2.62,4.61,33.14,33.14,0,0,1-3.67,4.09c-.51-.7-1-1.41-1.43-2.1s-.95-1.55-1.36-2.29l-.07-.13h-2.64l.2.37a48.45,48.45,0,0,0,3.65,5.7A39.3,39.3,0,0,0,184.08,87l.07.07h3.23l-.51-.44c-.77-.67-1.54-1.41-2.29-2.19a30.39,30.39,0,0,1-2-2.32C183.23,81.53,183.9,80.84,184.61,80.08Z"/><path class="cls-14" d="M183.92,63.23c-.42-1.12-.8-2.23-1.11-3.28l-.05-.18h-2.44l.09.32c.34,1.17.72,2.34,1.14,3.46a26.34,26.34,0,0,0,1.38,3.12l.07.13h2.56l-.2-.37A26.75,26.75,0,0,1,183.92,63.23Z"/><path class="cls-14" d="M242.25,55.59a17.24,17.24,0,0,0,1.11,2.1l.07.12h2.47l-.24-.38c-.51-.82-.95-1.56-1.3-2.21a10.81,10.81,0,0,1-.82-1.95l-.05-.18h-2.32l.15.35Q241.74,54.45,242.25,55.59Z"/><path class="cls-14" d="M236.58,79.84l.18-.06V77.57l-.33.11c-2.22.72-4.36,1.37-6.36,1.91s-4.18,1.07-6.47,1.56l-.2,0v2.19l.3-.06c2.42-.52,4.67-1.07,6.7-1.65S234.49,80.49,236.58,79.84Z"/><path class="cls-14" d="M224.6,77.49V75.26l-.36.17L221.7,76.6l-2,.9V63.83h4.46V61.68h-4.46v-9h-2.26v9h-4.34v2.14h4.34V78.45c-.65.26-1.31.52-2,.75l-2.2.78-.17.06v2.22l.34-.12,3-1.12c.95-.36,1.85-.72,2.69-1.08s1.73-.74,2.6-1.14l2.76-1.25Z"/><path class="cls-14" d="M244,84.86a1.35,1.35,0,0,1-1.2-.67,4.76,4.76,0,0,1-.67-1.59q-.2-1-.39-2.2t-.38-2.46a31.18,31.18,0,0,0,1.51-2.78c.48-1,.95-2.11,1.38-3.29s.85-2.46,1.24-3.83.78-2.89,1.18-4.52l.07-.31h-2.36l0,.2c-.49,2.35-1,4.5-1.62,6.37a29,29,0,0,1-1.86,4.59c-.25-2-.47-4-.68-6.15-.22-2.3-.41-4.59-.57-6.82h7.49V59.3h-7.63q-.07-1.71-.13-3.28c0-1.11-.06-2.16-.06-3.12v-.25H237v.25c0,1,0,2.06.08,3.16s.1,2.11.15,3.24h-13v2.1H237.4q.15,2,.31,4c.12,1.43.25,2.87.39,4.28s.3,2.8.47,4.13.32,2.53.48,3.68a33.17,33.17,0,0,1-3.59,4.38,68.31,68.31,0,0,1-5.1,4.71l-.52.44H233l.07-.06c1.41-1.17,2.68-2.32,3.77-3.4a31.83,31.83,0,0,0,2.64-3c.13.74.25,1.42.38,2s.25,1.1.37,1.57a4.45,4.45,0,0,0,.56,1.33A3.26,3.26,0,0,0,242,86.62,4.25,4.25,0,0,0,244,87h3l1.17-2.14Z"/><path class="cls-14" d="M231.81,75.55a3.63,3.63,0,0,0,2.43-.76h0a3.45,3.45,0,0,0,1.06-2.73V67.84a3.37,3.37,0,0,0-1-2.6,3.54,3.54,0,0,0-2.52-.81h-3a2.92,2.92,0,0,0-2.38,1.11,3.63,3.63,0,0,0-.8,2.31v4.22A3.17,3.17,0,0,0,229,75.55Zm1.31-3.22a1,1,0,0,1-.36.83,1.15,1.15,0,0,1-.75.33h-3.13a1.22,1.22,0,0,1-1.16-1.16V67.72a1.35,1.35,0,0,1,.34-.84,1,1,0,0,1,.82-.39H232a.94.94,0,0,1,.75.38,1.31,1.31,0,0,1,.33.86Z"/><path class="cls-14" d="M263,76.44l.23-.38h-2.78l-.07.14a18.69,18.69,0,0,1-1.54,2.56A20.59,20.59,0,0,1,257,81a21.21,21.21,0,0,1-2.78,2.47c-1,.75-2.1,1.5-3.27,2.26l-.71.46h4.06l.07,0c1-.76,1.9-1.44,2.61-2a21.26,21.26,0,0,0,2-1.9,26.44,26.44,0,0,0,2-2.47C261.5,78.84,262.2,77.74,263,76.44Z"/><path class="cls-14" d="M287.44,85.72c-1.11-.7-2.16-1.42-3.13-2.16a26.31,26.31,0,0,1-2.69-2.34,20.32,20.32,0,0,1-3.63-5l-.07-.13h-2.78l.23.38c.81,1.33,1.53,2.45,2.14,3.33a22.12,22.12,0,0,0,2,2.49,26.83,26.83,0,0,0,2,1.85c.7.6,1.56,1.27,2.55,2l.07,0h4.08Z"/><path class="cls-14" d="M282.18,73l.9.8a14,14,0,0,0,1.19.92l.06,0h3.31l-.62-.45a30.21,30.21,0,0,1-4.55-4.05A43,43,0,0,1,279,65.93l-.07-.11h-2.63l.26.39c.73,1.09,1.51,2.19,2.33,3.28a24.12,24.12,0,0,0,2.41,2.71H258.79c1.47-.63,3-1.34,4.67-2.1,2.05-1,4.16-2,6.28-3.05s4.26-2.2,6.36-3.37,4.12-2.37,6-3.56l.72-.46h-3.7l-.06,0c-1.13.67-2.32,1.34-3.53,2s-2.42,1.31-3.63,1.94H259.16l2.19-1.07c1.17-.59,2.38-1.24,3.59-1.94s2.42-1.45,3.59-2.19,2.2-1.48,3.13-2.2c2.27-.23,4.49-.47,6.6-.72s4.21-.5,6.12-.76l.22,0V52.61l-.29,0c-1.23.21-2.67.41-4.27.6s-3.3.39-5.1.59-3.66.38-5.53.55-3.72.32-5.56.45-3.58.24-5.23.33-3.19.15-4.52.18h-.25v2.1h.26c2.3-.05,4.7-.16,7.14-.33,2.13-.15,4.33-.32,6.54-.52-.67.45-1.38.91-2.13,1.37-1.06.65-2.17,1.28-3.29,1.89S260.09,61,259,61.59s-2.21,1.05-3.24,1.53a1.49,1.49,0,0,0-.63.68,1.29,1.29,0,0,0-.06,1,1.37,1.37,0,0,0,.48.57,1.63,1.63,0,0,0,1,.24H268c-2.1,1-4.2,2-6.28,3-2.42,1.13-4.77,2.19-7,3.17a1.2,1.2,0,0,0-.73,1.31,1.25,1.25,0,0,0,.34.71,1.26,1.26,0,0,0,1,.33H268.1v9.6a1.18,1.18,0,0,1-.33.93,1.29,1.29,0,0,1-.91.31h-6.24l1.51,2h4.78a3.75,3.75,0,0,0,2.4-.81,3.69,3.69,0,0,0,1.1-2.84V74.1h10.93Z"/><path class="cls-14" d="M292.82,64.26h5.5c-.39.48-.83,1-1.31,1.58q-.94,1.09-1.89,2.16l-1.86,2.07q-.9,1-1.55,1.69a1.49,1.49,0,0,0-.44.84,1.64,1.64,0,0,0,.07.83,1.34,1.34,0,0,0,1.37.91h9l.65-1.21c.08.16.16.33.25.49q.26.48.54.91l.07.12h2.61l-.23-.38a36.66,36.66,0,0,1-1.86-3.44,27.52,27.52,0,0,1-1.35-3.51l-.06-.18H300l.12.34q.55,1.49,1,2.76c.28.72.57,1.41.87,2.06h-7.77c.61-.64,1.29-1.39,2.08-2.28,1-1.07,1.95-2.22,3-3.43s2-2.42,3-3.64,1.89-2.34,2.66-3.35l.31-.4h-3l-.07.11c-.29.41-.64.89-1,1.41s-.79,1-1.21,1.49h-6c.42-.45.86-1,1.33-1.52.63-.75,1.28-1.55,1.94-2.39l2-2.62c.7-.91,1.36-1.81,2-2.69l.28-.39h-2.92l-.07.11c-.46.69-1,1.45-1.6,2.28s-1.23,1.66-1.83,2.44-1.24,1.57-1.85,2.3-1.16,1.35-1.66,1.87a1.56,1.56,0,0,0-.35.81,1.59,1.59,0,0,0,.11.88A1.44,1.44,0,0,0,292.82,64.26Z"/><path class="cls-14" d="M292.37,76c-.08,1.78-.21,3.64-.41,5.52a24.67,24.67,0,0,1-1.1,5.24l-.11.33h2.33l.06-.17a28.82,28.82,0,0,0,1.06-5.15c.23-1.91.38-3.84.43-5.75v-.26h-2.25Z"/><path class="cls-14" d="M319.37,83V70.78h1.78l.92-1.12c.44.64.84,1.19,1.19,1.65l.07.1h2.92l-.34-.41a29.77,29.77,0,0,1-1.82-2.46c-.59-.89-1.17-1.79-1.71-2.69s-1.06-1.79-1.52-2.65-.85-1.66-1.16-2.38l-.06-.15h-2.54l.16.35c.57,1.27,1.27,2.65,2.08,4.1.72,1.3,1.46,2.53,2.18,3.67H307.8q.72-.89,1.53-1.94c.66-.85,1.33-1.75,2-2.68s1.3-1.84,1.92-2.76,1.11-1.68,1.59-2.43h10.74V56.84h-9a20.12,20.12,0,0,1-.76-1.9c-.22-.65-.44-1.35-.64-2.1l-.05-.18H312.8l.1.32q.35,1.14.71,2.18c.2.57.4,1.14.61,1.68h-8.75V59h6.6c-.39.62-.83,1.29-1.32,2q-.9,1.29-1.83,2.58c-.62.85-1.26,1.7-1.89,2.51s-1.22,1.54-1.73,2.16a1.48,1.48,0,0,0-.37.84,1.57,1.57,0,0,0,.09.78,1.47,1.47,0,0,0,.51.66,1.45,1.45,0,0,0,.89.28H310c0,1.49,0,2.87,0,4.12a20.5,20.5,0,0,1-.52,3.74,16.15,16.15,0,0,1-1.62,4.1,18.27,18.27,0,0,1-3,3.83l-.43.43h2.89l.07-.07a16.32,16.32,0,0,0,2.76-3.57,15.82,15.82,0,0,0,1.53-4,22.46,22.46,0,0,0,.59-4.11c.07-1.36.09-2.87,0-4.49H317V83A4.14,4.14,0,0,0,318,85.9a3.82,3.82,0,0,0,3,1.1h4.22l1.07-2.14h-5.17C319.91,84.86,319.37,84.26,319.37,83Z"/><path class="cls-14" d="M299,81.3c-.16-1.76-.25-3.55-.27-5.34v-.25h-2.22V76c0,1.89.1,3.75.22,5.52a36.1,36.1,0,0,0,.77,5.35l0,.2h2.3l-.06-.3A52.85,52.85,0,0,1,299,81.3Z"/><path class="cls-14" d="M305.17,85.35c-.52-1.65-.93-3.23-1.25-4.71a36.8,36.8,0,0,1-.66-4.7l0-.23H301l0,.27a46.86,46.86,0,0,0,1.85,9.51l.05.18h2.36Z"/><rect class="cls-14" x="330.28" y="85.29" width="34.42" height="1.75"/><path class="cls-14" d="M364.93,68.64h-5.4a1.12,1.12,0,0,1-.84-.32,1.29,1.29,0,0,1-.32-1v-4.2h-2.22v4.08a3.37,3.37,0,0,0,.83,2.44,3.6,3.6,0,0,0,2.66.86h4.17Z"/><path class="cls-14" d="M334.75,70.7h7.1l1.31-1.35a14.68,14.68,0,0,0,1,1.34l.07.09h5.14l.07-.06a38.26,38.26,0,0,0,4-3.89,20.06,20.06,0,0,0,3.12-4.8h8.14V60.16h-7.43a17,17,0,0,0,.67-2.4,15.44,15.44,0,0,0,.28-2.81h5.79V53.13h-17V55h9a14.22,14.22,0,0,1-.29,2.73,16.59,16.59,0,0,1-.73,2.48h-4.71a.42.42,0,0,1-.31-.1s0,0,0-.21l2-4.3h-2.35l-1.86,4a1.55,1.55,0,0,0,.13,1.79,2.15,2.15,0,0,0,1.73.71h4.59a19.29,19.29,0,0,1-1.38,2.24,25,25,0,0,1-1.84,2.28c-.64.71-1.32,1.39-2,2s-1.39,1.22-2.06,1.77l-.21.17-.11-.13a19.2,19.2,0,0,1-2-2.91,15.61,15.61,0,0,1-1.21-2.79l-.06-.18h-2.33l.11.33a24.74,24.74,0,0,0,1.28,3q.27.54.57,1h-7.95a1.48,1.48,0,0,1-1.25-.43,2,2,0,0,1-.34-1.2V63.86H342a6.48,6.48,0,0,0,1.69-.2,2.47,2.47,0,0,0,1.28-.78,3.59,3.59,0,0,0,.77-2.47v-4.1a2.94,2.94,0,0,0-1-2.5,4.18,4.18,0,0,0-2.66-.72h-7.39a3.17,3.17,0,0,0-3.53,3.42V67.13a3.68,3.68,0,0,0,.75,2.46A3.4,3.4,0,0,0,334.75,70.7ZM342,62.11h-8.66V59.37h10.21v1.39a1.29,1.29,0,0,1-.35,1.05A2,2,0,0,1,342,62.11Zm-8.66-4.46V56.31a1.58,1.58,0,0,1,.35-1.09,1.43,1.43,0,0,1,1.12-.38h7.35a1.64,1.64,0,0,1,1.05.3,1.33,1.33,0,0,1,.34,1.06v1.47Z"/><path class="cls-14" d="M337.49,72.35a4.19,4.19,0,0,0-3.06,1,3.26,3.26,0,0,0-.94,2.53V79.8a3.9,3.9,0,0,0,.71,2.38,3.31,3.31,0,0,0,1.25,1,4,4,0,0,0,1.77.38h20.4a3.77,3.77,0,0,0,3-1.14,3.71,3.71,0,0,0,.88-2.59V76.16a3.53,3.53,0,0,0-1.15-3,4.35,4.35,0,0,0-2.82-.8Zm-1.63,6.36h23.26v1.55a1.5,1.5,0,0,1-.42,1.06,1.31,1.31,0,0,1-1,.45h-20.4a1.29,1.29,0,0,1-1-.46,1.52,1.52,0,0,1-.42-1Zm1.35-4.61h20.64a1.17,1.17,0,0,1,.91.39,1.37,1.37,0,0,1,.36,1V77H335.86V75.42a1.23,1.23,0,0,1,.39-.93A1.33,1.33,0,0,1,337.22,74.1Z"/><path class="cls-14" d="M388.27,84.43V74.3H402v-2H388.27V62.54H403v-2H388.27V52.7H386v7.82h-9.82c.2-.73.38-1.49.54-2.24s.36-1.76.51-2.63l.05-.29H375l0,.2a48.37,48.37,0,0,1-1.91,7.13,37.25,37.25,0,0,1-3.22,6.85l-.23.38h2.58l.07-.12a31.66,31.66,0,0,0,1.87-3.62c.51-1.17,1-2.4,1.38-3.64H386v9.74H371.75v2H386V84.43H369.44v2h34.34v-2Z"/><path class="cls-14" d="M425.49,60.11h3.34l.06,0A5.22,5.22,0,0,0,431,55.7a.88.88,0,0,1,.26-.57.78.78,0,0,1,.58-.22h3.75c.78,0,.88.37.88.73v2a2.33,2.33,0,0,0,.58,1.58,2.18,2.18,0,0,0,1.67.67h3.19l1-1.75h-3.57a.72.72,0,0,1-.48-.16.5.5,0,0,1-.17-.41v-2a2.16,2.16,0,0,0-.76-1.76,2.88,2.88,0,0,0-1.88-.6h-4.61a2.62,2.62,0,0,0-1.92.73,2.21,2.21,0,0,0-.71,1.74,4.58,4.58,0,0,1-.69,2.28,5,5,0,0,1-1.84,1.73Z"/><path class="cls-14" d="M413.23,66.64l-.89.47H416l.07,0a15.37,15.37,0,0,0,2.46-2.21,7.48,7.48,0,0,0,1.06-1.6,19.79,19.79,0,0,0,1.82,2.15,10.6,10.6,0,0,0,2,1.62l.06,0h3.29L426,66.6a13.29,13.29,0,0,1-2.44-1.78c-.63-.6-1.24-1.23-1.8-1.88l-.07-.08h-1.88q.1-.23.19-.48h6V60.63h-5.56a11.62,11.62,0,0,0,.27-2.08h4.5V56.8h-8.34l.14-.36a8.16,8.16,0,0,0,.26-.81l.09-.32h-2.12l-.05.18a13.21,13.21,0,0,1-.88,2.28,18.83,18.83,0,0,1-1.2,2.1l-.26.39H415l.07-.1c.21-.29.4-.57.57-.83s.31-.49.47-.79h2.5a7.24,7.24,0,0,1-.22,2.08h-5.57v1.75h5a8.67,8.67,0,0,1-1.57,2.11A12.7,12.7,0,0,1,413.23,66.64Z"/><path class="cls-14" d="M408.45,72.74h12a8.24,8.24,0,0,1-.21,1.77h-5.67a3.71,3.71,0,0,0-2.8,1,4.1,4.1,0,0,0-1,2.95v4.81a3.63,3.63,0,0,0,1.15,3,4.22,4.22,0,0,0,2.66.76h22.2a4,4,0,0,0,2.75-.89,3.8,3.8,0,0,0,1.06-2.92V78.27a3.66,3.66,0,0,0-1.09-2.88,3.86,3.86,0,0,0-2.75-.89h-5.53V72.74h11.61V70.95H408.45Zm29.82,10.71v.06a1.74,1.74,0,0,1-.46,1.27,1.64,1.64,0,0,1-1.25.47H414.64a1.71,1.71,0,0,1-1.17-.41A1.4,1.4,0,0,1,413,83.7v-.26Zm-20.27-5a13.79,13.79,0,0,1-2.82,2.15l-.79.47h3.45l.06,0A11.89,11.89,0,0,0,420.2,79a9.56,9.56,0,0,0,1.64-2.75h7V77a3.15,3.15,0,0,0,1,2.49,3.36,3.36,0,0,0,2.4.81h6v1.38H413V78.08a1.9,1.9,0,0,1,.47-1.3,1.55,1.55,0,0,1,1.24-.52h4.88A8.82,8.82,0,0,1,418,78.49Zm20.27,0h-5.5a1.75,1.75,0,0,1-1.15-.37,1.27,1.27,0,0,1-.44-1.06v-.81h5.49a1.56,1.56,0,0,1,1.14.44,1.61,1.61,0,0,1,.45,1.23Zm-15.86-4a10.81,10.81,0,0,0,.18-1.77h6.3V74.5Z"/><path class="cls-14" d="M413,69.73h13.19l-.65.31h4.27l.11,0c1.42-.68,2.87-1.46,4.31-2.32.8.47,1.63.91,2.47,1.3s1.8.81,2.71,1.18l5.55,0-1.39-.49c-1.55-.54-3-1.11-4.22-1.67s-2.17-1-3.16-1.55c1.37-.93,2.8-2,4.25-3.07A1.43,1.43,0,0,0,441,62a1.59,1.59,0,0,0-.49-.88,1.48,1.48,0,0,0-1.05-.38H426.93V62.5h11s0,0,.07.09,0,.1-.11.21c-.57.47-1.19.93-1.84,1.37s-1.23.82-1.83,1.19c-.57-.33-1.13-.69-1.68-1.05s-1.17-.79-1.73-1.21l-.07,0h-3.3l.56.45c.76.6,1.53,1.18,2.3,1.71s1.3.9,2,1.32c-.8.46-1.65.92-2.51,1.38s-2,1.06-3.21,1.62V68H413.15a1.36,1.36,0,0,1-1-.38,1.13,1.13,0,0,1-.38-.82V56.35a1.48,1.48,0,0,1,.37-1,1.28,1.28,0,0,1,1-.4h13.38V53.16H413a3.22,3.22,0,0,0-2.7,1.15,2.89,2.89,0,0,0-.51,1,4.36,4.36,0,0,0-.17,1.2V66.66a2.89,2.89,0,0,0,.86,2.26A3.62,3.62,0,0,0,413,69.73Z"/><path class="cls-14" d="M463.68,84.67a2,2,0,0,1-.57-1.52V78.45h-2.3V83a4.19,4.19,0,0,0,1,2.94,3.9,3.9,0,0,0,3,1.1h9.87l1.14-1.79H465.05A1.92,1.92,0,0,1,463.68,84.67Z"/><path class="cls-14" d="M482.28,86.35a23.73,23.73,0,0,1-2.77-3.6,20.42,20.42,0,0,1-1.68-3.36l-.06-.16h-2.35l.15.35c.34.78.67,1.49,1,2.12s.64,1.23,1,1.77.67,1.09,1,1.6.76,1.05,1.2,1.6l.08.09h2.84Z"/><path class="cls-14" d="M451.86,76.12V58.89a1.67,1.67,0,0,1,.38-1.18,1.5,1.5,0,0,1,1.16-.41H481.8V55.51H467.12A13.89,13.89,0,0,1,466,54.1c-.35-.52-.63-1-.83-1.31l-.07-.13h-2.57l.17.36a11,11,0,0,0,.88,1.5c.25.36.49.7.71,1h-11a3.62,3.62,0,0,0-2.85,1.14,3.88,3.88,0,0,0-.84,2.63V76.43c0,.9,0,1.77-.08,2.58a23.85,23.85,0,0,1-.27,2.37,15.69,15.69,0,0,1-.69,2.54,20.52,20.52,0,0,1-1.24,2.7l-.2.37h2.5l.07-.15a24.39,24.39,0,0,0,1.7-5.29,22.21,22.21,0,0,0,.34-2.57C451.83,78.1,451.86,77.13,451.86,76.12Z"/><path class="cls-14" d="M481.76,75.56h-7.93V72.7h6.57V70.91h-6.57V68h6.64V66.26h-6.64V63.4h7.62V61.61h-7.86c-.36-.5-.69-1-1-1.52a14.31,14.31,0,0,1-.79-1.5l-.07-.15h-2.4l.18.36a29.11,29.11,0,0,0,1.56,2.81h-5.61q.29-.53.56-1.08.37-.75.73-1.53l.16-.35h-2.31l-.06.15a34.63,34.63,0,0,1-2.29,4.38,41.71,41.71,0,0,1-3.3,4.66l-.33.41h2.69l.07-.11q.47-.67.92-1.33l.42-.63v7.21a4,4,0,0,0,1.06,3,4.39,4.39,0,0,0,3.06,1h14.91ZM465,66.26V63.4h6.65v2.86Zm0,4.65V68h6.65v2.86ZM467,75.56c-1.4,0-2.06-.6-2.06-1.9v-1h6.65v2.86Z"/><path class="cls-14" d="M461.29,58.67h-2.41l-.07.14a43.25,43.25,0,0,1-2.58,4.33,40.87,40.87,0,0,1-3.94,4.91l-.39.42h2.76l.8-1,.28-.35V77.5H458V65.83h-1.19A54.9,54.9,0,0,0,461.09,59Z"/><path class="cls-14" d="M470.5,80.67a16.1,16.1,0,0,1-1.56-2.29l-.07-.13h-2.36l.2.37a19,19,0,0,0,1.82,2.79,26.45,26.45,0,0,0,2,2.27l.07.07h2.79l-.44-.43A30.42,30.42,0,0,1,470.5,80.67Z"/><path class="cls-14" d="M456.58,79.65a24.11,24.11,0,0,1-2,3.48,33.54,33.54,0,0,1-2.73,3.45l-.37.42h2.83l.07-.09c.46-.57.9-1.13,1.3-1.67s.77-1.08,1.12-1.63.7-1.14,1-1.75.68-1.28,1-2l.17-.36h-2.43Z"/><path class="cls-14" d="M518.9,54.62a4.39,4.39,0,0,0-1.39-1.06,4.19,4.19,0,0,0-1.85-.4H493.19a4.51,4.51,0,0,0-1.86.37,4.1,4.1,0,0,0-1.41,1,4.69,4.69,0,0,0-1.16,3.25V73.89a38.3,38.3,0,0,1-.56,6.64A20.15,20.15,0,0,1,486,86.67l-.2.37h2.61l.07-.14a21.85,21.85,0,0,0,2-5.63,34.08,34.08,0,0,0,.57-5.76h12.21V87h2.26V75.51h12.28v7.1a2.51,2.51,0,0,1-.59,1.69,2,2,0,0,1-1.59.67h-4.93l1,2.06h4.07a4.59,4.59,0,0,0,1.8-.31,4.2,4.2,0,0,0,1.31-.89h0a5.35,5.35,0,0,0,1.24-3.72V57.79A4.58,4.58,0,0,0,518.9,54.62Zm-1.14,10.5v8.37H505.48V65.12Zm0-7.48v5.46H505.48v-7.9h10.07a2,2,0,0,1,1.58.68A2.48,2.48,0,0,1,517.76,57.64Zm-24.57-2.45h10v7.9H491V57.67a2.74,2.74,0,0,1,.61-1.72A1.86,1.86,0,0,1,493.19,55.19Zm10,9.93v8.37H491V65.12Z"/><rect class="cls-14" x="526.47" y="62.47" width="12.19" height="2.02"/><path class="cls-14" d="M538.86,67.77h2.75l.07-.08c.47-.53.91-1,1.3-1.54a14.76,14.76,0,0,0,1.08-1.55,9.92,9.92,0,0,0,.94-2.25,9.74,9.74,0,0,0,.34-2.65V56.19a1.62,1.62,0,0,1,.26-.88.84.84,0,0,1,.78-.35h5.82a1.33,1.33,0,0,1,1,.27,1.4,1.4,0,0,1,.26,1v6.88a4,4,0,0,0,.77,2.79,3.87,3.87,0,0,0,2.88.9h2.6l1.17-1.91h-3.69c-.6,0-1-.14-1.15-.42a2.68,2.68,0,0,1-.28-1.32V56.35a3,3,0,0,0-1-2.58,3.18,3.18,0,0,0-2-.56H546a2.81,2.81,0,0,0-1.16.22A2.93,2.93,0,0,0,544,54a3.84,3.84,0,0,0-.67,1,3.17,3.17,0,0,0-.26,1.29V59.9a7.48,7.48,0,0,1-.3,2.19,8.28,8.28,0,0,1-.83,1.86,15.48,15.48,0,0,1-1.21,1.71c-.45.55-.94,1.12-1.46,1.69Z"/><path class="cls-14" d="M539.52,56.64h-5.08a16.28,16.28,0,0,1-1-1.81,13.31,13.31,0,0,1-.71-2l-.05-.18h-2.51l.09.32a19.76,19.76,0,0,0,.75,2.22c.21.5.43,1,.65,1.45h-6.22v2h14.06Z"/><rect class="cls-14" x="526.47" y="68.48" width="12.19" height="2.02"/><path class="cls-14" d="M560.38,86.61c-1.92-1.06-3.65-2.09-5.14-3.06a39.07,39.07,0,0,1-3.9-2.86,36.36,36.36,0,0,0,3.41-3.57,33.42,33.42,0,0,0,3-4.24,2.32,2.32,0,0,0,0-2.6,2.6,2.6,0,0,0-1-.91,3,3,0,0,0-1.47-.34h-15.1v1.75H554.9a.89.89,0,0,1,.87.45.87.87,0,0,1,0,.93A25.66,25.66,0,0,1,553,76a33.58,33.58,0,0,1-3.24,3.21,35.49,35.49,0,0,1-5.39-6.71l-.07-.12H541.8l.23.38a47.56,47.56,0,0,0,3,4.44,34.47,34.47,0,0,0,3,3.43,48.59,48.59,0,0,1-4.22,3c-1.54,1-3.18,2-4.87,2.94l-.82.47h4.06l.06,0c1.36-.76,2.68-1.56,3.92-2.37s2.37-1.63,3.49-2.52a34,34,0,0,0,3.37,2.5c1.24.81,2.59,1.61,4,2.39l4.17,0Z"/><path class="cls-14" d="M538.82,78.43a4,4,0,0,0-1-3,4.18,4.18,0,0,0-2.94-1h-4.14a3.84,3.84,0,0,0-3.12,1.22,4.1,4.1,0,0,0-.88,2.78v4.49a4.33,4.33,0,0,0,.84,2.78,3.94,3.94,0,0,0,3.24,1.3h3.95a4,4,0,0,0,3-1,4.19,4.19,0,0,0,1.13-3.15ZM535.09,85h-4.46a1.55,1.55,0,0,1-1.2-.45,1.76,1.76,0,0,1-.42-1.26v-5.2a1.47,1.47,0,0,1,.48-1.21,2.05,2.05,0,0,1,1.35-.41h3.87a1.91,1.91,0,0,1,1.39.44,1.6,1.6,0,0,1,.44,1.19v5.39a1.52,1.52,0,0,1-.43,1A1.29,1.29,0,0,1,535.09,85Z"/><rect class="cls-14" x="565.6" y="62.47" width="14.26" height="2.02"/><path class="cls-14" d="M580.75,56.64h-7a14.12,14.12,0,0,1-1-1.8,14.93,14.93,0,0,1-.69-2l-.05-.18H569.7l.09.32a19.68,19.68,0,0,0,.75,2.22c.21.5.42,1,.65,1.45h-6.65v2h16.21Z"/><polygon class="cls-14" points="591.15 66.33 591.15 52.7 588.85 52.7 588.85 66.33 580.68 66.33 580.68 68.48 588.85 68.48 588.85 87 591.15 87 591.15 68.48 599.28 68.48 599.28 66.33 591.15 66.33"/><rect class="cls-14" x="565.4" y="68.48" width="14.69" height="2.02"/><path class="cls-14" d="M575.77,74.43h-5.86a3.84,3.84,0,0,0-3.12,1.22,4.1,4.1,0,0,0-.88,2.78v4.49a4.33,4.33,0,0,0,.84,2.78A3.94,3.94,0,0,0,570,87h5.67a4.1,4.1,0,0,0,2.95-1,4.19,4.19,0,0,0,1.13-3.15V78.43a4,4,0,0,0-1.05-3A4,4,0,0,0,575.77,74.43ZM576,85h-6.17a1.55,1.55,0,0,1-1.2-.45,1.76,1.76,0,0,1-.42-1.26v-5.2a1.47,1.47,0,0,1,.48-1.21,2.05,2.05,0,0,1,1.35-.41h5.59a1.91,1.91,0,0,1,1.39.44,1.6,1.6,0,0,1,.43,1.19v5.39a1.52,1.52,0,0,1-.42,1A1.29,1.29,0,0,1,576,85Z"/><path class="cls-14" d="M638.19,86.47c-1.86-.49-3.65-1-5.32-1.54a45.31,45.31,0,0,1-4.37-1.61l-4.29,0,.95.47c1.35.68,2.79,1.32,4.28,1.9A25,25,0,0,0,633.66,87h6.39Z"/><path class="cls-14" d="M607,58.3a1.79,1.79,0,0,1,.41-1.19,1.34,1.34,0,0,1,1.1-.48h25.29a1.36,1.36,0,0,1,1.1.46,1.72,1.72,0,0,1,.41,1.17v2.95h2.3V58.69a4.14,4.14,0,0,0-.84-2.67A3.48,3.48,0,0,0,634,54.88H622.32c-.25-.3-.5-.61-.74-.93a6.69,6.69,0,0,1-.68-1.15l-.07-.14h-2.37l.14.35a9,9,0,0,0,.62,1.25,6.83,6.83,0,0,0,.44.64H608.33a3.29,3.29,0,0,0-2.9,1.36,4.26,4.26,0,0,0-.71,2.45v2.52H607Z"/><path class="cls-14" d="M607.33,65.41a3,3,0,0,0,.92,2.28,3.06,3.06,0,0,0,2.37.94h20.75a3.32,3.32,0,0,0,1.31-.25,3.76,3.76,0,0,0,1.05-.68,3.27,3.27,0,0,0,.93-2.4v-.81h3.52V62.74h-3.52v-.81a3.11,3.11,0,0,0-1-2.46,3.39,3.39,0,0,0-2.27-.76H610.63a3.19,3.19,0,0,0-3.3,3.3v.73h-3.56v1.75h3.56Zm12.58-.92v2.43h-9.13a1.16,1.16,0,0,1-.84-.3,1.11,1.11,0,0,1-.31-.85V64.49Zm-10.29-1.75V61.62a1.18,1.18,0,0,1,.32-.88,1.08,1.08,0,0,1,.8-.32h9.17v2.31Zm12.58,0V60.43h9a1.06,1.06,0,0,1,1.16,1.12v1.2Zm0,4.18V64.49h10.17v1.23a1.14,1.14,0,0,1-.33.87,1.09,1.09,0,0,1-.79.32Z"/><path class="cls-14" d="M631.19,69.93H611a3.26,3.26,0,0,0-3.65,3.61v5.51a3.65,3.65,0,0,0,.88,2.54,2.73,2.73,0,0,0,1.22.82,4.88,4.88,0,0,0,1.59.25h20.17a3.82,3.82,0,0,0,2.67-.92,3.43,3.43,0,0,0,1-2.65V73.5a3.37,3.37,0,0,0-1.11-2.77A4,4,0,0,0,631.19,69.93Zm1.39,9v.53a1.46,1.46,0,0,1-.41,1.11,1.4,1.4,0,0,1-1,.4H611.22a1.57,1.57,0,0,1-1.12-.4,1.42,1.42,0,0,1-.43-1.11v-.53Zm0-3.63v2H609.67v-2ZM609.67,73.6v-.45c0-1,.49-1.51,1.55-1.51H631a1.46,1.46,0,0,1,1.16.42,1.57,1.57,0,0,1,.39,1.08v.45Z"/><path class="cls-14" d="M614.73,83.32a19.17,19.17,0,0,1-1.77.75c-.72.27-1.53.54-2.41.82s-1.81.55-2.77.82-1.93.53-2.85.76L603,87h6.57a31.5,31.5,0,0,0,4.08-1.12A23.83,23.83,0,0,0,618,83.76l.78-.46h-3.92Z"/><path class="cls-14" d="M660.54,64.73a3.13,3.13,0,0,0-2.08.69,2.53,2.53,0,0,0-.79,2v4.3a2.35,2.35,0,0,0,.78,1.9,2.84,2.84,0,0,0,2.09.74h2.85a2.9,2.9,0,0,0,2-.65,2.53,2.53,0,0,0,.87-2V67.41a2.58,2.58,0,0,0-.88-2.08,3.34,3.34,0,0,0-2-.6Zm3.54,2.67v4.26a.69.69,0,0,1-.73.73h-2.78c-.49,0-.69-.2-.69-.69v-4.3c0-.54.21-.77.69-.77h2.78a.67.67,0,0,1,.52.21A.77.77,0,0,1,664.08,67.41Z"/><path class="cls-14" d="M670.7,74.34h2.89a3.09,3.09,0,0,0,2-.64h0a2.53,2.53,0,0,0,.87-2V67.41a2.58,2.58,0,0,0-.88-2.08,3.34,3.34,0,0,0-2-.6H670.7a3.13,3.13,0,0,0-2.08.69,2.53,2.53,0,0,0-.79,2v4.3a2.34,2.34,0,0,0,.78,1.9A2.84,2.84,0,0,0,670.7,74.34Zm-.65-2.63v-4.3c0-.54.21-.77.69-.77h2.81a.68.68,0,0,1,.52.21.77.77,0,0,1,.21.55v4.26a.69.69,0,0,1-.73.73h-2.81C670.25,72.39,670.05,72.19,670.05,71.7Z"/><path class="cls-14" d="M655.21,63.16h3.18l.07-.08c.63-.71,1.17-1.35,1.61-1.91s.86-1.11,1.24-1.63.75-1.07,1.08-1.62.7-1.16,1.1-1.89a1.92,1.92,0,0,1,.67-.76,2,2,0,0,1,1.06-.24h2.62a2.24,2.24,0,0,1,1.94.91q.78,1.14,1.49,2.11c.47.66.94,1.27,1.4,1.83s.92,1.1,1.4,1.63,1,1.06,1.54,1.58l.07.07h2.88l-.41-.42q-1-1-1.8-1.89c-.54-.58-1.06-1.17-1.53-1.75s-1-1.18-1.42-1.77-.93-1.22-1.4-1.87a12.33,12.33,0,0,0-.94-1.12,3.45,3.45,0,0,0-1-.75,4.85,4.85,0,0,0-2.18-.46h-2.62a5,5,0,0,0-2,.38,4.11,4.11,0,0,0-1.66,1.57l-1.29,2c-.38.6-.8,1.2-1.26,1.78s-1,1.19-1.48,1.81-1.17,1.3-1.92,2.06Z"/><rect class="cls-14" x="661.27" y="59.96" width="11.25" height="1.95"/><path class="cls-14" d="M644,74.28c0,.79-.07,1.66-.14,2.57s-.16,1.84-.27,2.76-.26,1.86-.43,2.78-.37,1.8-.6,2.66l-.09.32h1.86l0-.2c.36-1.66.68-3.45.94-5.31a51,51,0,0,0,.47-5.56V74H644Z"/><path class="cls-14" d="M652.16,79l.24,2.17q.12,1.08.27,2.25l0,.22h1.72l0-.29q-.2-1.21-.35-2.28c-.1-.7-.19-1.43-.27-2.16s-.14-1.48-.2-2.22-.09-1.56-.12-2.41V74h-1.59v.26c0,.89.07,1.72.12,2.47S652.08,78.26,652.16,79Z"/><path class="cls-14" d="M678.39,86.66c-.59-.61-1.12-1.2-1.59-1.75a20.61,20.61,0,0,1-1.27-1.64c-.38-.55-.76-1.14-1.12-1.76s-.74-1.33-1.12-2.13l-.07-.14h-.94q.25-.71.51-1.49.32-1,.63-2.06l.09-.32h-2.24l-.05.18c-.37,1.25-.7,2.35-1,3.26a21.4,21.4,0,0,1-1,2.59,19.68,19.68,0,0,1-1.39,2.43q-.31.47-.69,1l0-.05a21.55,21.55,0,0,1-1.89-2.69,17.71,17.71,0,0,1-1.27-2.68l-.06-.16h-1.07q.25-.71.51-1.49l.67-2.05.1-.33H661.8l-.05.18c-.33,1.21-.66,2.29-1,3.21a19.61,19.61,0,0,1-1,2.58,23,23,0,0,1-1.41,2.46c-.54.82-1.23,1.77-2.06,2.84L656,87h2.67l.07-.1a27.58,27.58,0,0,0,3.46-6.06c.35.71.7,1.38,1,2a22.67,22.67,0,0,0,1.4,2.21l.07.1h2.18q-.51.69-1.12,1.47l-.31.4h2.67l.08-.11a36.37,36.37,0,0,0,2.1-3.29A28,28,0,0,0,671.59,81c.28.52.55,1,.81,1.45s.68,1.12,1,1.63.71,1,1.09,1.48.81,1,1.28,1.46l.07.08h2.92Z"/><path class="cls-14" d="M651.27,81.07q-.14-1.07-.23-2.14c-.06-.7-.12-1.43-.16-2.18s-.06-1.55-.06-2.43v-.25h-1.68v.26c0,.88.07,1.71.12,2.45s.1,1.47.16,2.19.12,1.44.2,2.16.16,1.49.23,2.32l0,.23h1.72Z"/><path class="cls-14" d="M657,83.2V74.71a3.64,3.64,0,0,0-1-2.68,4.1,4.1,0,0,0-2.95-1h-.88V66.72h4.1V65h-4.1V60.82h4.18V59.11h-4.18V54.92h4.45V53.16h-9.4a3.41,3.41,0,0,0-2.81,1.1,3.57,3.57,0,0,0-.68,2.35V69.4a3.47,3.47,0,0,0,.77,2.4,4,4,0,0,0,3,1l5.71,0a1.57,1.57,0,0,1,1.17.45,1.62,1.62,0,0,1,.45,1.21v9.11a2,2,0,0,1-.34,1.25,1.41,1.41,0,0,1-1.17.41h-3.43l1,1.79h2.46a3.81,3.81,0,0,0,2.84-.9A4.21,4.21,0,0,0,657,83.2ZM645.9,56.35a1.57,1.57,0,0,1,.33-1.05,1.19,1.19,0,0,1,1-.38h2.92v4.19H645.9Zm4.23,4.47V65H645.9V60.82Zm0,5.9V71h-2.64a1.81,1.81,0,0,1-1.16-.36,1.17,1.17,0,0,1-.43-1v-3Z"/><path class="cls-14" d="M648.25,74.32v-.25h-1.63v.25c0,1.72.1,3.49.22,5.25s.28,3.65.49,5.6l0,.22H649l0-.28C648.53,81.39,648.3,77.76,648.25,74.32Z"/><path class="cls-14" d="M684.83,59.43a1.57,1.57,0,0,1,.42-1.08,1.37,1.37,0,0,1,1.08-.46H712a1.4,1.4,0,0,1,1.14.46,1.61,1.61,0,0,1,.41,1.09v4.35h2.3V59.55a3.46,3.46,0,0,0-1.27-2.86,4.28,4.28,0,0,0-2.65-.79H701a12.47,12.47,0,0,1-1.33-1.52c-.45-.6-.86-1.18-1.22-1.73l-.07-.11h-2.5l.2.37a16.38,16.38,0,0,0,1.19,1.92c.28.38.55.74.81,1.07H686.26a3.77,3.77,0,0,0-1.57.32,3.68,3.68,0,0,0-1.19.86,3.8,3.8,0,0,0-1,2.67v4h2.3Z"/><path class="cls-14" d="M699.87,79.34h14V77.4h-14V72.81h9.48l.8-.94q.62.37,1.23.71l1.37.75,4.58,0-.95-.47c-1.24-.62-2.38-1.23-3.37-1.81s-1.94-1.19-2.79-1.8-1.7-1.26-2.51-1.92-1.62-1.38-2.45-2.16l-.07-.07h-3.32l.47.43c1.43,1.33,2.73,2.48,3.86,3.41.89.74,1.75,1.4,2.55,2H687.54c.68-.42,1.39-.89,2.14-1.4,1-.71,2.08-1.45,3.09-2.19s2-1.45,2.87-2.13l2.14-1.63h13.57V61.68H686.95v1.91h7.26c-.47.36-1,.75-1.57,1.17l-2.5,1.8c-.86.61-1.72,1.21-2.57,1.77s-1.64,1.08-2.42,1.56a1.74,1.74,0,0,0-.77.87,1.51,1.51,0,0,0,0,1,1.27,1.27,0,0,0,.53.8,1.74,1.74,0,0,0,1,.3h11.67V77.4h-12.9v1.95h12.9v5.32H682v1.95h34.58V84.66H699.87Z"/><path class="cls-15" d="M164.95,33.71a3.15,3.15,0,0,1-2.51,1.08H139.38a3,3,0,0,1-2.3-1.11,3.67,3.67,0,0,1-.84-2.33V7.93a2.91,2.91,0,0,1,1.22-2.33,3.69,3.69,0,0,1,2.23-.7h22.57a3.34,3.34,0,0,1,2.51,1,3.79,3.79,0,0,1,.94,2.51V31.59A3.19,3.19,0,0,1,164.95,33.71ZM162.48,8.32a1,1,0,0,0-.84-.94H140.42a1,1,0,0,0-1,.87V31.41a1,1,0,0,0,1,.94h21.15a.86.86,0,0,0,.91-.91Zm-4.7,15.4c.24.94.73,2.79,1,3.66a1.1,1.1,0,0,0,1,.66h1.81l-.49,2.4h-1.92a3.91,3.91,0,0,1-1.64-.31A2.36,2.36,0,0,1,156.38,29a11.23,11.23,0,0,1-.63-1.92c-.7,1-2.19,3-3,3.87h-3.94a46.58,46.58,0,0,0,6-7.66c-.59-2.47-1.6-6.76-2-9.27H140.56V11.7h11.81c-.17-.84-.45-2.4-.56-3.2h2.82c.14.77.38,2.33.59,3.21h1.71a27.94,27.94,0,0,1-.87-2.75h2.68c.21.73.7,2.09,1,2.75h1.71V14h-5.75c.24,1.53.84,4.32,1.18,5.64a24.83,24.83,0,0,0,1.78-4h3A73.66,73.66,0,0,1,157.77,23.71ZM140.63,29.6V26.92a103.87,103.87,0,0,0,11.15-2.68v2.51A111.06,111.06,0,0,1,140.63,29.6ZM151,22.88a2.13,2.13,0,0,1-1.85.84h-5.43A2.2,2.2,0,0,1,142.1,23a2.47,2.47,0,0,1-.63-1.67V17.93a2.15,2.15,0,0,1,.73-1.57,2.7,2.7,0,0,1,1.71-.63h4.95a2.85,2.85,0,0,1,2,.7,2.6,2.6,0,0,1,.73,1.88V21A3.1,3.1,0,0,1,151,22.88Zm-2.54-4.21a.64.64,0,0,0-.66-.66h-2.72a.71.71,0,0,0-.73.7v2.09a.72.72,0,0,0,.66.7h2.86a.59.59,0,0,0,.59-.66Z"/><path class="cls-15" d="M170.73,35V32.56h16.62c2.82-5.61,4.32-11.81,5.61-17.91h3.27c-1.32,6.13-2.79,12.3-5.33,17.91h10.24V35Zm1.46-23.2V9.43h12.3c-.7-1.57-1.43-3.21-2-4.88H186a24.23,24.23,0,0,0,2.33,4.88h11v2.4Zm7.25,18.39a123.74,123.74,0,0,1-3.8-15.57h3.27A75.92,75.92,0,0,0,183,30.23Z"/><path class="cls-15" d="M217.41,27.82c-1.22,1.22-3.48,3.38-5.05,4.88h16.16a41.62,41.62,0,0,1-2.4-3.87h3.48A42.56,42.56,0,0,0,234.48,35H230.4a10.38,10.38,0,0,1-1.15-1.32L228.38,35H209.57a1.65,1.65,0,0,1-1.39-.73,1.6,1.6,0,0,1,.21-2.09c1.5-1.39,3.07-2.93,4.46-4.35h-7.35V25.46h30.27v2.37Zm14.81-9.48V12a.8.8,0,0,0-.8-.84h-9.3V19h-3.17V11.17h-9.2a.77.77,0,0,0-.77.77v6.41h-3V11.7a2.8,2.8,0,0,1,.73-2,3.06,3.06,0,0,1,2.16-.84h10.1V7.31H207.65V5h25.64V7.31H222.11V8.84h10.83a2.23,2.23,0,0,1,1.67.84,2.9,2.9,0,0,1,.63,1.81v6.86Zm-23.58,4.53v-2.3h23.93v2.3Zm1.53-8.15V12.64h7.66v2.09Zm0,3.76V16.33h7.66v2.16Zm13-3.76V12.64h7.73v2.09Zm0,3.76V16.33h7.73v2.16Z"/><path class="cls-15" d="M243.18,31.8h-2.93a67.08,67.08,0,0,0,2.06-17.59H245C244.89,20.26,244.61,26.22,243.18,31.8Zm6-19.12v22.4h-3.21V12.67h-5.23V10.2h5.23V4.59h3.14V10.2h5.29v2.47ZM251.82,29A82.31,82.31,0,0,1,250,14.2h2.72A60,60,0,0,0,255,29Zm5.61,2.82h-3a67.33,67.33,0,0,0,2.86-17.59h2.79A74.5,74.5,0,0,1,257.43,31.8Zm6.72-19.16V35.07H261V12.64H255.9V10.16H261V4.59h3.1v5.57h6v2.47Zm3.66,19.16a119.41,119.41,0,0,1-2.58-17.59h2.86c.52,5.47,1.25,12.58,2.86,17.59Z"/><path class="cls-15" d="M277.91,31.48h-3a58.43,58.43,0,0,0,2-15h2.65A68,68,0,0,1,277.91,31.48ZM283.49,15V35.1h-3V15h-5.16V12.53h5.16V8.07l-4.63.24V5.95a67.94,67.94,0,0,0,12.05-1.36V7.06c-1.22.21-3.41.56-4.46.7v4.77h5.19V15Zm2.61,16.51a84,84,0,0,1-1.64-15h2.72a63.44,63.44,0,0,0,2,15Zm17-5.36v9h-3.21V26.6L289.16,28V25.49l10.69-1.39V4.59h3.21V23.68l2.47-.28v2.44Zm-9.2-4.21A40.44,40.44,0,0,1,289.3,15h3.55A31.46,31.46,0,0,0,298,21.9Zm.38-8.54a37.61,37.61,0,0,1-4.49-7h3.66a31.09,31.09,0,0,0,4.95,7Z"/><path class="cls-15" d="M317.83,21.83V32.25a2.65,2.65,0,0,1-.8,2,2.71,2.71,0,0,1-1.92.66h-3.27l-1.15-2.44h3.38a.71.71,0,0,0,.73-.7V22.91c-1.36.45-3.34,1-4.77,1.39V21.55c1.46-.35,3.76-1,4.77-1.39V12.95h-4.46V10.62h4.46V4.55h3v6.1h3.66v2.3h-3.66V19a36.21,36.21,0,0,0,3.69-1.53v2.75C320.48,20.75,319.09,21.34,317.83,21.83ZM335.28,34.9a47.72,47.72,0,0,1-4.63-4.21c-1.67,1.5-3.31,2.93-5.05,4.21H320a68.1,68.1,0,0,0,8.57-6.62,57.84,57.84,0,0,1-5.33-8.08h3.38a45,45,0,0,0,4.15,6,28.27,28.27,0,0,0,5.09-6.72c.14-.21,0-.42-.14-.42h-13V16.54h6.48V12.22h-6.86V9.81h6.86V4.55h3.17V9.81h7.59v2.4h-7.59v4.32h4.08a2.48,2.48,0,0,1,2.3,1.15,2.55,2.55,0,0,1,0,2.4,31.14,31.14,0,0,1-5.89,8.36,48.87,48.87,0,0,0,7.91,6.44Z"/><path class="cls-15" d="M370.19,35c-4.46-4.15-8.5-9.82-10.14-14.77A35.74,35.74,0,0,1,349.6,35h-4.88c7.63-5.75,12.71-12.85,13.38-20.76H345.21V11.76h13a61.59,61.59,0,0,0,.14-7.14h3.24c.07,1.81,0,5.4-.17,7.14h13.38v2.47H361.2c-.1,1-.42,2.82-.63,3.9h1.88c2,6.55,7.56,13,12.78,16.86Z"/><path class="cls-15" d="M396.59,28.56V32a3,3,0,0,1-.77,2.3,3.13,3.13,0,0,1-2.16.7h-4.53l-.87-2.33h4.49a.56.56,0,0,0,.59-.63V28.56H379.63V26.33h13.73v-.77a38.94,38.94,0,0,0,4.18-1.5H385.3V21.8h16.93a1.2,1.2,0,0,1,1.22.77,1.11,1.11,0,0,1-.49,1.36,35.79,35.79,0,0,1-5.4,2.4H410v2.23Zm9.86-5.33V20.58a.63.63,0,0,0-.66-.7h-22a.75.75,0,0,0-.66.7v2.65H380V20.44a3.57,3.57,0,0,1,.35-1.64,2.83,2.83,0,0,1,1.22-1.08V8.07a2.15,2.15,0,0,1,.56-1.32,2.79,2.79,0,0,1,1.36-.84A65.14,65.14,0,0,0,390,4.52V7c-1.25.28-3.62.77-4.81,1a.85.85,0,0,0-.66.73v.66h4.74v2h-4.74v2.16h4.74v2.05h-4.74v2.06H405V15.56h-4.6V13.51H405V11.35h-4.6v-2H405V8a.72.72,0,0,0-.8-.77H400V5h5.05a2.81,2.81,0,0,1,2.19.84,3,3,0,0,1,.7,2.13v9.79a2.3,2.3,0,0,1,1.08.91,2.6,2.6,0,0,1,.42,1.39v3.13Zm-9.82-6.44c-.45-.28-1.29-.87-1.71-1.18a12.35,12.35,0,0,1-1.81,1.18h-3.76a40.23,40.23,0,0,0,3.9-2.65c-.77-.73-2.06-2.06-2.79-2.89h3.21A17.55,17.55,0,0,0,395,12.67c.38-.31,1.11-1,1.53-1.43h3.14a39.93,39.93,0,0,1-3,3,30.09,30.09,0,0,0,3.62,2.58Zm-.45-6.27a15.55,15.55,0,0,1-1.29-1c-.38.28-1.08.77-1.46,1h-3.69c.91-.59,2.65-1.81,3.45-2.47a20.64,20.64,0,0,1-2.79-3.1h3.17c.38.49,1.08,1.25,1.39,1.6.42-.38,1.15-1.08,1.64-1.6h3.07a29.35,29.35,0,0,1-3,3.14c.8.66,2.44,1.88,3.27,2.44Z"/><path class="cls-15" d="M450.65,17.06V11.7c0-.49-.21-.84-.77-.84h-9.06v6.58h-3.07V10.86h-9.06a.75.75,0,0,0-.66.84v5.36h-3.14V11.8a3.44,3.44,0,0,1,.8-2.3,2.84,2.84,0,0,1,2.19-.87h9.86V7.1H426.3V4.94h26V7.1h-11.5V8.63h10a2.73,2.73,0,0,1,2.13.87,3.19,3.19,0,0,1,.84,2.26v5.29ZM453.79,35H441.32a3.51,3.51,0,0,1-2.65-.94,3.35,3.35,0,0,1-.87-2.44v-1h-8.88a3,3,0,0,1-2.06-.77,3.08,3.08,0,0,1-1-2.37V22.67a2.9,2.9,0,0,1,3-2.89h9V18.14H441v1.64h8.92a3.1,3.1,0,0,1,2.33,1,2.93,2.93,0,0,1,.7,2v4.7a3.14,3.14,0,0,1-.77,2.23,3.69,3.69,0,0,1-2.68.91H441v1.32a.73.73,0,0,0,.73.8h13Zm-16-13h-8.08a.68.68,0,0,0-.7.7V24h8.78Zm0,4.25H429v1.5a.7.7,0,0,0,.7.77h8.08Zm-8.53-11.95V12.18h7.42v2.06Zm0,3.21v-2h7.42v2Zm20.55,5.16a.74.74,0,0,0-.77-.66H441V24h8.85Zm0,3.59H441v2.26h8.12a.74.74,0,0,0,.73-.77ZM442,14.24V12.18h7.42v2.06Zm0,3.21v-2h7.42v2Z"/><path class="cls-15" d="M475.8,20.51V32.18a2.59,2.59,0,0,1-.8,2,3.3,3.3,0,0,1-2.3.87H469l-1.18-2.54h3.76a.91.91,0,0,0,1-.84V20.51H458.94V18.07h13.59V14.45a64.64,64.64,0,0,0,10.1-6.79H460.44V5.22H485.1a1.89,1.89,0,0,1,1.78,1.11,2.09,2.09,0,0,1-.52,2.26,59.37,59.37,0,0,1-10.56,7.07v2.4h13.55v2.44Z"/><path class="cls-15" d="M493.81,35V32.46h13.52V7.93H495.27V5.39h27.28V7.93h-12V32.46h13.66V35Z"/><path class="cls-15" d="M531.36,31.62h-3c1.43-4.6,1.53-10,1.81-15h2.61C532.61,21.62,532.54,27,531.36,31.62ZM536.79,15V35h-3.14V15h-4.84V12.6h4.84V8.21l-4,.31V6.05a64.33,64.33,0,0,0,11-1.5V7c-1.29.28-2.68.52-3.94.7V12.6h4.6V15Zm2.54,16.65c-1.29-4.7-1.5-9.89-1.78-15h2.68c.17,5.19.42,10.42,2,15Zm1.6,3.41v-2.4h7.66V27.27H542V24.93h6.58V20.2c-1.32.14-4,.42-5.89.42V18.17a66.14,66.14,0,0,0,14.74-1.88v2.54c-.91.21-4.25.84-5.68,1v5.12h6.41v2.33h-6.34v5.37H559V35Zm15.92-21a2.78,2.78,0,0,1-2.09.84h-9a3.51,3.51,0,0,1-2.72-1,3.25,3.25,0,0,1-.7-2.19V8.35a3.33,3.33,0,0,1,.84-2.54A3.69,3.69,0,0,1,546,5h8.26a3.72,3.72,0,0,1,2.4.7,2.93,2.93,0,0,1,1,2.51V11.7A3.24,3.24,0,0,1,556.86,14Zm-2.37-6.1a.63.63,0,0,0-.59-.56h-7.63c-.35,0-.66.14-.66.59v4a.55.55,0,0,0,.56.56H554a.6.6,0,0,0,.52-.56Z"/><path class="cls-15" d="M568.18,33.85h-4.7a27.64,27.64,0,0,0,6.41-8.5h3.76A30,30,0,0,1,568.18,33.85Zm21.32-10c-.49-.52-1.32-1.5-1.71-2l-1.25,2h-6.13v8.33a2.83,2.83,0,0,1-.73,2,3.14,3.14,0,0,1-2.33.84h-3.41l-1.08-2.44h3.45a.84.84,0,0,0,.91-.84V23.89H566.44a1.64,1.64,0,0,1-1.78-1.22,1.68,1.68,0,0,1,1-1.85l9-4.21h-6.76a1.91,1.91,0,0,1-1.74-1.12,1.76,1.76,0,0,1,.94-2.26l8.08-4.42c-2.89.07-7.59.17-10.14.21V6.64c8-.14,20.21-.56,27.17-2V7.24c-2.72.38-7.91.94-10.38,1.11l-9.23,5.09c-.42.24-1.25.66-1.67.84.49,0,1.11,0,1.5,0h7.28l6-2.89h7l-18.36,8.71c-1,.45-2.58,1.15-3.48,1.5,1,0,2.93-.07,3.94-.07h12.71A34.53,34.53,0,0,1,584.59,17h3.62a27.8,27.8,0,0,0,6.17,6.79Zm-.35,10a33.28,33.28,0,0,1-5.12-8.5h3.59a31.25,31.25,0,0,0,6.37,8.5Z"/></g></g></svg>